<svg width="92" height="62" viewBox="0 0 92 62" fill="none" xmlns="http://www.w3.org/2000/svg">
<g id="Group">
<path id="Vector" d="M36.9014 47.0659H7.37623C6.92132 47.0659 6.55255 46.687 6.55255 46.2196V41.5699C6.55255 41.1025 6.92132 40.7236 7.37623 40.7236H36.9014C37.3563 40.7236 37.7251 41.1025 37.7251 41.5699V46.2196C37.7251 46.687 37.3563 47.0659 36.9014 47.0659Z" fill="white" stroke="black" stroke-width="0.1" stroke-miterlimit="10" stroke-linecap="round" stroke-linejoin="round"/>
<path id="Vector_2" d="M53.3354 47.0659H43.3521C42.8971 47.0659 42.5284 46.687 42.5284 46.2196V41.5699C42.5284 41.1025 42.8972 40.7236 43.3521 40.7236H53.3354C53.7903 40.7236 54.1591 41.1025 54.1591 41.5699V46.2196C54.1591 46.687 53.7903 47.0659 53.3354 47.0659Z" fill="white" stroke="black" stroke-width="0.1" stroke-miterlimit="10" stroke-linecap="round" stroke-linejoin="round"/>
<path id="Vector_3" d="M52.3555 32.6996H44.2281C42.9108 32.6996 41.843 31.6025 41.843 30.2491V26.2279C41.843 24.8745 42.9108 23.7773 44.2281 23.7773H52.3555C53.6727 23.7773 54.7405 24.8745 54.7405 26.2279V30.2491C54.7405 31.6025 53.6727 32.6996 52.3555 32.6996Z" fill="#FBBC05" stroke="black" stroke-width="0.1" stroke-miterlimit="10" stroke-linecap="round" stroke-linejoin="round"/>
<path id="Vector_4" d="M46.3943 23.7773H45.9092V28.1797H46.3943V23.7773Z" fill="#FBBC05" stroke="black" stroke-width="0.1" stroke-miterlimit="10" stroke-linecap="round" stroke-linejoin="round"/>
<path id="Vector_5" d="M50.7815 28.1807H50.2964V32.583H50.7815V28.1807Z" fill="#FBBC05" stroke="black" stroke-width="0.1" stroke-miterlimit="10" stroke-linecap="round" stroke-linejoin="round"/>
<path id="Vector_6" d="M54.7405 27.9746H41.843V28.3857H54.7405V27.9746Z" fill="#FBBC05" stroke="black" stroke-width="0.1" stroke-miterlimit="10" stroke-linecap="round" stroke-linejoin="round"/>
<g id="Group_2">
<path id="Vector_7" d="M12.7377 33.9637C15.8111 33.9637 18.3027 31.4009 18.3027 28.2396C18.3027 25.0784 15.8111 22.5156 12.7377 22.5156C9.66416 22.5156 7.17261 25.0784 7.17261 28.2396C7.17261 31.4009 9.66416 33.9637 12.7377 33.9637Z" fill="#4285F4" stroke="black" stroke-width="0.1" stroke-miterlimit="10" stroke-linecap="round" stroke-linejoin="round"/>
<path id="Vector_8" d="M21.7916 33.9637C24.8651 33.9637 27.3566 31.4009 27.3566 28.2396C27.3566 25.0784 24.8651 22.5156 21.7916 22.5156C18.7181 22.5156 16.2266 25.0784 16.2266 28.2396C16.2266 31.4009 18.7181 33.9637 21.7916 33.9637Z" fill="#FBBC05" stroke="black" stroke-width="0.1" stroke-miterlimit="10" stroke-linecap="round" stroke-linejoin="round"/>
</g>
<g id="Group_3">
<path id="Vector_9" d="M55.2104 57.1949H5.50139C3.01537 57.1949 1.00006 55.1243 1.00006 52.57V21.5605C1.00006 19.0062 3.01537 16.9355 5.50139 16.9355H55.2104C57.6964 16.9355 59.7117 19.0062 59.7117 21.5605V52.57C59.7117 55.1243 57.6964 57.1949 55.2104 57.1949Z" fill="white"/>
<g id="Clip path group">
<mask id="mask0_390_1103" style="mask-type:luminance" maskUnits="userSpaceOnUse" x="1" y="16" width="59" height="42">
<g id="d">
<path id="Vector_10" d="M55.2103 57.1949H5.50133C3.01531 57.1949 1 55.1243 1 52.57V21.5605C1 19.0062 3.01531 16.9355 5.50133 16.9355H55.2103C57.6963 16.9355 59.7116 19.0062 59.7116 21.5605V52.57C59.7116 55.1243 57.6963 57.1949 55.2103 57.1949Z" fill="white"/>
</g>
</mask>
<g mask="url(#mask0_390_1103)">
<path id="Vector_11" d="M-4.51521 68.5542L63.171 14.8145L61.106 66.7723L-24.8511 68.5542" fill="#D6E1F2"/>
</g>
</g>
<g id="Clip path group_2">
<mask id="mask1_390_1103" style="mask-type:luminance" maskUnits="userSpaceOnUse" x="1" y="16" width="59" height="42">
<g id="d_2">
<path id="Vector_12" d="M55.2103 57.1949H5.50133C3.01531 57.1949 1 55.1243 1 52.57V21.5605C1 19.0062 3.01531 16.9355 5.50133 16.9355H55.2103C57.6963 16.9355 59.7116 19.0062 59.7116 21.5605V52.57C59.7116 55.1243 57.6963 57.1949 55.2103 57.1949Z" fill="white"/>
</g>
</mask>
<g mask="url(#mask1_390_1103)">
<g id="Group_4">
<path id="Vector_13" d="M36.9013 47.683H7.37617C6.92126 47.683 6.55249 47.3042 6.55249 46.8368V42.1871C6.55249 41.7197 6.92126 41.3408 7.37617 41.3408H36.9013C37.3562 41.3408 37.725 41.7197 37.725 42.1871V46.8368C37.725 47.3042 37.3562 47.683 36.9013 47.683Z" fill="white" stroke="black" stroke-width="0.1" stroke-miterlimit="10" stroke-linecap="round" stroke-linejoin="round"/>
<path id="Vector_14" d="M53.3354 47.683H43.352C42.8971 47.683 42.5283 47.3042 42.5283 46.8368V42.1871C42.5283 41.7197 42.8971 41.3408 43.352 41.3408H53.3354C53.7903 41.3408 54.159 41.7197 54.159 42.1871V46.8368C54.159 47.3042 53.7903 47.683 53.3354 47.683Z" fill="white" stroke="black" stroke-width="0.1" stroke-miterlimit="10" stroke-linecap="round" stroke-linejoin="round"/>
</g>
</g>
</g>
<path id="Vector_15" d="M55.2104 57.1949H5.50139C3.01537 57.1949 1.00006 55.1243 1.00006 52.57V21.5605C1.00006 19.0062 3.01537 16.9355 5.50139 16.9355H55.2104C57.6964 16.9355 59.7117 19.0062 59.7117 21.5605V52.57C59.7117 55.1243 57.6964 57.1949 55.2104 57.1949Z" stroke="black" stroke-width="0.1" stroke-miterlimit="10" stroke-linecap="round" stroke-linejoin="round"/>
<g id="Group_5">
<path id="Vector_16" d="M52.3556 33.3158H44.2281C42.9109 33.3158 41.8431 32.2187 41.8431 30.8653V26.8441C41.8431 25.4907 42.9109 24.3936 44.2281 24.3936H52.3556C53.6728 24.3936 54.7406 25.4907 54.7406 26.8441V30.8653C54.7406 32.2187 53.6728 33.3158 52.3556 33.3158Z" fill="#FBBC05"/>
<g id="Clip path group_3">
<mask id="mask2_390_1103" style="mask-type:luminance" maskUnits="userSpaceOnUse" x="41" y="24" width="14" height="10">
<g id="f">
<path id="Vector_17" d="M52.3556 33.3178H44.2282C42.911 33.3178 41.8431 32.2206 41.8431 30.8673V26.846C41.8431 25.4926 42.911 24.3955 44.2282 24.3955H52.3556C53.6728 24.3955 54.7407 25.4926 54.7407 26.846V30.8673C54.7407 32.2206 53.6728 33.3178 52.3556 33.3178Z" fill="white"/>
</g>
</mask>
<g mask="url(#mask2_390_1103)">
<path id="Vector_18" d="M56.3046 28.6013H45.9342V23.3867H45.3315V28.6013H40.2792V29.1121H50.7825V34.3267H51.3852V29.1121H56.3046V28.6013Z" fill="#FDBD04"/>
</g>
</g>
<path id="Vector_19" d="M52.3556 33.3158H44.2281C42.9109 33.3158 41.8431 32.2187 41.8431 30.8653V26.8441C41.8431 25.4907 42.9109 24.3936 44.2281 24.3936H52.3556C53.6728 24.3936 54.7406 25.4907 54.7406 26.8441V30.8653C54.7406 32.2187 53.6728 33.3158 52.3556 33.3158Z" stroke="black" stroke-width="0.1" stroke-miterlimit="10" stroke-linecap="round" stroke-linejoin="round"/>
</g>
<g id="Group_6">
<path id="Vector_20" d="M12.7375 34.5799C15.811 34.5799 18.3025 32.0172 18.3025 28.8559C18.3025 25.6946 15.811 23.1318 12.7375 23.1318C9.66398 23.1318 7.17242 25.6946 7.17242 28.8559C7.17242 32.0172 9.66398 34.5799 12.7375 34.5799Z" fill="#FDBD04" stroke="black" stroke-width="0.1" stroke-miterlimit="10" stroke-linecap="round" stroke-linejoin="round"/>
<path id="Vector_21" d="M21.7915 34.5799C24.865 34.5799 27.3565 32.0172 27.3565 28.8559C27.3565 25.6946 24.865 23.1318 21.7915 23.1318C18.718 23.1318 16.2264 25.6946 16.2264 28.8559C16.2264 32.0172 18.718 34.5799 21.7915 34.5799Z" fill="#FBBC05" stroke="black" stroke-width="0.1" stroke-miterlimit="10" stroke-linecap="round" stroke-linejoin="round"/>
</g>
</g>
<path id="Vector_22" d="M17.1163 19.4785C16.5757 20.235 15.8698 20.8659 15.066 21.3108" stroke="black" stroke-width="0.1" stroke-miterlimit="10"/>
<path id="Vector_23" d="M44.6121 38.6436C44.1505 39.3233 43.6888 40.0031 43.2272 40.6829" stroke="black" stroke-width="0.1" stroke-miterlimit="10"/>
<g id="Group_7">
<path id="Vector_24" d="M40.4319 4.93555C38.4137 4.93555 36.7776 6.61835 36.7776 8.69418V11.479H44.0861V8.69418C44.0861 6.61835 42.4501 4.93555 40.4319 4.93555Z" fill="#1D71FC" stroke="black" stroke-width="0.1" stroke-miterlimit="10" stroke-linecap="round" stroke-linejoin="round"/>
<path id="Vector_25" d="M77.4842 4.93655H77.4842H50.4503V4.93652H40.4318C42.45 4.93652 44.0861 6.61932 44.0861 8.69516V11.48H44.0861V50.6645V53.4494C44.0861 55.2987 45.3856 56.8325 47.096 57.1461C47.3055 57.1845 47.5201 57.208 47.7403 57.208H47.7403H81.1385V11.48V8.69516C81.1385 6.61932 79.5024 4.93655 77.4842 4.93655Z" fill="#1AB944"/>
<g id="Clip path group_4">
<mask id="mask3_390_1103" style="mask-type:luminance" maskUnits="userSpaceOnUse" x="40" y="4" width="42" height="54">
<g id="h">
<path id="Vector_26" d="M77.4843 4.93557H77.4842H50.4504V4.93555H40.4319C42.4501 4.93555 44.0861 6.61835 44.0861 8.69418V11.479H44.0861V50.6635V53.4484C44.0861 55.2977 45.3857 56.8316 47.096 57.1451C47.3056 57.1835 47.5201 57.207 47.7404 57.207H47.7404H81.1385V11.479V8.69418C81.1385 6.61834 79.5025 4.93557 77.4843 4.93557Z" fill="white"/>
</g>
</mask>
<g mask="url(#mask3_390_1103)">
<path id="Vector_27" d="M81.1385 11.4795C82.6236 56.6113 62.1506 55.3421 44.0861 57.1455C26.0216 58.949 37.3974 63.0276 37.3974 63.0276L63.0885 65.8348C63.0885 65.8348 80.4332 62.2256 81.1385 62.3592C81.8438 62.4929 88.447 27.9396 88.447 27.9396L81.1385 11.4795Z" fill="#0FA337"/>
</g>
</g>
<path id="Vector_28" d="M77.4842 4.93655H77.4842H50.4503V4.93652H40.4318C42.45 4.93652 44.0861 6.61932 44.0861 8.69516V11.48H44.0861V50.6645V53.4494C44.0861 55.2987 45.3856 56.8325 47.096 57.1461C47.3055 57.1845 47.5201 57.208 47.7403 57.208H47.7403H81.1385V11.48V8.69516C81.1385 6.61932 79.5024 4.93655 77.4842 4.93655Z" stroke="black" stroke-width="0.1" stroke-miterlimit="10" stroke-linecap="round" stroke-linejoin="round"/>
<g id="Group_8">
<path id="Vector_29" d="M84.9878 50.6611H51.3946V53.446C51.3946 55.5218 49.7585 57.2046 47.7404 57.2046H84.7925C84.7926 57.2046 84.7926 57.2046 84.7927 57.2046H84.7927C84.7928 57.2046 84.7929 57.2046 84.793 57.2046H84.9878V57.1945C86.9147 57.0896 88.447 55.4541 88.447 53.446V50.6611H84.9878Z" fill="white"/>
<path id="Vector_30" d="M84.9878 50.6611H51.3946V53.446C51.3946 55.5218 49.7585 57.2046 47.7404 57.2046H84.7925C84.7926 57.2046 84.7926 57.2046 84.7927 57.2046H84.7927C84.7928 57.2046 84.7929 57.2046 84.793 57.2046H84.9878V57.1945C86.9147 57.0896 88.447 55.4541 88.447 53.446V50.6611H84.9878V50.6611Z" stroke="black" stroke-width="0.1" stroke-miterlimit="10" stroke-linecap="round" stroke-linejoin="round"/>
<path id="Vector_31" d="M47.096 57.2045H47.7403C47.5201 57.2045 47.3055 57.181 47.096 57.1426V57.2045Z" fill="#4285F4" stroke="black" stroke-width="0.1" stroke-miterlimit="10" stroke-linecap="round" stroke-linejoin="round"/>
</g>
<g id="Group_9">
<g id="Group_10" opacity="0.73">
<path id="Vector_32" d="M50.5308 19.2041C48.9925 19.2041 47.7455 20.4868 47.7455 22.069C47.7455 23.6513 48.9925 24.934 50.5308 24.934C52.0691 24.934 53.3162 23.6513 53.3162 22.069C53.3162 20.4868 52.0691 19.2041 50.5308 19.2041ZM50.5308 23.4237C49.8035 23.4237 49.2138 22.8172 49.2138 22.069C49.2138 21.3209 49.8035 20.7144 50.5308 20.7144C51.2582 20.7144 51.8479 21.3209 51.8479 22.069C51.8479 22.8172 51.2582 23.4237 50.5308 23.4237Z" fill="white" stroke="black" stroke-width="0.1" stroke-miterlimit="10" stroke-linecap="round" stroke-linejoin="round"/>
<path id="Vector_33" d="M76.9998 21.6717H55.3972C54.9743 21.6717 54.6315 21.3195 54.6315 20.885V20.86C54.6315 20.4255 54.9743 20.0732 55.3972 20.0732H76.9998C77.4226 20.0732 77.7655 20.4255 77.7655 20.86V20.885C77.7655 21.3195 77.4226 21.6717 76.9998 21.6717Z" fill="white" stroke="black" stroke-width="0.1" stroke-miterlimit="10" stroke-linecap="round" stroke-linejoin="round"/>
<path id="Vector_34" d="M62.3228 24.0655H55.3972C54.9743 24.0655 54.6315 23.7133 54.6315 23.2788V23.2779C54.6315 22.8434 54.9743 22.4912 55.3972 22.4912H62.3228C62.7457 22.4912 63.0885 22.8434 63.0885 23.2779V23.2788C63.0885 23.7133 62.7457 24.0655 62.3228 24.0655Z" fill="white" stroke="black" stroke-width="0.1" stroke-miterlimit="10" stroke-linecap="round" stroke-linejoin="round"/>
<path id="Vector_35" d="M71.7105 24.0655H64.7849C64.362 24.0655 64.0192 23.7133 64.0192 23.2788V23.2779C64.0192 22.8434 64.362 22.4912 64.7849 22.4912H71.7105C72.1334 22.4912 72.4762 22.8434 72.4762 23.2779V23.2788C72.4762 23.7133 72.1334 24.0655 71.7105 24.0655Z" fill="white" stroke="black" stroke-width="0.1" stroke-miterlimit="10" stroke-linecap="round" stroke-linejoin="round"/>
</g>
<g id="Group_11" opacity="0.73">
<path id="Vector_36" d="M50.5308 40.1289C48.9925 40.1289 47.7455 41.4116 47.7455 42.9938C47.7455 44.5761 48.9925 45.8588 50.5308 45.8588C52.0691 45.8588 53.3162 44.5761 53.3162 42.9938C53.3162 41.4116 52.0691 40.1289 50.5308 40.1289ZM50.5308 44.3485C49.8035 44.3485 49.2138 43.742 49.2138 42.9938C49.2138 42.2457 49.8035 41.6392 50.5308 41.6392C51.2582 41.6392 51.8479 42.2457 51.8479 42.9938C51.8479 43.742 51.2582 44.3485 50.5308 44.3485Z" fill="white" stroke="black" stroke-width="0.1" stroke-miterlimit="10" stroke-linecap="round" stroke-linejoin="round"/>
<path id="Vector_37" d="M76.9998 42.5965H55.3972C54.9743 42.5965 54.6315 42.2443 54.6315 41.8098V41.7848C54.6315 41.3503 54.9743 40.998 55.3972 40.998H76.9998C77.4226 40.998 77.7655 41.3503 77.7655 41.7848V41.8098C77.7655 42.2443 77.4226 42.5965 76.9998 42.5965Z" fill="white" stroke="black" stroke-width="0.1" stroke-miterlimit="10" stroke-linecap="round" stroke-linejoin="round"/>
<path id="Vector_38" d="M62.3228 44.9893H55.3972C54.9743 44.9893 54.6315 44.6371 54.6315 44.2026V44.2018C54.6315 43.7673 54.9743 43.415 55.3972 43.415H62.3228C62.7457 43.415 63.0885 43.7673 63.0885 44.2018V44.2026C63.0885 44.6371 62.7457 44.9893 62.3228 44.9893Z" fill="white" stroke="black" stroke-width="0.1" stroke-miterlimit="10" stroke-linecap="round" stroke-linejoin="round"/>
<path id="Vector_39" d="M71.7105 44.9893H64.7849C64.362 44.9893 64.0192 44.6371 64.0192 44.2026V44.2018C64.0192 43.7673 64.362 43.415 64.7849 43.415H71.7105C72.1334 43.415 72.4762 43.7673 72.4762 44.2018V44.2026C72.4762 44.6371 72.1334 44.9893 71.7105 44.9893Z" fill="white" stroke="black" stroke-width="0.1" stroke-miterlimit="10" stroke-linecap="round" stroke-linejoin="round"/>
</g>
</g>
<g id="Group_12">
<path id="Vector_40" d="M66.4189 12.4393H59.092C58.8415 12.4393 58.6385 12.2307 58.6385 11.9733V11.2736C58.6385 11.0162 58.8415 10.8076 59.092 10.8076H66.4189C66.6693 10.8076 66.8724 11.0162 66.8724 11.2736V11.9733C66.8724 12.2307 66.6693 12.4393 66.4189 12.4393Z" fill="white" stroke="black" stroke-width="0.1" stroke-miterlimit="10" stroke-linecap="round" stroke-linejoin="round"/>
<path id="Vector_41" d="M69.2139 14.9646H56.2971C56.0466 14.9646 55.8436 14.756 55.8436 14.4987V14.4982C55.8436 14.2408 56.0466 14.0322 56.2971 14.0322H69.2139C69.4644 14.0322 69.6674 14.2408 69.6674 14.4982V14.4987C69.6674 14.756 69.4644 14.9646 69.2139 14.9646Z" fill="white" stroke="black" stroke-width="0.1" stroke-miterlimit="10" stroke-linecap="round" stroke-linejoin="round"/>
</g>
<g id="Group_13">
<path id="Vector_42" d="M50.5308 29.666C48.9925 29.666 47.7455 30.9487 47.7455 32.5309C47.7455 34.1132 48.9925 35.3959 50.5308 35.3959C52.0691 35.3959 53.3162 34.1132 53.3162 32.5309C53.3162 30.9487 52.0691 29.666 50.5308 29.666ZM50.5308 33.8856C49.8035 33.8856 49.2138 33.2791 49.2138 32.5309C49.2138 31.7828 49.8035 31.1763 50.5308 31.1763C51.2582 31.1763 51.8479 31.7828 51.8479 32.5309C51.8479 33.2791 51.2582 33.8856 50.5308 33.8856Z" fill="white" stroke="black" stroke-width="0.1" stroke-miterlimit="10" stroke-linecap="round" stroke-linejoin="round"/>
<path id="Vector_43" d="M76.9998 32.1336H55.3972C54.9743 32.1336 54.6315 31.7814 54.6315 31.3469V31.3219C54.6315 30.8874 54.9743 30.5352 55.3972 30.5352H76.9998C77.4226 30.5352 77.7655 30.8874 77.7655 31.3219V31.3469C77.7655 31.7814 77.4226 32.1336 76.9998 32.1336Z" fill="white" stroke="black" stroke-width="0.1" stroke-miterlimit="10" stroke-linecap="round" stroke-linejoin="round"/>
<path id="Vector_44" d="M62.3228 34.5274H55.3972C54.9743 34.5274 54.6315 34.1752 54.6315 33.7407V33.7398C54.6315 33.3053 54.9743 32.9531 55.3972 32.9531H62.3228C62.7457 32.9531 63.0885 33.3053 63.0885 33.7398V33.7407C63.0885 34.1752 62.7457 34.5274 62.3228 34.5274Z" fill="white" stroke="black" stroke-width="0.1" stroke-miterlimit="10" stroke-linecap="round" stroke-linejoin="round"/>
<path id="Vector_45" d="M71.7105 34.5274H64.7849C64.362 34.5274 64.0192 34.1752 64.0192 33.7407V33.7398C64.0192 33.3053 64.362 32.9531 64.7849 32.9531H71.7105C72.1334 32.9531 72.4762 33.3053 72.4762 33.7398V33.7407C72.4762 34.1752 72.1334 34.5274 71.7105 34.5274Z" fill="white" stroke="black" stroke-width="0.1" stroke-miterlimit="10" stroke-linecap="round" stroke-linejoin="round"/>
</g>
<path id="Vector_46" d="M52.908 8.53809C52.1861 9.56512 51.4044 10.5477 50.5687 11.4789" stroke="black" stroke-width="0.1" stroke-miterlimit="10"/>
<path id="Vector_47" d="M76.9506 53.1855C76.734 53.4083 76.5174 53.6311 76.3008 53.8539" stroke="black" stroke-width="0.1" stroke-miterlimit="10"/>
</g>
<g id="Group_14">
<path id="Vector_48" d="M31.317 3.523C31.0643 3.30986 30.7469 3.19432 30.4209 3.17263L27.6059 2.98524C26.413 2.90581 25.5167 4.08685 25.8814 5.25791L27.0828 9.11674C27.0828 9.11674 28.8954 9.95379 31.1703 7.19531C32.7816 5.24143 31.9433 4.05112 31.317 3.523Z" fill="#486550" stroke="black" stroke-width="0.1" stroke-miterlimit="10" stroke-linecap="round" stroke-linejoin="round"/>
<path id="Vector_49" d="M19.3273 44.373L12.866 51.7491L14.7515 54.2844L21.2128 46.9084L19.3273 44.373Z" fill="#F9E9BB"/>
<g id="Clip path group_5">
<mask id="mask4_390_1103" style="mask-type:luminance" maskUnits="userSpaceOnUse" x="12" y="44" width="10" height="11">
<g id="k">
<path id="Vector_50" d="M19.3275 44.3711L12.8661 51.7471L14.7516 54.2824L21.2129 46.9064L19.3275 44.3711Z" fill="white"/>
</g>
</mask>
<g mask="url(#mask4_390_1103)">
<path id="Vector_51" d="M16.0448 53.0463C16.0448 53.0463 17.4556 53.1022 16.8316 52.2631C16.2075 51.424 13.8096 51.2148 14.5028 49.8806C15.196 48.5463 17.1384 50.1315 17.8933 50.4765C18.6481 50.8214 17.4922 47.8811 17.4922 47.8811L15.9176 46.957L13.6822 48.6183L11.7862 51.9894L13.7576 52.8418" fill="#ED7A70"/>
</g>
</g>
<path id="Vector_52" d="M19.3273 44.373L12.866 51.7491L14.7515 54.2844L21.2128 46.9084L19.3273 44.373Z" stroke="black" stroke-width="0.1" stroke-miterlimit="10" stroke-linecap="round" stroke-linejoin="round"/>
<path id="Vector_53" d="M17.4694 59.6316L12.0491 52.3431L13.8682 50.2666C13.8682 50.2666 16.9192 51.8458 16.8314 52.2631C16.7436 52.6804 15.2648 54.1509 16.7501 56.4363C18.7219 59.4701 17.4694 59.6316 17.4694 59.6316Z" fill="#486550" stroke="black" stroke-width="0.1" stroke-miterlimit="10" stroke-linecap="round" stroke-linejoin="round"/>
<path id="Vector_54" d="M33.3496 49.7576L35.2208 60.0106L37.9395 59.3027L36.0683 49.0498L33.3496 49.7576Z" fill="#F9E9BB"/>
<g id="Clip path group_6">
<mask id="mask5_390_1103" style="mask-type:luminance" maskUnits="userSpaceOnUse" x="33" y="49" width="5" height="12">
<g id="m">
<path id="Vector_55" d="M33.3496 49.7576L35.2208 60.0106L37.9395 59.3027L36.0683 49.0498L33.3496 49.7576Z" fill="white"/>
</g>
</mask>
<g mask="url(#mask5_390_1103)">
<path id="Vector_56" d="M37.731 57.3659C37.731 57.3659 38.4829 55.9391 37.5832 56.1734C36.6834 56.4076 35.3257 58.777 34.7468 57.4125C34.168 56.048 36.2538 54.8185 36.8755 54.2086C37.4973 53.5987 34.8653 53.3574 34.8653 53.3574L33.4258 54.5299L33.453 57.6431L34.8424 61.2397L36.4325 59.6234" fill="#ED7A70"/>
</g>
</g>
<path id="Vector_57" d="M33.3496 49.7576L35.2208 60.0106L37.9395 59.3027L36.0683 49.0498L33.3496 49.7576Z" stroke="black" stroke-width="0.1" stroke-miterlimit="10" stroke-linecap="round" stroke-linejoin="round"/>
<path id="Vector_58" d="M43.1821 58.9272L35.2218 60.9996L34.695 58.1132C34.695 58.1132 37.2595 56.2183 37.5092 56.5112C37.7588 56.8042 38.1649 58.5512 40.5501 58.1228C43.7163 57.5541 43.1821 58.9272 43.1821 58.9272Z" fill="#486550" stroke="black" stroke-width="0.1" stroke-miterlimit="10" stroke-linecap="round" stroke-linejoin="round"/>
<g id="Group_15">
<path id="Vector_59" d="M14.9554 47.6721C13.9679 48.8571 18.3544 52.1451 18.3544 52.1451C18.3544 52.1451 27.7877 41.6108 28.7184 39.4197C29.1568 38.3878 28.7572 22.3662 28.7572 22.3662L22.1318 23.2898C22.1318 23.2898 21.0902 27.5068 23.2401 37.8423L14.9554 47.6721Z" fill="#2F7E44"/>
<g id="Clip path group_7">
<mask id="mask6_390_1103" style="mask-type:luminance" maskUnits="userSpaceOnUse" x="14" y="22" width="15" height="31">
<g id="o">
<path id="Vector_60" d="M14.9554 47.6701C13.9678 48.8552 18.3543 52.1431 18.3543 52.1431C18.3543 52.1431 27.7877 41.6088 28.7184 39.4178C29.1567 38.3859 28.7571 22.3643 28.7571 22.3643L22.1317 23.2878C22.1317 23.2878 21.0901 27.5049 23.2401 37.8404L14.9554 47.6701Z" fill="white"/>
</g>
</mask>
<g mask="url(#mask6_390_1103)">
<path id="Vector_61" d="M15.5513 45.415C14.6735 47.0918 20.8809 51.1806 20.8809 51.1806" stroke="white" stroke-width="0.1" stroke-miterlimit="10" stroke-linecap="round" stroke-linejoin="round"/>
</g>
</g>
<g id="Clip path group_8">
<mask id="mask7_390_1103" style="mask-type:luminance" maskUnits="userSpaceOnUse" x="14" y="22" width="15" height="31">
<g id="o_2">
<path id="Vector_62" d="M14.9554 47.6701C13.9678 48.8552 18.3543 52.1431 18.3543 52.1431C18.3543 52.1431 27.7877 41.6088 28.7184 39.4178C29.1567 38.3859 28.7571 22.3643 28.7571 22.3643L22.1317 23.2878C22.1317 23.2878 21.0901 27.5049 23.2401 37.8404L14.9554 47.6701Z" fill="white"/>
</g>
</mask>
<g mask="url(#mask7_390_1103)">
<path id="Vector_63" d="M17.4921 47.8806L25.6508 38.5393C25.9113 38.241 26.0178 37.8329 25.9375 37.4406L23.9532 27.7461" stroke="white" stroke-width="0.1" stroke-miterlimit="10" stroke-linecap="round" stroke-linejoin="round"/>
</g>
</g>
<path id="Vector_64" d="M14.9554 47.6721C13.9679 48.8571 18.3544 52.1451 18.3544 52.1451C18.3544 52.1451 27.7877 41.6108 28.7184 39.4197C29.1568 38.3878 28.7572 22.3662 28.7572 22.3662L22.1318 23.2898C22.1318 23.2898 21.0902 27.5068 23.2401 37.8423L14.9554 47.6721Z" stroke="black" stroke-width="0.1" stroke-miterlimit="10" stroke-linecap="round" stroke-linejoin="round"/>
</g>
<g id="Group_16">
<path id="Vector_65" d="M32.2296 54.5293C32.2296 54.5293 37.0832 55.7009 37.946 53.849C37.946 53.849 35.6445 39.6772 35.1255 36.4195C34.906 35.0414 27.2303 21.7969 27.2303 21.7969L20.6663 22.4909C20.6663 22.4909 21.2696 31.4011 30.8079 39.3972L32.2296 54.5293Z" fill="#2F7E44"/>
<g id="Clip path group_9">
<mask id="mask8_390_1103" style="mask-type:luminance" maskUnits="userSpaceOnUse" x="20" y="21" width="18" height="34">
<g id="q">
<path id="Vector_66" d="M32.2297 54.5283C32.2297 54.5283 37.0833 55.7 37.9461 53.848C37.9461 53.848 35.6446 39.6762 35.1256 36.4186C34.906 35.0404 27.2303 21.7959 27.2303 21.7959L20.6663 22.4899C20.6663 22.4899 21.2697 31.4001 30.8079 39.3962L32.2297 54.5283Z" fill="white"/>
</g>
</mask>
<g mask="url(#mask8_390_1103)">
<path id="Vector_67" d="M20.14 19.0234C19.2612 27.9934 27.8463 24.4079 31.9597 30.5191C36.1619 36.7622 35.0281 26.9131 35.0281 26.9131L29.6674 21.3052L24.7315 20.9246L17.1356 20.6363" fill="#11441F"/>
</g>
</g>
<g id="Clip path group_10">
<mask id="mask9_390_1103" style="mask-type:luminance" maskUnits="userSpaceOnUse" x="20" y="21" width="18" height="34">
<g id="q_2">
<path id="Vector_68" d="M32.2297 54.5283C32.2297 54.5283 37.0833 55.7 37.9461 53.848C37.9461 53.848 35.6446 39.6762 35.1256 36.4186C34.906 35.0404 27.2303 21.7959 27.2303 21.7959L20.6663 22.4899C20.6663 22.4899 21.2697 31.4001 30.8079 39.3962L32.2297 54.5283Z" fill="white"/>
</g>
</mask>
<g mask="url(#mask9_390_1103)">
<path id="Vector_69" d="M30.0613 52.354C34.769 54.1062 37.6845 52.938 38.2488 52.1436" stroke="white" stroke-width="0.1" stroke-miterlimit="10" stroke-linecap="round" stroke-linejoin="round"/>
</g>
</g>
<g id="Clip path group_11">
<mask id="mask10_390_1103" style="mask-type:luminance" maskUnits="userSpaceOnUse" x="20" y="21" width="18" height="34">
<g id="q_3">
<path id="Vector_70" d="M32.2297 54.5283C32.2297 54.5283 37.0833 55.7 37.9461 53.848C37.9461 53.848 35.6446 39.6762 35.1256 36.4186C34.906 35.0404 27.2303 21.7959 27.2303 21.7959L20.6663 22.4899C20.6663 22.4899 21.2697 31.4001 30.8079 39.3962L32.2297 54.5283Z" fill="white"/>
</g>
</mask>
<g mask="url(#mask10_390_1103)">
<path id="Vector_71" d="M35.1922 52.7035L32.982 38.2897L26.3985 28.1807" stroke="white" stroke-width="0.1" stroke-miterlimit="10" stroke-linecap="round" stroke-linejoin="round"/>
</g>
</g>
<g id="Clip path group_12">
<mask id="mask11_390_1103" style="mask-type:luminance" maskUnits="userSpaceOnUse" x="20" y="21" width="18" height="34">
<g id="q_4">
<path id="Vector_72" d="M32.2297 54.5283C32.2297 54.5283 37.0833 55.7 37.9461 53.848C37.9461 53.848 35.6446 39.6762 35.1256 36.4186C34.906 35.0404 27.2303 21.7959 27.2303 21.7959L20.6663 22.4899C20.6663 22.4899 21.2697 31.4001 30.8079 39.3962L32.2297 54.5283Z" fill="white"/>
</g>
</mask>
<g mask="url(#mask11_390_1103)">
<path id="Vector_73" d="M27.433 25.7842C27.7739 27.8471 25.8887 28.3991 25.8887 28.3991" stroke="white" stroke-width="0.1" stroke-miterlimit="10" stroke-linecap="round" stroke-linejoin="round"/>
</g>
</g>
<g id="Clip path group_13">
<mask id="mask12_390_1103" style="mask-type:luminance" maskUnits="userSpaceOnUse" x="20" y="21" width="18" height="34">
<g id="q_5">
<path id="Vector_74" d="M32.2297 54.5283C32.2297 54.5283 37.0833 55.7 37.9461 53.848C37.9461 53.848 35.6446 39.6762 35.1256 36.4186C34.906 35.0404 27.2303 21.7959 27.2303 21.7959L20.6663 22.4899C20.6663 22.4899 21.2697 31.4001 30.8079 39.3962L32.2297 54.5283Z" fill="white"/>
</g>
</mask>
<g mask="url(#mask12_390_1103)">
<path id="Vector_75" d="M20.7555 26.2621C20.8097 26.2675 20.8625 26.2713 20.9138 26.2734C21.9278 26.3159 22.3857 25.749 22.3857 25.749L23.577 28.6322L22.9699 29.7031" stroke="white" stroke-width="0.1" stroke-miterlimit="10" stroke-linecap="round" stroke-linejoin="round"/>
</g>
</g>
<path id="Vector_76" d="M32.2296 54.5293C32.2296 54.5293 37.0832 55.7009 37.946 53.849C37.946 53.849 35.6445 39.6772 35.1255 36.4195C34.906 35.0414 27.2303 21.7969 27.2303 21.7969L20.6663 22.4909C20.6663 22.4909 21.2696 31.4011 30.8079 39.3972L32.2296 54.5293Z" stroke="black" stroke-width="0.1" stroke-miterlimit="10" stroke-linecap="round" stroke-linejoin="round"/>
</g>
<g id="Group_17">
<g id="Vector_77">
<path d="M29.3062 15.9654C32.2778 16.4121 34.2674 15.3945 34.2674 15.3945L34.8004 17.8115L29.1188 18.1376" fill="white"/>
<path d="M29.3062 15.9654C32.2778 16.4121 34.2674 15.3945 34.2674 15.3945L34.8004 17.8115L29.1188 18.1376" stroke="black" stroke-width="0.1" stroke-miterlimit="10" stroke-linecap="round" stroke-linejoin="round"/>
</g>
</g>
<g id="Group_18">
<path id="Vector_78" d="M32.3143 14.9453C31.8951 16.5867 31.1356 18.4061 30.246 19.9269C28.2817 23.285 29.4535 25.1647 29.4535 25.1647C29.4535 25.1647 25.2509 27.4343 22.0271 25.8957C21.8358 25.8044 21.8761 24.5014 21.8761 24.5014C21.8761 24.5014 21.2041 25.4156 21.0772 25.3189C20.7488 25.0684 20.6853 25.0581 20.4177 24.7128C20.4177 24.7128 20.6768 16.1953 21.7272 14.9449C22.7775 13.6944 23.4123 12.5755 23.4123 12.5755L23.6636 9.98541C23.6636 9.98541 30.6389 9.64155 32.2532 10.709C33.3259 11.4184 34.2622 16.6292 34.4555 17.3781" fill="#1A6FFD"/>
<g id="Clip path group_14">
<mask id="mask13_390_1103" style="mask-type:luminance" maskUnits="userSpaceOnUse" x="20" y="9" width="15" height="18">
<g id="s">
<path id="Vector_79" d="M32.3143 14.9463C31.8951 16.5877 31.1356 18.4071 30.246 19.9279C28.2817 23.2859 29.4535 25.1657 29.4535 25.1657C29.4535 25.1657 25.2509 27.4353 22.0271 25.8966C21.8358 25.8053 21.8761 24.5023 21.8761 24.5023C21.8761 24.5023 21.2041 25.4166 21.0772 25.3198C20.7488 25.0694 20.6853 25.059 20.4177 24.7137C20.4177 24.7137 20.6768 16.1963 21.7272 14.9458C22.7775 13.6954 23.4123 12.5765 23.4123 12.5765L23.6636 9.98638C23.6636 9.98638 30.6389 9.64252 32.2532 10.71C33.3259 11.4194 34.2622 16.6302 34.4555 17.3791" fill="white"/>
</g>
</mask>
<g mask="url(#mask13_390_1103)">
<g id="Vector_80">
<path d="M25.5941 8.65918C25.5941 8.65918 28.3803 13.0573 28.8943 12.8315C29.4083 12.6057 30.4411 8.78702 30.4411 8.78702L24.5903 8.65918" fill="#F9E9BB"/>
<path d="M25.5941 8.65918C25.5941 8.65918 28.3803 13.0573 28.8943 12.8315C29.4083 12.6057 30.4411 8.78702 30.4411 8.78702L24.5903 8.65918" stroke="black" stroke-width="0.1" stroke-miterlimit="10" stroke-linecap="round" stroke-linejoin="round"/>
</g>
</g>
</g>
<g id="Clip path group_15">
<mask id="mask14_390_1103" style="mask-type:luminance" maskUnits="userSpaceOnUse" x="20" y="9" width="15" height="18">
<g id="s_2">
<path id="Vector_81" d="M32.3143 14.9463C31.8951 16.5877 31.1356 18.4071 30.246 19.9279C28.2817 23.2859 29.4535 25.1657 29.4535 25.1657C29.4535 25.1657 25.2509 27.4353 22.0271 25.8966C21.8358 25.8053 21.8761 24.5023 21.8761 24.5023C21.8761 24.5023 21.2041 25.4166 21.0772 25.3198C20.7488 25.0694 20.6853 25.059 20.4177 24.7137C20.4177 24.7137 20.6768 16.1963 21.7272 14.9458C22.7775 13.6954 23.4123 12.5765 23.4123 12.5765L23.6636 9.98638C23.6636 9.98638 30.6389 9.64252 32.2532 10.71C33.3259 11.4194 34.2622 16.6302 34.4555 17.3791" fill="white"/>
</g>
</mask>
<g mask="url(#mask14_390_1103)">
<path id="Vector_82" d="M23.6397 15.6855C18.9999 22.5242 25.7824 23.0121 26.7175 26.3152C27.6526 29.6182 17.0395 24.4589 17.0395 24.4589L17.9967 16.8339" fill="#1D71FC"/>
</g>
</g>
<path id="Vector_83" d="M32.3143 14.9453C31.8951 16.5867 31.1356 18.4061 30.246 19.9269C28.2817 23.285 29.4535 25.1647 29.4535 25.1647C29.4535 25.1647 25.2509 27.4343 22.0271 25.8957C21.8358 25.8044 21.8761 24.5014 21.8761 24.5014C21.8761 24.5014 21.2041 25.4156 21.0772 25.3189C20.7488 25.0684 20.6853 25.0581 20.4177 24.7128C20.4177 24.7128 20.6768 16.1953 21.7272 14.9449C22.7775 13.6944 23.4123 12.5755 23.4123 12.5755L23.6636 9.98541C23.6636 9.98541 30.6389 9.64155 32.2532 10.709C33.3259 11.4184 34.2622 16.6292 34.4555 17.3781" stroke="black" stroke-width="0.1" stroke-miterlimit="10" stroke-linecap="round" stroke-linejoin="round"/>
</g>
<g id="Group_19">
<path id="Vector_84" d="M27.1875 9.5408L25.602 5.57791C25.1208 4.37531 25.968 3.05187 27.2322 3.03127L30.2151 2.98266C30.5607 2.97703 30.9048 3.07106 31.1888 3.27366C31.8926 3.77565 32.8749 4.95713 31.3376 7.15783C29.1674 10.2647 27.1875 9.5408 27.1875 9.5408Z" fill="#486550" stroke="black" stroke-width="0.1" stroke-miterlimit="10" stroke-linecap="round" stroke-linejoin="round"/>
<path id="Vector_85" d="M29.9161 10.9839L30.6538 7.48492L28.0097 7.12598L26.7936 10.2076" fill="#F9E9BB"/>
<g id="Clip path group_16">
<mask id="mask15_390_1103" style="mask-type:luminance" maskUnits="userSpaceOnUse" x="26" y="7" width="5" height="4">
<g id="u">
<path id="Vector_86" d="M29.9161 10.9839L30.6538 7.48492L28.0097 7.12598L26.7936 10.2076" fill="white"/>
</g>
</mask>
<g mask="url(#mask15_390_1103)">
<path id="Vector_87" d="M28.9374 8.88429C30.076 9.62854 28.9649 11.0469 30.2786 11.262C31.0583 11.3896 30.8973 9.27067 30.8973 9.27067L30.7103 7.15625L28.202 7.70875" fill="#ED7A70"/>
</g>
</g>
<path id="Vector_88" d="M29.9161 10.9839L30.6538 7.48492L28.0097 7.12598L26.7936 10.2076" stroke="black" stroke-width="0.1" stroke-miterlimit="10" stroke-linecap="round" stroke-linejoin="round"/>
<g id="Group_20">
<path id="Vector_89" d="M28.9374 8.88385C29.8655 9.13211 31.3291 9.3131 31.5943 8.83156C32.2548 7.63241 31.558 4.16115 30.3943 3.88484C29.6363 3.70487 27.8011 5.35143 27.8011 5.35143L28.1272 8.009" fill="#F9E9BB"/>
<g id="Clip path group_17">
<mask id="mask16_390_1103" style="mask-type:luminance" maskUnits="userSpaceOnUse" x="27" y="3" width="5" height="7">
<g id="w">
<path id="Vector_90" d="M28.9375 8.88287C29.8656 9.13113 31.3292 9.31213 31.5944 8.83058C32.2549 7.63143 31.5581 4.16018 30.3943 3.88386C29.6364 3.70389 27.8011 5.35046 27.8011 5.35046L28.1273 8.00802" fill="white"/>
</g>
</mask>
<g mask="url(#mask16_390_1103)">
<g id="Group_21">
<path id="Vector_91" opacity="0.27" d="M32.9942 7.59662C33.0976 7.28054 32.8453 6.90823 32.4306 6.76503C32.016 6.62184 31.596 6.762 31.4926 7.07808C31.3892 7.39416 31.6416 7.76647 32.0562 7.90966C32.4708 8.05285 32.8908 7.9127 32.9942 7.59662Z" fill="#ED7A70"/>
<path id="Vector_92" opacity="0.27" d="M30.1418 7.06288C30.1481 6.79612 29.8695 6.57287 29.5197 6.56425C29.1698 6.55562 28.8812 6.76488 28.8749 7.03164C28.8687 7.2984 29.1473 7.52164 29.4971 7.53027C29.8469 7.5389 30.1356 7.32964 30.1418 7.06288Z" fill="#ED7A70"/>
<g id="Group_22">
<path id="Vector_93" d="M31.3632 6.58882C31.4775 6.57886 31.5623 6.47561 31.5527 6.35818L31.523 5.99818C31.5134 5.88072 31.4128 5.79355 31.2985 5.80351C31.1842 5.81346 31.0994 5.91671 31.1091 6.03415L31.1387 6.39414C31.1484 6.5116 31.2489 6.59877 31.3632 6.58882Z" fill="black"/>
<path id="Vector_94" d="M30.1659 6.56538C30.2802 6.55542 30.365 6.45217 30.3553 6.33474L30.3257 5.97474C30.316 5.85728 30.2155 5.77012 30.1012 5.78007C29.9869 5.79002 29.9021 5.89328 29.9118 6.01071L29.9414 6.3707C29.951 6.48816 30.0516 6.57533 30.1659 6.56538Z" fill="black"/>
<path id="Vector_95" d="M31.3089 5.29625C31.7417 5.38619 31.6449 5.63313 31.3707 5.59506C31.0966 5.55698 31.0261 5.23749 31.3089 5.29625Z" fill="black"/>
<path id="Vector_96" d="M29.9367 5.27594C29.5248 5.43944 29.6271 5.65072 29.8911 5.5658C30.1551 5.48087 30.2059 5.16912 29.9367 5.27594Z" fill="black"/>
<path id="Vector_97" d="M30.5007 6.61029C30.496 6.77803 30.6494 6.71601 30.8362 6.72154C31.0231 6.72707 31.1727 6.79806 31.1774 6.63031C31.1821 6.46257 31.0344 6.3221 30.8476 6.31657C30.6607 6.31104 30.5054 6.44255 30.5007 6.61029Z" fill="#ED7A70"/>
<path id="Vector_98" d="M31.2271 7.55477C31.0308 8.59442 30.0795 8.15209 30.067 7.50503C30.0663 7.47165 30.0874 7.44184 30.1177 7.42994C30.2465 7.37935 30.6208 7.2736 31.1742 7.46275C31.2114 7.47546 31.2345 7.51519 31.2271 7.55477Z" fill="#EA4335"/>
<g id="Clip path group_18">
<mask id="mask17_390_1103" style="mask-type:luminance" maskUnits="userSpaceOnUse" x="30" y="7" width="2" height="2">
<g id="y">
<path id="Vector_99" d="M31.2271 7.55477C31.0308 8.59442 30.0795 8.15209 30.067 7.50503C30.0663 7.47165 30.0874 7.44184 30.1177 7.42994C30.2465 7.37935 30.6208 7.2736 31.1742 7.46275C31.2114 7.47546 31.2345 7.51519 31.2271 7.55477Z" fill="white"/>
</g>
</mask>
<g mask="url(#mask17_390_1103)">
<path id="Vector_100" d="M31.0507 7.38428C31.0486 7.45312 31.0393 7.54646 31.0214 7.56294C30.9108 7.66449 30.3904 7.60216 30.3208 7.5401C30.3015 7.52283 30.3052 7.30078 30.3052 7.30078L30.9724 7.34448" fill="white"/>
</g>
</g>
</g>
</g>
</g>
</g>
<path id="Vector_101" d="M28.9374 8.88385C29.8655 9.13211 31.3291 9.3131 31.5943 8.83156C32.2548 7.63241 31.558 4.16115 30.3943 3.88484C29.6363 3.70487 27.8011 5.35143 27.8011 5.35143L28.1272 8.009" stroke="black" stroke-width="0.1" stroke-miterlimit="10" stroke-linecap="round" stroke-linejoin="round"/>
</g>
<path id="Vector_102" d="M30.3557 3.64551L27.0062 4.22614L26.4072 5.34567L26.9439 8.32517L27.4497 7.37861" fill="#486550"/>
<g id="Vector_103">
<path d="M27.4497 7.3786C27.4497 7.3786 31.1844 6.70545 30.3558 3.64551L27.4497 7.3786Z" fill="#486550"/>
<path d="M27.4497 7.3786C27.4497 7.3786 31.1844 6.70545 30.3558 3.64551" stroke="black" stroke-width="0.1" stroke-miterlimit="10" stroke-linecap="round" stroke-linejoin="round"/>
</g>
<g id="Vector_104">
<path d="M28.7973 7.0462C27.2645 5.51818 26.4205 7.76818 28.3058 8.03568L28.7973 7.0462Z" fill="#F9E9BB"/>
<path d="M28.7973 7.0462C27.2645 5.51818 26.4205 7.76818 28.3058 8.03568" stroke="black" stroke-width="0.1" stroke-miterlimit="10" stroke-linecap="round" stroke-linejoin="round"/>
</g>
</g>
<path id="Vector_105" d="M25.8577 9.87963L27.0828 9.11719C27.0828 9.11719 27.0692 10.2271 28.8438 12.7153C28.8438 12.7153 28.4441 12.8376 28.2324 13.7203L25.8577 9.87963Z" fill="white" stroke="black" stroke-width="0.1" stroke-miterlimit="10" stroke-linecap="round" stroke-linejoin="round"/>
<path id="Vector_106" d="M29.5257 13.5512C29.5257 13.5512 29.3259 12.6569 28.9505 12.6569C28.9505 12.6569 29.9505 10.7337 30.0614 9.74219C30.0614 9.74219 30.8565 10.1822 31.02 10.2259L29.5257 13.5512Z" fill="white" stroke="black" stroke-width="0.1" stroke-miterlimit="10" stroke-linecap="round" stroke-linejoin="round"/>
<path id="Vector_107" d="M28.3389 3.75195C28.4223 4.04611 28.4005 4.37051 28.2787 4.6501" stroke="black" stroke-width="0.1" stroke-miterlimit="10"/>
<path id="Vector_108" d="M24.9874 18.1699C25.0302 18.3651 25.13 18.5467 25.2706 18.6851" stroke="black" stroke-width="0.1" stroke-miterlimit="10"/>
<path id="Vector_109" d="M30.8671 39.4124C31.1496 39.3733 31.4204 39.2493 31.6377 39.0596" stroke="black" stroke-width="0.1" stroke-miterlimit="10"/>
<path id="Vector_110" d="M18.9536 44.7764C19.1141 45.4238 19.3752 46.0448 19.7237 46.6086" stroke="black" stroke-width="0.1" stroke-miterlimit="10"/>
<path id="Vector_111" d="M38.017 56.335C37.9142 56.6514 37.8113 56.9678 37.7085 57.2842C38.2588 57.0188 38.8091 56.7534 39.3594 56.4879" stroke="black" stroke-width="0.1" stroke-miterlimit="10"/>
<path id="Vector_112" d="M17.1861 53.1104C16.8154 53.2059 16.4447 53.3015 16.074 53.3971C16.3983 53.4616 16.7226 53.5262 17.047 53.5908" stroke="black" stroke-width="0.1" stroke-miterlimit="10"/>
<g id="Group_23">
<path id="Vector_113" d="M29.3523 28.1656C33.5447 28.1656 36.9433 24.6699 36.9433 20.3577C36.9433 16.0455 33.5447 12.5498 29.3523 12.5498C25.1599 12.5498 21.7613 16.0455 21.7613 20.3577C21.7613 24.6699 25.1599 28.1656 29.3523 28.1656Z" fill="#FBBC05"/>
<g id="Clip path group_19">
<mask id="mask18_390_1103" style="mask-type:luminance" maskUnits="userSpaceOnUse" x="21" y="12" width="16" height="17">
<g id="A">
<path id="Vector_114" d="M29.3523 28.1666C33.5447 28.1666 36.9433 24.6708 36.9433 20.3587C36.9433 16.0465 33.5447 12.5508 29.3523 12.5508C25.1599 12.5508 21.7613 16.0465 21.7613 20.3587C21.7613 24.6708 25.1599 28.1666 29.3523 28.1666Z" fill="white"/>
</g>
</mask>
<g mask="url(#mask18_390_1103)">
<g id="Group_24">
<path id="Vector_115" d="M18.5156 31.9332L43.0488 28.0879" stroke="black" stroke-width="0.1" stroke-miterlimit="10" stroke-linecap="round" stroke-linejoin="round"/>
<path id="Vector_116" d="M18.3726 30.9664L42.9058 27.1211" stroke="black" stroke-width="0.1" stroke-miterlimit="10" stroke-linecap="round" stroke-linejoin="round"/>
<path id="Vector_117" d="M18.2296 30.0015L42.7628 26.1562" stroke="black" stroke-width="0.1" stroke-miterlimit="10" stroke-linecap="round" stroke-linejoin="round"/>
<path id="Vector_118" d="M18.0867 29.0367L42.6199 25.1914" stroke="black" stroke-width="0.1" stroke-miterlimit="10" stroke-linecap="round" stroke-linejoin="round"/>
<path id="Vector_119" d="M17.9437 28.0709L42.4769 24.2256" stroke="black" stroke-width="0.1" stroke-miterlimit="10" stroke-linecap="round" stroke-linejoin="round"/>
<path id="Vector_120" d="M17.8006 27.107L42.3338 23.2617" stroke="black" stroke-width="0.1" stroke-miterlimit="10" stroke-linecap="round" stroke-linejoin="round"/>
<path id="Vector_121" d="M17.6577 26.1422L42.1909 22.2969" stroke="black" stroke-width="0.1" stroke-miterlimit="10" stroke-linecap="round" stroke-linejoin="round"/>
<path id="Vector_122" d="M17.5146 25.1754L42.0479 21.3301" stroke="black" stroke-width="0.1" stroke-miterlimit="10" stroke-linecap="round" stroke-linejoin="round"/>
<path id="Vector_123" d="M17.3716 24.2095L41.9048 20.3643" stroke="black" stroke-width="0.1" stroke-miterlimit="10" stroke-linecap="round" stroke-linejoin="round"/>
<path id="Vector_124" d="M17.2286 23.2447L41.7618 19.3994" stroke="black" stroke-width="0.1" stroke-miterlimit="10" stroke-linecap="round" stroke-linejoin="round"/>
<path id="Vector_125" d="M17.0856 22.2808L41.6188 18.4355" stroke="black" stroke-width="0.1" stroke-miterlimit="10" stroke-linecap="round" stroke-linejoin="round"/>
<path id="Vector_126" d="M16.9426 21.314L41.4759 17.4688" stroke="black" stroke-width="0.1" stroke-miterlimit="10" stroke-linecap="round" stroke-linejoin="round"/>
<path id="Vector_127" d="M16.7996 20.3502L41.3329 16.5049" stroke="black" stroke-width="0.1" stroke-miterlimit="10" stroke-linecap="round" stroke-linejoin="round"/>
<path id="Vector_128" d="M16.6567 19.3834L41.1899 15.5381" stroke="black" stroke-width="0.1" stroke-miterlimit="10" stroke-linecap="round" stroke-linejoin="round"/>
<path id="Vector_129" d="M16.5136 18.4195L41.0468 14.5742" stroke="black" stroke-width="0.1" stroke-miterlimit="10" stroke-linecap="round" stroke-linejoin="round"/>
<path id="Vector_130" d="M16.3706 17.4527L40.9038 13.6074" stroke="black" stroke-width="0.1" stroke-miterlimit="10" stroke-linecap="round" stroke-linejoin="round"/>
<path id="Vector_131" d="M16.2276 16.4888L40.7608 12.6436" stroke="black" stroke-width="0.1" stroke-miterlimit="10" stroke-linecap="round" stroke-linejoin="round"/>
<path id="Vector_132" d="M16.0847 15.524L40.6179 11.6787" stroke="black" stroke-width="0.1" stroke-miterlimit="10" stroke-linecap="round" stroke-linejoin="round"/>
<path id="Vector_133" d="M15.9417 14.5582L40.4749 10.7129" stroke="black" stroke-width="0.1" stroke-miterlimit="10" stroke-linecap="round" stroke-linejoin="round"/>
<path id="Vector_134" d="M15.7986 13.5933L40.3318 9.74805" stroke="black" stroke-width="0.1" stroke-miterlimit="10" stroke-linecap="round" stroke-linejoin="round"/>
<path id="Vector_135" d="M15.6556 12.6275L40.1889 8.78223" stroke="black" stroke-width="0.1" stroke-miterlimit="10" stroke-linecap="round" stroke-linejoin="round"/>
</g>
</g>
</g>
<path id="Vector_136" d="M29.3523 28.1656C33.5447 28.1656 36.9433 24.6699 36.9433 20.3577C36.9433 16.0455 33.5447 12.5498 29.3523 12.5498C25.1599 12.5498 21.7613 16.0455 21.7613 20.3577C21.7613 24.6699 25.1599 28.1656 29.3523 28.1656Z" stroke="black" stroke-width="0.1" stroke-miterlimit="10" stroke-linecap="round" stroke-linejoin="round"/>
<path id="Vector_137" d="M27.9674 28.3834C32.1598 28.3834 35.5584 24.8876 35.5584 20.5755C35.5584 16.2633 32.1598 12.7676 27.9674 12.7676C23.775 12.7676 20.3764 16.2633 20.3764 20.5755C20.3764 24.8876 23.775 28.3834 27.9674 28.3834Z" fill="#FDBD04" stroke="black" stroke-width="0.1" stroke-miterlimit="10" stroke-linecap="round" stroke-linejoin="round"/>
<g id="Group_25">
<path id="Vector_138" d="M28.8478 26.0214C31.7713 25.5227 33.7526 22.7126 33.2731 19.7448C32.7937 16.777 30.035 14.7753 27.1114 15.2739C24.1879 15.7725 22.2066 18.5827 22.6861 21.5505C23.1655 24.5183 25.9242 26.52 28.8478 26.0214Z" fill="#FDBD04"/>
<g id="Clip path group_20">
<mask id="mask19_390_1103" style="mask-type:luminance" maskUnits="userSpaceOnUse" x="22" y="15" width="12" height="11">
<g id="C">
<path id="Vector_139" d="M29.5801 25.6412C32.3847 24.6574 33.8914 21.5519 32.9454 18.7048C31.9993 15.8577 28.9588 14.3472 26.1542 15.331C23.3496 16.3148 21.843 19.4203 22.789 22.2674C23.735 25.1145 26.7755 26.625 29.5801 25.6412Z" fill="white"/>
</g>
</mask>
<g mask="url(#mask19_390_1103)">
<path id="Vector_140" d="M27.8471 26.6512C30.7706 26.1526 32.7519 23.3425 32.2724 20.3747C31.7929 17.4069 29.0342 15.4052 26.1107 15.9038C23.1871 16.4024 21.2058 19.2125 21.6853 22.1804C22.1648 25.1482 24.9235 27.1499 27.8471 26.6512Z" fill="#FBBC05"/>
</g>
</g>
<path id="Vector_141" d="M28.8478 26.0214C31.7713 25.5227 33.7526 22.7126 33.2731 19.7448C32.7937 16.777 30.035 14.7753 27.1114 15.2739C24.1879 15.7725 22.2066 18.5827 22.6861 21.5505C23.1655 24.5183 25.9242 26.52 28.8478 26.0214Z" stroke="black" stroke-width="0.1" stroke-miterlimit="10" stroke-linecap="round" stroke-linejoin="round"/>
</g>
<path id="Vector_142" d="M25.6498 18.4945L26.6015 18.3453L27.921 20.2617L28.6256 18.0281L29.5773 17.8789L28.6459 20.4796L29.5038 20.3452L29.5712 20.8002L28.4653 20.9735L28.4596 20.9815L28.5444 21.5536L29.657 21.3793L29.7244 21.8342L28.6118 22.0086L28.765 23.0427L27.9205 23.1751L27.7673 22.141L26.6615 22.3143L26.594 21.8593L27.6999 21.686L27.6152 21.1138L27.6074 21.108L26.5083 21.2802L26.4408 20.8252L27.292 20.6918L25.6498 18.4945Z" fill="#FBBC05" stroke="black" stroke-width="0.1" stroke-miterlimit="10" stroke-linecap="round" stroke-linejoin="round"/>
<path id="Vector_143" d="M24.3077 15.7441C24.2236 15.823 24.1396 15.9018 24.0555 15.9807" stroke="black" stroke-width="0.1" stroke-miterlimit="10"/>
<path id="Vector_144" d="M32.9006 24.5518C32.675 24.8995 32.3902 25.2066 32.063 25.4547" stroke="black" stroke-width="0.1" stroke-miterlimit="10"/>
</g>
<g id="Group_26">
<path id="Vector_145" d="M26.7906 26.4996C26.7906 26.4996 21.7183 21.2094 21.6196 20.0454C21.4579 18.1381 21.6196 12.6572 21.6196 12.6572L24.6344 12.7366L24.476 19.5875L28.0309 25.6091C28.0309 25.6091 29.8312 26.1487 30.05 26.6468C30.2689 27.1449 27.3979 27.2397 26.7906 26.4996Z" fill="#F9E9BB"/>
<g id="Clip path group_21">
<mask id="mask20_390_1103" style="mask-type:luminance" maskUnits="userSpaceOnUse" x="21" y="12" width="10" height="16">
<g id="E">
<path id="Vector_146" d="M26.7906 26.5005C26.7906 26.5005 21.7183 21.2104 21.6196 20.0463C21.4579 18.1391 21.6196 12.6582 21.6196 12.6582L24.6344 12.7376L24.476 19.5884L28.0309 25.61C28.0309 25.61 29.8312 26.1497 30.05 26.6478C30.2689 27.1459 27.3979 27.2407 26.7906 26.5005Z" fill="white"/>
</g>
</mask>
<g mask="url(#mask20_390_1103)">
<path id="Vector_147" d="M21.5477 19.7513C21.7274 17.8429 22.5252 18.5163 24.4392 17.7682C26.3531 17.0201 21.1992 15.3955 21.1992 15.3955" fill="#ED7A70"/>
</g>
</g>
<path id="Vector_148" d="M26.7906 26.4996C26.7906 26.4996 21.7183 21.2094 21.6196 20.0454C21.4579 18.1381 21.6196 12.6572 21.6196 12.6572L24.6344 12.7366L24.476 19.5875L28.0309 25.6091C28.0309 25.6091 29.8312 26.1487 30.05 26.6468C30.2689 27.1449 27.3979 27.2397 26.7906 26.4996Z" stroke="black" stroke-width="0.1" stroke-miterlimit="10" stroke-linecap="round" stroke-linejoin="round"/>
</g>
<g id="Group_27">
<path id="Vector_149" d="M24.0579 9.9629C20.5335 9.95428 19.8828 16.9095 19.8828 16.9095C19.8828 16.9095 24.1951 18.4863 24.7788 17.1411C24.7788 17.1411 25.0042 14.9562 24.965 12.9934" fill="#1A6FFD"/>
<g id="Clip path group_22">
<mask id="mask21_390_1103" style="mask-type:luminance" maskUnits="userSpaceOnUse" x="19" y="9" width="6" height="9">
<g id="G">
<path id="Vector_150" d="M24.058 9.96485C20.5336 9.95624 19.8829 16.9115 19.8829 16.9115C19.8829 16.9115 24.1952 18.4882 24.779 17.143C24.779 17.143 25.0043 14.9582 24.9651 12.9954" fill="white"/>
</g>
</mask>
<g mask="url(#mask21_390_1103)">
<g id="Vector_151">
<path d="M17.84 14.3994C22.4262 17.2169 24.9696 16.2334 24.9696 16.2334V19.0617L18.7805 18.6629" fill="white"/>
<path d="M17.84 14.3994C22.4262 17.2169 24.9696 16.2334 24.9696 16.2334V19.0617L18.7805 18.6629" stroke="black" stroke-width="0.1" stroke-miterlimit="10" stroke-linecap="round" stroke-linejoin="round"/>
</g>
</g>
</g>
<g id="Clip path group_23">
<mask id="mask22_390_1103" style="mask-type:luminance" maskUnits="userSpaceOnUse" x="19" y="9" width="6" height="9">
<g id="G_2">
<path id="Vector_152" d="M24.058 9.96485C20.5336 9.95624 19.8829 16.9115 19.8829 16.9115C19.8829 16.9115 24.1952 18.4882 24.779 17.143C24.779 17.143 25.0043 14.9582 24.9651 12.9954" fill="white"/>
</g>
</mask>
<g mask="url(#mask22_390_1103)">
<path id="Vector_153" d="M19.5222 14.9434C24.1884 16.5821 25.3304 15.6502 25.3304 15.6502" stroke="#34A853" stroke-width="0.1" stroke-miterlimit="10" stroke-linecap="round" stroke-linejoin="round" stroke-dasharray="11.51 23.02"/>
</g>
</g>
<path id="Vector_154" d="M24.0579 9.9629C20.5335 9.95428 19.8828 16.9095 19.8828 16.9095C19.8828 16.9095 24.1951 18.4863 24.7788 17.1411C24.7788 17.1411 25.0042 14.9562 24.965 12.9934" stroke="black" stroke-width="0.1" stroke-miterlimit="10" stroke-linecap="round" stroke-linejoin="round"/>
</g>
</g>
<g id="Group_28">
<path id="Vector_155" d="M83.9361 20.7972L81.3919 23.4141L75.8184 17.6813L78.3625 15.0645L83.9361 20.7972Z" fill="#1A6FFD"/>
<g id="Clip path group_24">
<mask id="mask23_390_1103" style="mask-type:luminance" maskUnits="userSpaceOnUse" x="75" y="15" width="9" height="9">
<g id="I">
<path id="Vector_156" d="M83.9361 20.7953L81.3919 23.4121L75.8184 17.6794L78.3625 15.0625L83.9361 20.7953Z" fill="white"/>
</g>
</mask>
<g mask="url(#mask23_390_1103)">
<path id="Vector_157" d="M79.7305 15.3994C81.0082 18.0876 77.3409 18.6763 78.6561 20.1485C79.9712 21.6207 82.2585 19.7632 83.1579 18.343C84.0573 16.9227 84.5823 21.4603 84.5823 21.4603L78.8594 24.6586L75.6942 19.2524L77.6688 17.4006" fill="#1D71FC"/>
</g>
</g>
<path id="Vector_158" d="M83.9361 20.7972L81.3919 23.4141L75.8184 17.6813L78.3625 15.0645L83.9361 20.7972Z" stroke="black" stroke-width="0.1" stroke-miterlimit="10" stroke-linecap="round" stroke-linejoin="round"/>
<g id="Group_29">
<path id="Vector_159" d="M90.0755 29.728V29.7281C88.8225 31.0168 86.784 30.9924 85.5605 29.6741L79.0074 22.6129L83.1579 18.3438L90.023 25.0841C91.3047 26.3425 91.3284 28.4393 90.0755 29.728Z" fill="white"/>
<g id="Clip path group_25">
<mask id="mask24_390_1103" style="mask-type:luminance" maskUnits="userSpaceOnUse" x="79" y="18" width="12" height="13">
<g id="K">
<path id="Vector_160" d="M90.0756 29.7261V29.7261C88.8227 31.0148 86.7841 30.9905 85.5606 29.6721L79.0075 22.6109L83.158 18.3418L90.0231 25.0821C91.3048 26.3405 91.3285 28.4374 90.0756 29.7261Z" fill="white"/>
</g>
</mask>
<g mask="url(#mask24_390_1103)">
<path id="Vector_161" d="M82.0246 17.5801C92.672 27.8825 87.8562 29.0143 86.1455 31.3168C84.4348 33.6193 92.3412 32.058 92.3412 32.058L97.2699 28.0638L89.7435 18.9596L84.1849 18.0698" fill="#D6E1F2"/>
</g>
</g>
<path id="Vector_162" d="M90.0755 29.728V29.7281C88.8225 31.0168 86.784 30.9924 85.5605 29.6741L79.0074 22.6129L83.1579 18.3438L90.023 25.0841C91.3047 26.3425 91.3284 28.4393 90.0755 29.728Z" stroke="black" stroke-width="0.1" stroke-miterlimit="10" stroke-linecap="round" stroke-linejoin="round"/>
</g>
<g id="Group_30">
<path id="Vector_163" d="M64.937 3.97541C61.08 7.94264 61.08 14.3747 64.937 18.3419C68.794 22.3092 75.0475 22.3092 78.9045 18.342C82.7616 14.3747 82.7615 7.94264 78.9045 3.97541C75.0475 0.00822264 68.794 0.00817215 64.937 3.97541ZM77.0399 16.4241C74.2127 19.332 69.6288 19.332 66.8016 16.4241C63.9744 13.5161 63.9744 8.80128 66.8016 5.89329C69.6288 2.98529 74.2127 2.98529 77.0399 5.89329C79.8671 8.80128 79.8671 13.5161 77.0399 16.4241Z" fill="#FBBC05"/>
<path id="Vector_164" d="M64.937 3.97541C61.08 7.94264 61.08 14.3747 64.937 18.3419C68.794 22.3092 75.0475 22.3092 78.9045 18.342C82.7616 14.3747 82.7615 7.94264 78.9045 3.97541C75.0475 0.00822267 68.794 0.00817215 64.937 3.97541ZM77.0399 16.4241C74.2127 19.332 69.6288 19.332 66.8016 16.4241C63.9744 13.5161 63.9744 8.80128 66.8016 5.89329C69.6288 2.98529 74.2127 2.98529 77.0399 5.89329C79.8671 8.80128 79.8671 13.5161 77.0399 16.4241Z" stroke="black" stroke-width="0.1" stroke-miterlimit="10" stroke-linecap="round" stroke-linejoin="round"/>
</g>
<path id="Vector_165" d="M64.0344 7.64453C63.9461 7.91294 63.8579 8.18135 63.7697 8.44975" stroke="black" stroke-width="0.1" stroke-miterlimit="10"/>
<path id="Vector_166" d="M86.2814 24.4648C86.4179 25.1856 86.4073 25.9355 86.2504 26.6518" stroke="black" stroke-width="0.1" stroke-miterlimit="10"/>
</g>
</g>
</svg>
