<svg width="119" height="115" viewBox="0 0 119 115" fill="none" xmlns="http://www.w3.org/2000/svg">
<g id="Frame 211">
<g id="Group" opacity="0.17">
<path id="Vector" opacity="0.038" d="M76.6271 109.64C92.2099 109.64 104.842 104.122 104.842 97.3157C104.842 90.5091 92.2099 84.9912 76.6271 84.9912C61.0443 84.9912 48.4119 90.5091 48.4119 97.3157C48.4119 104.122 61.0443 109.64 76.6271 109.64Z" fill="#4A0701"/>
<path id="Vector_2" opacity="0.077" d="M76.6271 109.335C91.8231 109.335 104.142 103.954 104.142 97.3157C104.142 90.6779 91.8231 85.2969 76.6271 85.2969C61.4311 85.2969 49.1122 90.6779 49.1122 97.3157C49.1122 103.954 61.4311 109.335 76.6271 109.335Z" fill="#480702"/>
<path id="Vector_3" opacity="0.115" d="M76.6271 109.029C91.4363 109.029 103.442 103.785 103.442 97.3158C103.442 90.8467 91.4363 85.6025 76.6271 85.6025C61.8179 85.6025 49.8126 90.8467 49.8126 97.3158C49.8126 103.785 61.8179 109.029 76.6271 109.029Z" fill="#460803"/>
<path id="Vector_4" opacity="0.154" d="M76.6271 108.723C91.0495 108.723 102.741 103.616 102.741 97.3158C102.741 91.0156 91.0495 85.9082 76.6271 85.9082C62.2047 85.9082 50.513 91.0156 50.513 97.3158C50.513 103.616 62.2047 108.723 76.6271 108.723Z" fill="#044415"/>
<path id="Vector_5" opacity="0.192" d="M76.6271 108.418C90.6627 108.418 102.041 103.447 102.041 97.3159C102.041 91.1844 90.6627 86.2139 76.6271 86.2139C62.5915 86.2139 51.2134 91.1844 51.2134 97.3159C51.2134 103.447 62.5915 108.418 76.6271 108.418Z" fill="#054215"/>
<path id="Vector_6" opacity="0.231" d="M76.6271 108.112C90.2759 108.112 101.34 103.279 101.34 97.3159C101.34 91.3532 90.2759 86.5195 76.6271 86.5195C62.9783 86.5195 51.9138 91.3532 51.9138 97.3159C51.9138 103.279 62.9783 108.112 76.6271 108.112Z" fill="#064015"/>
<path id="Vector_7" opacity="0.269" d="M76.6271 107.807C89.8891 107.807 100.64 103.11 100.64 97.3159C100.64 91.5221 89.8891 86.8252 76.6271 86.8252C63.3651 86.8252 52.6141 91.5221 52.6141 97.3159C52.6141 103.11 63.3651 107.807 76.6271 107.807Z" fill="#063E15"/>
<path id="Vector_8" opacity="0.308" d="M76.6271 107.501C89.5023 107.501 99.9397 102.941 99.9397 97.316C99.9397 91.6909 89.5023 87.1309 76.6271 87.1309C63.7519 87.1309 53.3145 91.6909 53.3145 97.316C53.3145 102.941 63.7519 107.501 76.6271 107.501Z" fill="#073C15"/>
<path id="Vector_9" opacity="0.346" d="M76.6271 107.195C89.1155 107.195 99.2393 102.772 99.2393 97.316C99.2393 91.8597 89.1155 87.4365 76.6271 87.4365C64.1387 87.4365 54.0149 91.8597 54.0149 97.316C54.0149 102.772 64.1387 107.195 76.6271 107.195Z" fill="#083A15"/>
<path id="Vector_10" opacity="0.385" d="M76.6271 106.89C88.7326 106.89 98.5461 102.604 98.5461 97.3161C98.5461 92.0286 88.7326 87.7422 76.6271 87.7422C64.5216 87.7422 54.7081 92.0286 54.7081 97.3161C54.7081 102.604 64.5216 106.89 76.6271 106.89Z" fill="#093816"/>
<path id="Vector_11" opacity="0.423" d="M76.6271 106.584C88.3458 106.584 97.8457 102.435 97.8457 97.3161C97.8457 92.1974 88.3458 88.0479 76.6271 88.0479C64.9084 88.0479 55.4085 92.1974 55.4085 97.3161C55.4085 102.435 64.9084 106.584 76.6271 106.584Z" fill="#0A3616"/>
<path id="Vector_12" opacity="0.462" d="M76.6271 106.279C87.959 106.279 97.1453 102.266 97.1453 97.3161C97.1453 92.3662 87.959 88.3535 76.6271 88.3535C65.2952 88.3535 56.1089 92.3662 56.1089 97.3161C56.1089 102.266 65.2952 106.279 76.6271 106.279Z" fill="#0B3416"/>
<path id="Vector_13" opacity="0.5" d="M76.6271 105.972C87.5722 105.972 96.4449 102.096 96.4449 97.3152C96.4449 92.5341 87.5722 88.6582 76.6271 88.6582C65.682 88.6582 56.8093 92.5341 56.8093 97.3152C56.8093 102.096 65.682 105.972 76.6271 105.972Z" fill="#0C3316"/>
<path id="Vector_14" opacity="0.538" d="M76.6271 105.667C87.1854 105.667 95.7446 101.928 95.7446 97.3152C95.7446 92.7029 87.1854 88.9639 76.6271 88.9639C66.0688 88.9639 57.5096 92.7029 57.5096 97.3152C57.5096 101.928 66.0688 105.667 76.6271 105.667Z" fill="#0D3117"/>
<path id="Vector_15" opacity="0.577" d="M76.6271 105.361C86.7986 105.361 95.0442 101.759 95.0442 97.3153C95.0442 92.8717 86.7986 89.2695 76.6271 89.2695C66.4556 89.2695 58.21 92.8717 58.21 97.3153C58.21 101.759 66.4556 105.361 76.6271 105.361Z" fill="#0E2F17"/>
<path id="Vector_16" opacity="0.615" d="M76.6271 105.055C86.4118 105.055 94.3438 101.59 94.3438 97.3153C94.3438 93.0406 86.4118 89.5752 76.6271 89.5752C66.8424 89.5752 58.9104 93.0406 58.9104 97.3153C58.9104 101.59 66.8424 105.055 76.6271 105.055Z" fill="#0F2D17"/>
<path id="Vector_17" opacity="0.654" d="M76.6271 104.75C86.025 104.75 93.6434 101.421 93.6434 97.3153C93.6434 93.2094 86.025 89.8809 76.6271 89.8809C67.2293 89.8809 59.6108 93.2094 59.6108 97.3153C59.6108 101.421 67.2293 104.75 76.6271 104.75Z" fill="#102B17"/>
<path id="Vector_18" opacity="0.692" d="M76.6271 104.444C85.6382 104.444 92.943 101.253 92.943 97.3154C92.943 93.3782 85.6382 90.1865 76.6271 90.1865C67.6161 90.1865 60.3112 93.3782 60.3112 97.3154C60.3112 101.253 67.6161 104.444 76.6271 104.444Z" fill="#112917"/>
<path id="Vector_19" opacity="0.731" d="M76.6271 104.139C85.2513 104.139 92.2427 101.084 92.2427 97.3154C92.2427 93.5471 85.2513 90.4922 76.6271 90.4922C68.0029 90.4922 61.0115 93.5471 61.0115 97.3154C61.0115 101.084 68.0029 104.139 76.6271 104.139Z" fill="#122718"/>
<path id="Vector_20" opacity="0.769" d="M76.6271 103.833C84.8645 103.833 91.5423 100.915 91.5423 97.3155C91.5423 93.7159 84.8645 90.7979 76.6271 90.7979C68.3897 90.7979 61.7119 93.7159 61.7119 97.3155C61.7119 100.915 68.3897 103.833 76.6271 103.833Z" fill="#122517"/>
<path id="Vector_21" opacity="0.808" d="M76.6271 103.528C84.4777 103.528 90.8419 100.746 90.8419 97.3155C90.8419 93.8847 84.4777 91.1035 76.6271 91.1035C68.7765 91.1035 62.4123 93.8847 62.4123 97.3155C62.4123 100.746 68.7765 103.528 76.6271 103.528Z" fill="#132317"/>
<path id="Vector_22" opacity="0.846" d="M76.6271 103.222C84.0949 103.222 90.1487 100.578 90.1487 97.3155C90.1487 94.0535 84.0949 91.4092 76.6271 91.4092C69.1594 91.4092 63.1055 94.0535 63.1055 97.3155C63.1055 100.578 69.1594 103.222 76.6271 103.222Z" fill="#142117"/>
<path id="Vector_23" opacity="0.885" d="M76.6271 102.916C83.7081 102.916 89.4483 100.409 89.4483 97.3156C89.4483 94.2224 83.7081 91.7148 76.6271 91.7148C69.5462 91.7148 63.8059 94.2224 63.8059 97.3156C63.8059 100.409 69.5462 102.916 76.6271 102.916Z" fill="#151F18"/>
<path id="Vector_24" opacity="0.923" d="M76.6271 102.611C83.3213 102.611 88.7479 100.24 88.7479 97.3156C88.7479 94.3912 83.3213 92.0205 76.6271 92.0205C69.933 92.0205 64.5063 94.3912 64.5063 97.3156C64.5063 100.24 69.933 102.611 76.6271 102.611Z" fill="#161D18"/>
<path id="Vector_25" opacity="0.962" d="M76.6271 102.305C82.9345 102.305 88.0476 100.071 88.0476 97.3157C88.0476 94.5601 82.9345 92.3262 76.6271 92.3262C70.3198 92.3262 65.2067 94.5601 65.2067 97.3157C65.2067 100.071 70.3198 102.305 76.6271 102.305Z" fill="#171B18"/>
<path id="Vector_26" d="M76.6271 102C82.5476 102 87.3472 99.9025 87.3472 97.3157C87.3472 94.7289 82.5476 92.6318 76.6271 92.6318C70.7066 92.6318 65.907 94.7289 65.907 97.3157C65.907 99.9025 70.7066 102 76.6271 102Z" fill="#181918"/>
</g>
<path id="Vector_27" d="M73.3254 48.3594L119 74.9274L82.8091 96.1789L36.7914 69.547L73.3254 48.3594Z" fill="url(#paint0_linear_390_2064)"/>
<path id="Vector_28" d="M82.809 96.1785L65.3067 94.9845L18.9603 68.1748L36.7913 69.5466L82.809 96.1785Z" fill="url(#paint1_linear_390_2064)"/>
<path id="Vector_29" d="M65.3067 94.9845L57.8312 113.045L10.5414 85.8655L18.9603 68.1748L65.3067 94.9845Z" fill="url(#paint2_linear_390_2064)"/>
<path id="Vector_30" d="M115.648 74.934L73.311 50.3135L38.1563 70.3283L81.1724 95.1763L115.648 74.934Z" fill="#79DB93"/>
<path id="Vector_31" d="M38.4136 70.4996L20.4396 69.0283L63.9131 94.1748L81.1724 95.177L38.4136 70.4996Z" fill="#34A853"/>
<path id="Vector_32" d="M63.9131 94.1748L20.4396 69.0283L12.7498 85.1838L56.9951 110.615L63.9131 94.1748Z" fill="#79DB93"/>
<path id="Vector_33" d="M115.648 74.9345L95.8517 71.7432C95.8517 71.7432 94.9655 72.9088 92.8144 74.9345C90.6632 76.9601 88.2333 78.8791 88.2333 78.8791L99.225 84.7571L115.648 74.9345Z" fill="#FBBC05"/>
<path id="Vector_34" d="M51.5564 62.7031L74.4187 72.7461L66.5502 78.5387L56.6663 69.5548L47.6329 75.9516L41.6511 76.1506L38.1563 70.3295L38.8352 69.9386L51.5564 62.7031Z" fill="#FBBC05"/>
<path id="Vector_35" d="M91.0992 60.8831L75.0334 72.7455L62.1622 66.7255L80.2934 54.5645L91.0992 60.8831Z" fill="#EADEBB"/>
<path id="Vector_36" d="M63.9131 94.1743L46.0892 84.0176L37.9205 99.9456L56.995 110.614L63.9131 94.1743Z" fill="#FBBC05"/>
<path id="Vector_37" d="M25.6067 83.8681L21.919 90.471L23.4055 91.2955L27.086 84.6997L30.5022 86.6188C32.4818 87.7346 34.9974 87.1305 36.2553 85.247L41.4295 77.4785L45.4602 84.1027L37.17 99.256L38.6637 100.066L46.3178 86.0786L55.8015 109.946L56.9879 110.628L57.4596 109.512L47.6686 84.8845L61.1758 84.3443L61.3903 84.1809C62.5909 83.2711 63.8487 82.3116 65.1494 81.3236L83.638 93.7618L85.2531 92.781L66.5716 80.2433C69.2874 78.1821 72.1389 76.0214 74.8904 73.9389L98.2101 85.1546L99.9825 84.1311L89.2481 78.971L94.065 75.5381C95.0942 74.806 95.8589 73.8039 96.3019 72.6666L114.476 75.6163L115.627 74.9482L113.611 73.7612L96.7022 71.0106C96.7308 70.7192 96.745 70.4278 96.7308 70.1293C96.6521 67.9899 95.5015 66.0495 93.6648 64.9407L89.8985 62.6663C90.8204 61.9911 91.7709 61.2519 91.9282 61.1666C91.7924 61.2448 90.3559 60.2498 90.3559 60.2498C90.0986 60.4275 89.7627 60.6691 89.3196 60.9961C88.4763 61.6144 87.2828 62.5029 85.8535 63.569C85.1459 64.0949 84.3598 64.692 83.5022 65.3317L73.554 59.8162L81.0151 54.8125L79.3857 53.8672L71.8888 58.8922L65.1494 55.1537L63.2627 56.0421L70.3165 59.9512L61.7119 65.7155L53.5146 61.7921L51.5564 62.709L60.0824 66.81L47.7829 75.0548H41.944L38.8352 69.9516L38.1563 70.3425L37.0128 70.3069L40.4575 75.8793L34.9974 84.0743C34.1398 85.3536 32.4389 85.7658 31.0882 85.0053L16.7304 76.9454L16.1444 78.5588L25.6067 83.8681ZM82.03 66.4262C80.1289 67.8548 77.942 69.5109 75.455 71.3873C75.2049 71.5721 74.9547 71.764 74.7117 71.9488L63.4914 66.5542L71.9888 60.861L82.03 66.4262ZM76.4269 72.7804C81.2295 69.1484 85.6319 65.8363 88.4477 63.7396L92.8072 66.3694C94.3509 67.3004 95.2299 69.0276 95.037 70.8613C94.8941 72.2189 94.1151 73.4272 93.0002 74.2232L87.5401 78.1181L76.4269 72.7804ZM73.1895 73.1002C70.9025 74.8344 68.687 76.5118 66.7574 77.9689L58.6745 69.781L61.8548 67.6487L73.1895 73.1002ZM60.5827 82.6598L46.9182 83.2071L42.9803 76.7393H48.3118L57.2523 70.7476L65.4067 79.0066C62.9697 80.8474 61.1759 82.2121 60.5827 82.6598Z" fill="#EFEFEF"/>
<path id="Vector_38" d="M119 74.9277L82.809 96.1793L65.3067 94.9852L57.8312 113.045V115L65.7712 96.1793L83.345 97.3165L119 76.2213V74.9277Z" fill="url(#paint3_linear_390_2064)"/>
<path id="Vector_39" d="M57.8313 113.044L10.5414 85.8652V87.8482L57.8313 114.999V113.044Z" fill="url(#paint4_linear_390_2064)"/>
<path id="Vector_40" d="M115.648 74.934L73.311 50.3135L38.1563 70.3283L20.4396 69.0276L12.7498 85.1831L13.5645 85.6522L21.2543 69.447L39.4141 70.9182L73.5183 51.0598L115.012 75.4102L115.648 74.934Z" fill="url(#paint5_linear_390_2064)"/>
<g id="Group_2" opacity="0.17">
<path id="Vector_41" opacity="0.038" d="M63.9131 74.7935C76.5435 74.7935 86.7825 70.3226 86.7825 64.8074C86.7825 59.2922 76.5435 54.8213 63.9131 54.8213C51.2826 54.8213 41.0436 59.2922 41.0436 64.8074C41.0436 70.3226 51.2826 74.7935 63.9131 74.7935Z" fill="#4A0701"/>
<path id="Vector_42" opacity="0.077" d="M63.9131 74.5514C76.2278 74.5514 86.2108 70.1887 86.2108 64.8069C86.2108 59.4252 76.2278 55.0625 63.9131 55.0625C51.5984 55.0625 41.6154 59.4252 41.6154 64.8069C41.6154 70.1887 51.5984 74.5514 63.9131 74.5514Z" fill="#480702"/>
<path id="Vector_43" opacity="0.115" d="M63.9131 74.3029C75.916 74.3029 85.6462 70.0515 85.6462 64.8072C85.6462 59.5629 75.916 55.3115 63.9131 55.3115C51.9102 55.3115 42.1799 59.5629 42.1799 64.8072C42.1799 70.0515 51.9102 74.3029 63.9131 74.3029Z" fill="#460803"/>
<path id="Vector_44" opacity="0.154" d="M63.9131 74.0544C75.6041 74.0544 85.0816 69.9144 85.0816 64.8075C85.0816 59.7005 75.6041 55.5605 63.9131 55.5605C52.222 55.5605 42.7445 59.7005 42.7445 64.8075C42.7445 69.9144 52.222 74.0544 63.9131 74.0544Z" fill="#044415"/>
<path id="Vector_45" opacity="0.192" d="M63.9131 73.8049C75.2884 73.8049 84.5099 69.7763 84.5099 64.8067C84.5099 59.8372 75.2884 55.8086 63.9131 55.8086C52.5377 55.8086 43.3162 59.8372 43.3162 64.8067C43.3162 69.7763 52.5377 73.8049 63.9131 73.8049Z" fill="#054215"/>
<path id="Vector_46" opacity="0.231" d="M63.9131 73.5564C74.9766 73.5564 83.9453 69.6392 83.9453 64.807C83.9453 59.9748 74.9766 56.0576 63.9131 56.0576C52.8496 56.0576 43.8809 59.9748 43.8809 64.807C43.8809 69.6392 52.8496 73.5564 63.9131 73.5564Z" fill="#064015"/>
<path id="Vector_47" opacity="0.269" d="M63.9131 73.3079C74.6608 73.3079 83.3736 69.502 83.3736 64.8073C83.3736 60.1125 74.6608 56.3066 63.9131 56.3066C53.1653 56.3066 44.4526 60.1125 44.4526 64.8073C44.4526 69.502 53.1653 73.3079 63.9131 73.3079Z" fill="#063E15"/>
<path id="Vector_48" opacity="0.308" d="M63.9131 73.0594C74.349 73.0594 82.809 69.3649 82.809 64.8075C82.809 60.2501 74.349 56.5557 63.9131 56.5557C53.4771 56.5557 45.0172 60.2501 45.0172 64.8075C45.0172 69.3649 53.4771 73.0594 63.9131 73.0594Z" fill="#073C15"/>
<path id="Vector_49" opacity="0.346" d="M63.9131 72.8173C74.0372 72.8173 82.2444 69.231 82.2444 64.8071C82.2444 60.3832 74.0372 56.7969 63.9131 56.7969C53.789 56.7969 45.5818 60.3832 45.5818 64.8071C45.5818 69.231 53.789 72.8173 63.9131 72.8173Z" fill="#083A15"/>
<path id="Vector_50" opacity="0.385" d="M63.9131 72.5688C73.7214 72.5688 81.6727 69.0939 81.6727 64.8073C81.6727 60.5208 73.7214 57.0459 63.9131 57.0459C54.1047 57.0459 46.1535 60.5208 46.1535 64.8073C46.1535 69.0939 54.1047 72.5688 63.9131 72.5688Z" fill="#093816"/>
<path id="Vector_51" opacity="0.423" d="M63.9131 72.3203C73.4096 72.3203 81.1081 68.9567 81.1081 64.8076C81.1081 60.6585 73.4096 57.2949 63.9131 57.2949C54.4165 57.2949 46.7181 60.6585 46.7181 64.8076C46.7181 68.9567 54.4165 72.3203 63.9131 72.3203Z" fill="#0A3616"/>
<path id="Vector_52" opacity="0.462" d="M63.9131 72.0708C73.0978 72.0708 80.5435 68.8186 80.5435 64.8069C80.5435 60.7951 73.0978 57.543 63.9131 57.543C54.7283 57.543 47.2827 60.7951 47.2827 64.8069C47.2827 68.8186 54.7283 72.0708 63.9131 72.0708Z" fill="#0B3416"/>
<path id="Vector_53" opacity="0.5" d="M63.9131 71.8223C72.7821 71.8223 79.9718 68.6815 79.9718 64.8071C79.9718 60.9328 72.7821 57.792 63.9131 57.792C55.0441 57.792 47.8544 60.9328 47.8544 64.8071C47.8544 68.6815 55.0441 71.8223 63.9131 71.8223Z" fill="#0C3316"/>
<path id="Vector_54" opacity="0.538" d="M63.9131 71.5738C72.4702 71.5738 79.4072 68.5444 79.4072 64.8074C79.4072 61.0704 72.4702 58.041 63.9131 58.041C55.3559 58.041 48.419 61.0704 48.419 64.8074C48.419 68.5444 55.3559 71.5738 63.9131 71.5738Z" fill="#0D3117"/>
<path id="Vector_55" opacity="0.577" d="M63.9131 71.3243C72.1584 71.3243 78.8426 68.4063 78.8426 64.8067C78.8426 61.2071 72.1584 58.2891 63.9131 58.2891C55.6677 58.2891 48.9836 61.2071 48.9836 64.8067C48.9836 68.4063 55.6677 71.3243 63.9131 71.3243Z" fill="#0E2F17"/>
<path id="Vector_56" opacity="0.615" d="M63.913 71.0832C71.8426 71.0832 78.2708 68.2733 78.2708 64.8072C78.2708 61.3411 71.8426 58.5312 63.913 58.5312C55.9835 58.5312 49.5553 61.3411 49.5553 64.8072C49.5553 68.2733 55.9835 71.0832 63.913 71.0832Z" fill="#0F2D17"/>
<path id="Vector_57" opacity="0.654" d="M63.9131 70.8347C71.5308 70.8347 77.7062 68.1362 77.7062 64.8075C77.7062 61.4787 71.5308 58.7803 63.9131 58.7803C56.2953 58.7803 50.1199 61.4787 50.1199 64.8075C50.1199 68.1362 56.2953 70.8347 63.9131 70.8347Z" fill="#102B17"/>
<path id="Vector_58" opacity="0.692" d="M63.9131 70.5852C71.219 70.5852 77.1416 67.9981 77.1416 64.8068C77.1416 61.6154 71.219 59.0283 63.9131 59.0283C56.6071 59.0283 50.6845 61.6154 50.6845 64.8068C50.6845 67.9981 56.6071 70.5852 63.9131 70.5852Z" fill="#112917"/>
<path id="Vector_59" opacity="0.731" d="M63.9131 70.3367C70.9032 70.3367 76.5699 67.861 76.5699 64.807C76.5699 61.7531 70.9032 59.2773 63.9131 59.2773C56.9229 59.2773 51.2562 61.7531 51.2562 64.807C51.2562 67.861 56.9229 70.3367 63.9131 70.3367Z" fill="#122718"/>
<path id="Vector_60" opacity="0.769" d="M63.9131 70.0882C70.5915 70.0882 76.0053 67.7238 76.0053 64.8073C76.0053 61.8907 70.5915 59.5264 63.9131 59.5264C57.2347 59.5264 51.8209 61.8907 51.8209 64.8073C51.8209 67.7238 57.2347 70.0882 63.9131 70.0882Z" fill="#122517"/>
<path id="Vector_61" opacity="0.808" d="M63.9131 69.8397C70.2757 69.8397 75.4336 67.5867 75.4336 64.8075C75.4336 62.0284 70.2757 59.7754 63.9131 59.7754C57.5505 59.7754 52.3926 62.0284 52.3926 64.8075C52.3926 67.5867 57.5505 69.8397 63.9131 69.8397Z" fill="#132317"/>
<path id="Vector_62" opacity="0.846" d="M63.9131 69.5902C69.9639 69.5902 74.869 67.4486 74.869 64.8068C74.869 62.165 69.9639 60.0234 63.9131 60.0234C57.8623 60.0234 52.9572 62.165 52.9572 64.8068C52.9572 67.4486 57.8623 69.5902 63.9131 69.5902Z" fill="#142117"/>
<path id="Vector_63" opacity="0.885" d="M63.9131 69.3491C69.652 69.3491 74.3044 67.3157 74.3044 64.8073C74.3044 62.299 69.652 60.2656 63.9131 60.2656C58.1741 60.2656 53.5217 62.299 53.5217 64.8073C53.5217 67.3157 58.1741 69.3491 63.9131 69.3491Z" fill="#151F18"/>
<path id="Vector_64" opacity="0.923" d="M63.9131 69.1006C69.3363 69.1006 73.7327 67.1785 73.7327 64.8076C73.7327 62.4367 69.3363 60.5146 63.9131 60.5146C58.4899 60.5146 54.0935 62.4367 54.0935 64.8076C54.0935 67.1785 58.4899 69.1006 63.9131 69.1006Z" fill="#161D18"/>
<path id="Vector_65" opacity="0.962" d="M63.9131 68.8511C69.0245 68.8511 73.1681 67.0404 73.1681 64.8069C73.1681 62.5733 69.0245 60.7627 63.9131 60.7627C58.8017 60.7627 54.6581 62.5733 54.6581 64.8069C54.6581 67.0404 58.8017 68.8511 63.9131 68.8511Z" fill="#171B18"/>
<path id="Vector_66" d="M63.9131 68.6026C68.7126 68.6026 72.6035 66.9033 72.6035 64.8071C72.6035 62.711 68.7126 61.0117 63.9131 61.0117C59.1135 61.0117 55.2227 62.711 55.2227 64.8071C55.2227 66.9033 59.1135 68.6026 63.9131 68.6026Z" fill="#181918"/>
</g>
<g id="Group_3">
<path id="Vector_67" d="M42.2657 20.7611C42.2657 21.1236 42.2728 21.5003 42.3014 21.8912C43.5235 37.0943 57.6954 56.2775 61.3116 59.945C61.719 60.3573 64.1274 58.7581 64.1703 58.8078V58.8149L64.1775 58.8078L64.1846 58.8149V58.8078C64.6063 58.36 82.9948 38.8001 82.9233 21.8983C82.9233 21.4506 82.8947 21.0312 82.8518 20.6261C82.8518 20.4271 82.8518 20.221 82.8447 20.022C82.373 8.96261 72.9036 0 61.6833 0C50.4629 0 41.7511 8.96261 42.2156 20.022C42.2299 20.2636 42.2514 20.5124 42.2657 20.7611ZM52.4354 20.0148C52.1996 14.5207 56.5305 10.0643 62.1121 10.0643C67.6865 10.0643 72.3962 14.5207 72.632 20.0148C72.8679 25.509 68.537 29.9654 62.9554 29.9654C57.3738 29.9654 52.6713 25.509 52.4354 20.0148Z" fill="url(#paint6_linear_390_2064)"/>
<path id="Vector_68" d="M39.3998 21.8913C39.3998 22.2538 39.407 22.6305 39.4355 23.0214C40.7934 39.9231 60.8471 59.4902 61.3045 59.9309V59.938L61.3116 59.9309L61.3188 59.938V59.9309C61.7404 59.4831 80.1289 39.9231 80.0575 23.0214C80.0575 22.5736 80.0289 22.1543 79.986 21.7491C79.986 21.5501 79.986 21.344 79.9788 21.145C79.5072 10.0857 70.0378 1.12305 58.8174 1.12305C47.5971 1.12305 38.8852 10.0857 39.3498 21.145C39.3569 21.3938 39.3784 21.6425 39.3998 21.8913ZM49.5696 21.145C49.3337 15.6509 53.6646 11.1944 59.2462 11.1944C64.8207 11.1944 69.5303 15.6509 69.7662 21.145C70.002 26.6391 65.6711 31.0956 60.0895 31.0956C54.508 31.0956 49.7983 26.6391 49.5696 21.145Z" fill="url(#paint7_linear_390_2064)"/>
</g>
</g>
<defs>
<linearGradient id="paint0_linear_390_2064" x1="46.68" y1="90.7121" x2="103.564" y2="56.6725" gradientUnits="userSpaceOnUse">
<stop stop-color="#7F7F7F"/>
<stop offset="1" stop-color="#444444"/>
</linearGradient>
<linearGradient id="paint1_linear_390_2064" x1="82.8062" y1="82.1756" x2="18.961" y2="82.1756" gradientUnits="userSpaceOnUse">
<stop stop-color="#7F7F7F"/>
<stop offset="1" stop-color="#444444"/>
</linearGradient>
<linearGradient id="paint2_linear_390_2064" x1="40.9647" y1="82.7839" x2="35.713" y2="96.1246" gradientUnits="userSpaceOnUse">
<stop stop-color="#7F7F7F"/>
<stop offset="1" stop-color="#444444"/>
</linearGradient>
<linearGradient id="paint3_linear_390_2064" x1="119.003" y1="94.9621" x2="57.8291" y2="94.9621" gradientUnits="userSpaceOnUse">
<stop stop-color="#7F7F7F"/>
<stop offset="1" stop-color="#444444"/>
</linearGradient>
<linearGradient id="paint4_linear_390_2064" x1="57.8291" y1="100.432" x2="10.539" y2="100.432" gradientUnits="userSpaceOnUse">
<stop stop-color="#7F7F7F"/>
<stop offset="1" stop-color="#444444"/>
</linearGradient>
<linearGradient id="paint5_linear_390_2064" x1="115.646" y1="67.9803" x2="12.7466" y2="67.9803" gradientUnits="userSpaceOnUse">
<stop stop-color="#7F7F7F"/>
<stop offset="1" stop-color="#444444"/>
</linearGradient>
<linearGradient id="paint6_linear_390_2064" x1="62.821" y1="42.4448" x2="63.9672" y2="3.70694" gradientUnits="userSpaceOnUse">
<stop stop-color="#EA4335"/>
<stop offset="1" stop-color="#FF6457"/>
</linearGradient>
<linearGradient id="paint7_linear_390_2064" x1="62.1254" y1="2.74041" x2="55.5253" y2="43.092" gradientUnits="userSpaceOnUse">
<stop stop-color="#EA4335"/>
<stop offset="1" stop-color="#FF6457"/>
</linearGradient>
</defs>
</svg>
