<svg width="90" height="70" viewBox="0 0 90 70" fill="none" xmlns="http://www.w3.org/2000/svg">
<g id="&#208;&#145;&#208;&#181;&#208;&#183; &#208;&#189;&#208;&#176;&#208;&#183;&#208;&#178;&#208;&#176;&#208;&#189;&#208;&#184;&#209;&#143; 1" clip-path="url(#clip0_390_619)">
<path id="Vector" d="M89.8647 52.7465C88.9607 60.7335 83.714 67.1765 76.7376 70.0022H18.6365C8.32102 67.5815 1.21834 57.7985 2.43224 47.0323C2.85195 43.2874 4.26747 39.7223 6.5323 36.7061C8.79713 33.69 11.829 31.3323 15.314 29.8771C15.6324 29.7421 15.9553 29.6157 16.2826 29.498C14.9247 26.3458 14.3608 22.91 14.6403 19.4905C14.6569 19.2608 14.6809 19.0316 14.7061 18.8019C15.1745 14.6549 16.8615 10.7386 19.555 7.54508C22.2485 4.35157 25.8283 2.0234 29.8445 0.853173C33.8608 -0.317051 38.1343 -0.277106 42.1278 0.967986C46.1214 2.21308 49.6568 4.60776 52.2899 7.85106C55.51 6.58595 58.9926 6.12943 62.4311 6.52165C72.5168 7.65582 80.1499 15.6623 81.1619 25.3335C81.3216 26.8605 81.3151 28.4002 81.1424 29.9257C81.033 30.8973 80.8556 31.86 80.6116 32.8069C86.9691 37.069 90.7813 44.6307 89.8647 52.7465Z" fill="#E6EDDD"/>
<path id="Vector_2" d="M85.3669 50.4082H82.7434V37.0448C82.7434 36.9876 82.7211 36.9326 82.6811 36.8915C82.6411 36.8505 82.5867 36.8265 82.5294 36.8249C82.4998 36.8239 82.4704 36.8288 82.4428 36.8395C82.4152 36.8501 82.39 36.8661 82.3688 36.8867C82.3476 36.9072 82.3307 36.9318 82.3192 36.959C82.3077 36.9861 82.3019 37.0153 82.3019 37.0448V50.4082H67.4569V34.2057H79.7438C79.7974 34.2069 79.8498 34.1894 79.8918 34.1561C79.9337 34.1228 79.9627 34.0758 79.9736 34.0235C79.9792 33.9918 79.9777 33.9593 79.9694 33.9282C79.961 33.8971 79.9459 33.8683 79.9252 33.8436C79.9044 33.819 79.8785 33.7992 79.8493 33.7856C79.8201 33.772 79.7882 33.765 79.7559 33.765H67.4569V17.5625H77.3456C77.3994 17.5638 77.452 17.5462 77.4942 17.5128C77.5364 17.4795 77.5656 17.4324 77.5767 17.3799C77.5821 17.3482 77.5804 17.3158 77.572 17.2848C77.5635 17.2539 77.5484 17.2251 77.5277 17.2006C77.507 17.176 77.4812 17.1563 77.4521 17.1427C77.4229 17.1291 77.3912 17.122 77.359 17.1218H67.4569V9.07365C67.4569 9.01577 67.4341 8.9602 67.3934 8.91897C67.3526 8.87774 67.2973 8.85415 67.2392 8.8533C67.21 8.85292 67.181 8.85834 67.1538 8.86925C67.1267 8.88015 67.102 8.89633 67.0812 8.91682C67.0604 8.93732 67.0438 8.96174 67.0326 8.98866C67.0213 9.01558 67.0155 9.04447 67.0155 9.07365V17.1202H50.7706V7.09978C50.7706 7.07168 50.7651 7.04385 50.7544 7.01787C50.7436 6.9919 50.7278 6.9683 50.7079 6.94843C50.688 6.92856 50.6643 6.91281 50.6383 6.90208C50.6122 6.89135 50.5843 6.88586 50.5561 6.88591H50.5505C50.5214 6.8858 50.4926 6.89141 50.4658 6.90241C50.4389 6.91341 50.4144 6.92959 50.3938 6.95002C50.3733 6.97045 50.3569 6.99473 50.3457 7.02147C50.3345 7.04821 50.3288 7.07689 50.3287 7.10586C50.3287 7.89694 50.3287 17.1202 50.3287 17.1202H34.0838V1.42446C34.0837 1.38761 34.0746 1.35133 34.0574 1.31873C34.0382 1.28402 34.0101 1.25507 33.9758 1.23491C33.9416 1.21475 33.9026 1.20411 33.8629 1.2041C33.8089 1.20396 33.7568 1.22367 33.7165 1.25947C33.6761 1.29527 33.6505 1.34464 33.6444 1.39813C33.6424 1.40675 33.6416 1.41561 33.6419 1.42446V17.1202L17.594 17.1166C17.5367 17.1166 17.4816 17.1391 17.4408 17.1793C17.4 17.2194 17.3767 17.274 17.3759 17.3312V17.3369C17.3754 17.3665 17.3808 17.396 17.3917 17.4235C17.4027 17.451 17.4191 17.4761 17.4399 17.4972C17.4607 17.5184 17.4855 17.5352 17.5128 17.5467C17.5402 17.5582 17.5696 17.5641 17.5993 17.5642C19.2644 17.5609 33.6411 17.5609 33.6411 17.5609V33.7634H10.6481C10.6138 33.7634 10.5799 33.7715 10.5493 33.787C10.5187 33.8025 10.4921 33.8249 10.4718 33.8525C10.4515 33.8801 10.438 33.9121 10.4323 33.9459C10.4267 33.9796 10.4291 34.0143 10.4394 34.0469V34.0514C10.4534 34.0956 10.4812 34.1343 10.5187 34.1617C10.5563 34.1891 10.6016 34.2038 10.6481 34.2037H33.6419V50.4062H17.397V36.7617C17.3971 36.7206 17.3855 36.6803 17.3637 36.6455C17.3418 36.6107 17.3106 36.5827 17.2735 36.5648C17.2364 36.547 17.1951 36.5399 17.1541 36.5444C17.1132 36.5489 17.0744 36.5648 17.0421 36.5903L17.0376 36.594C17.0121 36.6146 16.9916 36.6407 16.9776 36.6703C16.9635 36.6998 16.9563 36.7322 16.9564 36.7649V50.4082H4.01125C3.96255 50.4082 3.91522 50.4243 3.87675 50.4541C3.83828 50.4839 3.81087 50.5256 3.79885 50.5727V50.5771C3.79076 50.6094 3.79015 50.643 3.79707 50.6756C3.80398 50.7081 3.81824 50.7386 3.83876 50.7648C3.85927 50.791 3.88551 50.8122 3.91547 50.8268C3.94543 50.8414 3.97832 50.8489 4.01166 50.8489H16.9544V67.0514H13.8081C13.7789 67.0514 13.75 67.0572 13.723 67.0684C13.6961 67.0796 13.6716 67.0961 13.6511 67.1168C13.6305 67.1375 13.6143 67.1621 13.6033 67.1891C13.5924 67.2161 13.5869 67.245 13.5872 67.2742C13.5877 67.3322 13.6113 67.3877 13.6527 67.4286C13.694 67.4694 13.7499 67.4922 13.8081 67.4921H73.3498C73.4036 67.4935 73.4563 67.476 73.4985 67.4426C73.5408 67.4092 73.5699 67.3621 73.5808 67.3094C73.5863 67.2778 73.5847 67.2453 73.5763 67.2144C73.5679 67.1834 73.5528 67.1546 73.5321 67.13C73.5113 67.1055 73.4855 67.0857 73.4563 67.0721C73.4271 67.0585 73.3954 67.0515 73.3632 67.0514H67.4569V50.8489H82.2995V61.6892C82.2995 61.7178 82.3053 61.7461 82.3164 61.7724C82.3276 61.7988 82.3439 61.8226 82.3644 61.8426C82.3849 61.8626 82.4091 61.8783 82.4358 61.8888C82.4625 61.8994 82.4909 61.9045 82.5196 61.9039H82.5249C82.5829 61.9031 82.6383 61.8797 82.6791 61.8385C82.7199 61.7973 82.7429 61.7418 82.743 61.6839C82.743 60.1447 82.743 50.8493 82.743 50.8493H85.3641C85.3938 50.8493 85.4233 50.8433 85.4506 50.8316C85.478 50.8199 85.5026 50.8028 85.5232 50.7813C85.5437 50.7599 85.5597 50.7345 85.5701 50.7067C85.5805 50.6789 85.5852 50.6493 85.5838 50.6197V50.6152C85.5812 50.5595 85.5572 50.507 85.5169 50.4685C85.4765 50.4299 85.4228 50.4084 85.3669 50.4082ZM33.6419 67.051H17.397V50.8485H33.6419V67.051ZM50.3287 67.051H34.0838V50.8485H50.3287V67.051ZM50.3287 50.4082H34.0838V34.2057H50.3287V50.4082ZM50.3287 33.7642H34.0838V17.5617H50.3287V33.7642ZM67.0163 67.051H50.7714V50.8485H67.0163V67.051ZM67.0163 50.4082H50.7714V34.2057H67.0163V50.4082ZM67.0163 33.7642H50.7714V17.5617H67.0163V33.7642Z" fill="white"/>
<path id="Vector_3" d="M27.0543 4.98242H20.2099C19.174 4.98242 18.1806 5.39284 17.4481 6.12338C16.7157 6.85393 16.3042 7.84476 16.3042 8.8779C16.3042 9.91105 16.7157 10.9019 17.4481 11.6324C18.1806 12.363 19.174 12.7734 20.2099 12.7734H24.3385L25.9671 13.9242V12.7722H27.0543C27.5672 12.7722 28.0751 12.6715 28.549 12.4758C29.0228 12.28 29.4534 11.9931 29.8161 11.6313C30.1788 11.2696 30.4665 10.8401 30.6627 10.3675C30.859 9.89484 30.96 9.38827 30.9599 8.87669C30.9596 7.84375 30.548 6.85323 29.8156 6.12295C29.0831 5.39267 28.0899 4.98242 27.0543 4.98242Z" fill="#CADBB4"/>
<path id="Vector_4" d="M25.8866 9.46033C26.2415 9.46033 26.5291 9.17343 26.5291 8.81952C26.5291 8.46561 26.2415 8.17871 25.8866 8.17871C25.5318 8.17871 25.2441 8.46561 25.2441 8.81952C25.2441 9.17343 25.5318 9.46033 25.8866 9.46033Z" fill="white"/>
<path id="Vector_5" d="M23.6323 9.46033C23.9871 9.46033 24.2748 9.17343 24.2748 8.81952C24.2748 8.46561 23.9871 8.17871 23.6323 8.17871C23.2775 8.17871 22.9898 8.46561 22.9898 8.81952C22.9898 9.17343 23.2775 9.46033 23.6323 9.46033Z" fill="white"/>
<path id="Vector_6" d="M21.3779 9.49548C21.7327 9.49548 22.0204 9.20858 22.0204 8.85468C22.0204 8.50077 21.7327 8.21387 21.3779 8.21387C21.0231 8.21387 20.7354 8.50077 20.7354 8.85468C20.7354 9.20858 21.0231 9.49548 21.3779 9.49548Z" fill="white"/>
<path id="Vector_7" d="M76.5805 11.8721H71.0682C70.234 11.8721 69.4339 12.2026 68.8441 12.7909C68.2542 13.3793 67.9228 14.1772 67.9228 15.0093C67.9228 15.8414 68.2542 16.6394 68.844 17.2278C69.4339 17.8162 70.234 18.1468 71.0682 18.1469H71.9759V19.0733L73.1756 18.1469H76.5805C77.4148 18.1469 78.215 17.8163 78.8049 17.2279C79.3949 16.6395 79.7263 15.8414 79.7263 15.0093C79.7263 14.5973 79.645 14.1893 79.4869 13.8086C79.3288 13.428 79.097 13.0821 78.8049 12.7908C78.5128 12.4995 78.166 12.2684 77.7843 12.1108C77.4027 11.9531 76.9936 11.872 76.5805 11.8721Z" fill="#AEC09A"/>
<path id="Vector_8" d="M72.5194 15.0782C72.5813 14.7999 72.4053 14.5243 72.1264 14.4626C71.8474 14.4009 71.5711 14.5764 71.5092 14.8546C71.4473 15.1328 71.6232 15.4084 71.9022 15.4702C72.1812 15.5319 72.4575 15.3564 72.5194 15.0782Z" fill="white"/>
<path id="Vector_9" d="M74.3319 15.0841C74.3979 14.8068 74.2261 14.5286 73.9481 14.4627C73.6701 14.3969 73.3911 14.5683 73.3251 14.8456C73.2591 15.1229 73.4309 15.401 73.709 15.4669C73.987 15.5328 74.2659 15.3614 74.3319 15.0841Z" fill="white"/>
<path id="Vector_10" d="M76.1449 15.0726C76.1908 14.7913 75.9994 14.5261 75.7174 14.4803C75.4353 14.4345 75.1694 14.6254 75.1235 14.9067C75.0776 15.188 75.269 15.4532 75.551 15.499C75.8331 15.5448 76.0989 15.3539 76.1449 15.0726Z" fill="white"/>
<path id="Vector_11" d="M82.5432 59.0751C82.5432 59.0751 85.1066 58.4501 86.0667 56.7764C87.3886 54.4724 85.8332 53.4512 85.8332 53.4512C85.8332 53.4512 88.4425 53.1272 89.0371 51.3656C89.6316 49.604 87.9243 49.1523 87.9243 49.1523C87.9243 49.1523 90.7095 46.5628 89.3348 44.7059C87.96 42.8491 84.8317 45.3261 84.8317 45.3261C84.8317 45.3261 83.7022 44.2353 82.2861 45.1977C80.8699 46.1601 79.7275 48.9607 79.7275 48.9607C79.7275 48.9607 78.3625 47.242 77.2754 48.7987C76.1882 50.3554 77.543 59.4247 77.543 59.4247L82.5432 59.0751Z" fill="#648A66"/>
<path id="Vector_12" d="M78.1356 59.0134C78.1444 59.013 78.1532 59.0113 78.1616 59.0086C80.8208 58.1373 82.2504 56.1905 82.6606 52.8824C82.9794 50.309 83.9545 48.2716 87.675 46.6939C87.6996 46.6817 87.7187 46.6606 87.7283 46.6349C87.7379 46.6092 87.7372 46.5808 87.7264 46.5556C87.7157 46.5303 87.6956 46.5102 87.6704 46.4992C87.6452 46.4882 87.6168 46.4873 87.5909 46.4966C83.7758 48.1144 82.7755 50.209 82.4474 52.8561C82.0486 56.0723 80.6653 57.9627 78.0946 58.8048C78.0694 58.8127 78.0481 58.8295 78.0346 58.8521C78.0211 58.8747 78.0165 58.9014 78.0215 58.9272C78.0265 58.953 78.0409 58.976 78.0618 58.9919C78.0828 59.0078 78.1089 59.0155 78.1352 59.0134H78.1356Z" fill="#80A680"/>
<path id="Vector_13" d="M10.5592 70.0005C10.5592 70.0005 7.17739 69.4334 5.77383 67.3546C3.8419 64.4937 5.76042 63.0233 5.76042 63.0233C5.76042 63.0233 2.349 62.8475 1.41045 60.6229C0.471897 58.3983 2.64181 57.6493 2.64181 57.6493C2.64181 57.6493 -1.21432 54.5571 0.391079 52.0189C1.99648 49.4808 6.28595 52.3981 6.28595 52.3981C6.28595 52.3981 7.64605 50.8775 9.5727 51.9906C11.4993 53.1037 13.2477 56.6282 13.2477 56.6282C13.2477 56.6282 14.8535 54.2719 16.4102 56.1854C17.9668 58.0989 17.1546 70.0021 17.1546 70.0021L10.5592 70.0005Z" fill="#80A680"/>
<path id="Vector_14" d="M16.2656 69.503C16.254 69.503 16.2424 69.5017 16.2311 69.4989C12.7023 68.6212 10.6644 66.2337 9.81842 61.985C9.16009 58.6797 7.70333 56.1315 2.73118 54.4387C2.69617 54.4268 2.66735 54.4015 2.65105 54.3684C2.63475 54.3353 2.63231 54.297 2.64427 54.2621C2.65622 54.2272 2.68159 54.1985 2.7148 54.1822C2.74801 54.1659 2.78633 54.1635 2.82134 54.1754C7.91939 55.9111 9.41514 58.5315 10.0921 61.9308C10.915 66.0624 12.8871 68.3802 16.2989 69.2288C16.3317 69.2372 16.3603 69.2573 16.3793 69.2852C16.3984 69.313 16.4067 69.3469 16.4026 69.3804C16.3985 69.4139 16.3824 69.4448 16.3572 69.4674C16.332 69.4899 16.2995 69.5026 16.2656 69.503Z" fill="#648A66"/>
<path id="Vector_15" d="M9.16986 55.9431C9.16986 55.9431 6.59464 54.4071 6.11379 52.2671C5.45221 49.3219 7.48526 48.7326 7.48526 48.7326C7.48526 48.7326 4.75937 47.506 4.70536 45.3953C4.65134 43.2845 6.65799 43.3627 6.65799 43.3627C6.65799 43.3627 4.50189 39.6179 6.61982 38.0596C8.73775 36.5013 11.3036 40.2404 11.3036 40.2404C11.3036 40.2404 12.8977 39.4327 14.1128 40.9517C15.3279 42.4707 15.6288 45.8959 15.6288 45.8959C15.6288 45.8959 17.6895 44.4851 18.3499 46.5388C19.0102 48.5924 14.4872 57.9947 14.4872 57.9947L9.16986 55.9431Z" fill="#648A66"/>
<path id="Vector_16" d="M13.9795 57.3494C13.97 57.3458 13.961 57.341 13.9527 57.3352C11.3564 55.4995 10.4576 52.9067 11.1237 49.1748C11.6419 46.2722 11.2674 43.7324 7.75529 40.7743C7.74305 40.7639 7.73297 40.7513 7.72562 40.7371C7.71827 40.7229 7.7138 40.7074 7.71246 40.6915C7.71112 40.6755 7.71294 40.6595 7.71782 40.6443C7.72269 40.629 7.73053 40.6149 7.74087 40.6027C7.75122 40.5905 7.76388 40.5805 7.77812 40.5731C7.79236 40.5658 7.80791 40.5613 7.82389 40.56C7.83986 40.5587 7.85594 40.5605 7.8712 40.5653C7.88647 40.5702 7.90063 40.578 7.91287 40.5883C11.5144 43.6218 11.8973 46.2317 11.3649 49.2162C10.7171 52.8439 11.5846 55.3601 14.0949 57.1347C14.1198 57.1516 14.1376 57.1771 14.1449 57.2063C14.1521 57.2354 14.1482 57.2663 14.1339 57.2928C14.1197 57.3193 14.0961 57.3396 14.0677 57.3497C14.0394 57.3599 14.0082 57.3592 13.9803 57.3478L13.9795 57.3494Z" fill="#80A680"/>
<path id="Vector_17" d="M80.6255 69.9997C80.6255 69.9997 83.4135 69.5318 84.571 67.818C86.1638 65.4589 84.5819 64.2466 84.5819 64.2466C84.5819 64.2466 87.396 64.102 88.1688 62.2678C88.9417 60.4337 87.1535 59.816 87.1535 59.816C87.1535 59.816 90.3326 57.2641 89.0091 55.1744C87.6855 53.0847 84.1486 55.4871 84.1486 55.4871C84.1486 55.4871 83.0273 54.2334 81.4386 55.1513C79.8498 56.0692 78.4089 58.9727 78.4089 58.9727C78.4089 58.9727 77.0849 57.0284 75.8012 58.6081C74.5174 60.1879 75.1871 70.0001 75.1871 70.0001L80.6255 69.9997Z" fill="#80A680"/>
<path id="Vector_18" d="M75.9201 69.5897C75.9297 69.5899 75.9393 69.5888 75.9486 69.5865C78.8584 68.8631 80.5378 66.8941 81.2363 63.3891C81.7789 60.6638 82.9802 58.5627 87.0796 57.1673C87.1071 57.1564 87.1294 57.1354 87.1418 57.1086C87.1542 57.0818 87.1558 57.0512 87.1463 57.0232C87.1367 56.9953 87.1167 56.9721 87.0905 56.9584C87.0642 56.9447 87.0337 56.9416 87.0053 56.9498C82.8015 58.3813 81.5685 60.5415 81.0105 63.3445C80.3323 66.7503 78.7061 68.6622 75.8933 69.3617C75.866 69.3683 75.8421 69.3847 75.826 69.4078C75.81 69.4308 75.803 69.4589 75.8064 69.4868C75.8097 69.5146 75.8232 69.5403 75.8442 69.5589C75.8653 69.5775 75.8924 69.5877 75.9206 69.5877L75.9201 69.5897Z" fill="#648A66"/>
<path id="Vector_19" d="M62.0884 8.09766H33.4239C32.8906 8.0976 32.3626 8.20235 31.87 8.40592C31.3773 8.60949 30.9297 8.90789 30.5528 9.28406C30.1758 9.66023 29.8768 10.1068 29.673 10.5983C29.4691 11.0897 29.3644 11.6164 29.3647 12.1483V23.6026C29.3652 24.6762 29.7931 25.7057 30.5542 26.4648C31.3153 27.224 32.3475 27.6507 33.4239 27.6512H54.1053L57.7685 30.5389V27.6512H62.0876C63.1644 27.6512 64.197 27.2247 64.9586 26.4655C65.7202 25.7063 66.1483 24.6766 66.1488 23.6026V12.1463C66.1489 11.6145 66.0439 11.0879 65.8398 10.5966C65.6358 10.1053 65.3367 9.65889 64.9596 9.28291C64.5825 8.90694 64.1349 8.60875 63.6422 8.40538C63.1496 8.20201 62.6216 8.09744 62.0884 8.09766Z" fill="#AEC09A"/>
<path id="Vector_20" d="M63.2739 27.7761C63.65 27.1422 63.68 26.4394 63.3048 25.481C62.9295 24.5226 63.1508 21.9185 63.1508 21.9185C62.4706 21.5097 61.9784 20.8511 61.7799 20.0841C61.5815 19.3172 61.6926 18.5032 62.0896 17.8171C62.4865 17.1311 63.1375 16.6278 63.9026 16.4154C64.6676 16.203 65.4857 16.2986 66.1809 16.6815C66.6473 16.3841 67.1794 16.2046 67.731 16.1584C68.2826 16.1122 68.8372 16.2008 69.3468 16.4164C69.8564 16.6321 70.3057 16.9683 70.6557 17.396C71.0057 17.8237 71.246 18.3301 71.3557 18.8712C71.8723 20.1034 72.7723 21.353 74.5536 21.6427C74.983 21.7229 75.3872 21.9037 75.7329 22.1703C76.0786 22.4369 76.3558 22.7815 76.5417 23.1759C76.7276 23.5703 76.817 24.0031 76.8023 24.4386C76.7877 24.8742 76.6695 25.3001 76.4575 25.6811C77.1185 25.7919 77.7166 26.1388 78.1401 26.657C78.5637 27.1752 78.7838 27.8294 78.7595 28.4975C78.7351 29.1657 78.4679 29.8022 78.0078 30.2883C77.5476 30.7745 76.9258 31.0771 76.2585 31.1397L66.5602 31.9973C66.4985 32.0248 66.436 32.0507 66.3714 32.0738C65.807 32.2764 65.1918 32.29 64.619 32.1126C64.0461 31.9352 63.5469 31.5764 63.1968 31.0907C62.8467 30.6049 62.6648 30.0186 62.6787 29.4205C62.6926 28.8224 62.9016 28.2451 63.2739 27.7761Z" fill="#2F282E"/>
<path id="Vector_21" d="M55.5222 52.3096C55.5222 52.3096 55.5173 53.2756 55.3025 53.7273C55.0877 54.1789 51.8143 56.4412 51.9784 56.9888C52.2428 57.8695 53.8522 56.7632 54.0764 56.9342C54.3006 57.1051 53.28 59.5363 53.4859 60.1585C53.7081 60.8284 54.2758 60.1718 54.2758 60.1718C54.2758 60.1718 54.2214 61.0156 54.63 61.1383C55.1071 61.2817 55.3886 60.4465 55.3886 60.4465C55.3886 60.4465 55.3252 60.973 55.7289 61.0856C56.3284 61.2554 56.5412 59.6736 56.5412 59.6736C56.5412 59.6736 56.5688 60.329 57.033 60.3841C58.2461 60.5283 59.1107 52.4449 59.1107 52.4449L55.5222 52.3096Z" fill="#EB8B76"/>
<path id="Vector_22" d="M56.6021 59.6985L56.6045 59.6904L56.9578 58.1167C56.9598 58.1083 56.96 58.0997 56.9585 58.0912C56.9571 58.0827 56.954 58.0746 56.9494 58.0673C56.9448 58.0601 56.9388 58.0538 56.9317 58.0488C56.9247 58.0439 56.9167 58.0404 56.9083 58.0385C56.8913 58.035 56.8736 58.0381 56.8589 58.0474C56.8442 58.0566 56.8337 58.0711 56.8295 58.0879L56.4762 59.6616C56.4727 59.6778 56.4755 59.6947 56.484 59.7089C56.4925 59.7231 56.5061 59.7336 56.522 59.7383C56.5379 59.7429 56.555 59.7414 56.5699 59.734C56.5847 59.7267 56.5962 59.714 56.6021 59.6985Z" fill="#803B34"/>
<path id="Vector_23" d="M55.4504 60.4706C55.4516 60.4679 55.4524 60.465 55.4528 60.4621L55.9527 58.1439C55.9563 58.1269 55.9529 58.1093 55.9435 58.0947C55.9341 58.0802 55.9193 58.0699 55.9024 58.0661C55.8939 58.0642 55.8852 58.0639 55.8766 58.0654C55.868 58.0669 55.8599 58.0701 55.8526 58.0747C55.8453 58.0794 55.839 58.0855 55.8341 58.0927C55.8292 58.0998 55.8257 58.1079 55.824 58.1164L55.3245 60.4345C55.3215 60.4506 55.3246 60.4672 55.3332 60.481C55.3418 60.4949 55.3553 60.5051 55.371 60.5096C55.3867 60.5141 55.4036 60.5126 55.4182 60.5054C55.4329 60.4982 55.4444 60.4858 55.4504 60.4706Z" fill="#803B34"/>
<path id="Vector_24" d="M54.3209 60.2267L54.3233 60.2186L54.7859 58.1577C54.7878 58.1493 54.788 58.1406 54.7865 58.1322C54.785 58.1237 54.7818 58.1156 54.7772 58.1084C54.7726 58.1012 54.7666 58.0949 54.7596 58.09C54.7525 58.085 54.7446 58.0815 54.7362 58.0797C54.7278 58.0778 54.7191 58.0776 54.7106 58.0791C54.7021 58.0806 54.694 58.0837 54.6868 58.0883C54.6795 58.093 54.6732 58.0989 54.6683 58.106C54.6634 58.113 54.6598 58.1209 54.658 58.1293L54.195 60.1899C54.1931 60.1982 54.1928 60.2069 54.1943 60.2154C54.1958 60.2239 54.1989 60.232 54.2035 60.2392C54.2081 60.2465 54.2141 60.2528 54.2211 60.2577C54.2282 60.2627 54.2361 60.2662 54.2445 60.268C54.2601 60.2715 54.2764 60.2692 54.2905 60.2616C54.3045 60.254 54.3153 60.2416 54.3209 60.2267Z" fill="#803B34"/>
<path id="Vector_25" d="M55.9499 70H77.1982C77.4094 63.5449 77.3928 55.5368 76.7283 52.8581C76.0785 50.2301 75.09 48.3887 74.1417 47.1265C72.7406 45.2632 71.4297 44.6621 71.4297 44.6621H59.6021L55.9499 70Z" fill="#217074"/>
<path id="Vector_26" d="M64.0804 55.2739L64.5532 69.5937C64.5541 69.6272 64.5681 69.659 64.5922 69.6824C64.6164 69.7058 64.6487 69.7188 64.6823 69.7188C64.6997 69.7188 64.7169 69.7153 64.7329 69.7086C64.749 69.7018 64.7634 69.6919 64.7755 69.6794C64.7876 69.6669 64.7971 69.6522 64.8033 69.636C64.8095 69.6198 64.8125 69.6025 64.8119 69.5852L64.3399 55.2658C64.3382 55.2317 64.3232 55.1996 64.2982 55.1763C64.2732 55.1529 64.2401 55.1402 64.2059 55.1406C64.1716 55.1419 64.1392 55.1566 64.1157 55.1816C64.0922 55.2065 64.0795 55.2397 64.0804 55.2739Z" fill="white"/>
<path id="Vector_27" d="M80.2612 42.0322C78.8016 46.8658 75.2699 47.424 75.2699 47.424L75.3394 49.0572H58.9925L58.4646 52.5586L52.9584 52.3763L54.6539 39.6711C54.6539 39.6711 55.6238 31.3155 62.4036 28.1815C63.9684 27.4585 65.8426 27.0117 68.0868 27.0117C70.5869 27.0117 72.7491 27.6631 74.5393 28.7304C79.4485 31.6558 81.5685 37.7037 80.2612 42.0322Z" fill="#F0AA3F"/>
<path id="Vector_28" d="M80.2612 42.0325C78.6233 47.4288 74.2652 47.6159 74.2652 47.6159C70.8631 48.2786 67.87 47.1541 66.0518 46.1755L66.466 41.2933L72.0157 40.9081C72.0157 40.9081 70.4318 38.9128 70.0541 35.9343C69.6764 32.9559 71.0812 29.3318 74.5389 28.7295C79.4485 31.6561 81.5762 37.7061 80.2612 42.0325Z" fill="#F0AA3F"/>
<path id="Vector_29" d="M66.6337 41.4255C66.5977 41.4245 66.5634 41.4097 66.5379 41.3842C66.5125 41.3587 66.4979 41.3244 66.4971 41.2884C66.4963 41.2524 66.5094 41.2175 66.5337 41.191C66.558 41.1644 66.5916 41.1481 66.6276 41.1456L71.7878 40.907L71.192 37.869C71.1885 37.851 71.1885 37.8324 71.1922 37.8144C71.1958 37.7964 71.203 37.7793 71.2133 37.764C71.2235 37.7488 71.2367 37.7357 71.2521 37.7255C71.2674 37.7154 71.2846 37.7083 71.3027 37.7048C71.3208 37.7012 71.3394 37.7013 71.3575 37.7049C71.3755 37.7085 71.3927 37.7157 71.408 37.7259C71.4233 37.7362 71.4364 37.7493 71.4466 37.7646C71.4568 37.78 71.4638 37.7971 71.4674 37.8151L72.1261 41.1731L66.6406 41.4267L66.6337 41.4255Z" fill="white"/>
<path id="Vector_30" d="M71.502 48.1101C67.7409 48.1101 65.9722 46.2951 65.9499 46.2716C65.936 46.2585 65.925 46.2428 65.9175 46.2253C65.9099 46.2079 65.906 46.1891 65.906 46.1701C65.906 46.1511 65.9099 46.1323 65.9174 46.1149C65.9249 46.0974 65.9359 46.0817 65.9497 46.0686C65.9635 46.0555 65.9799 46.0454 65.9978 46.0389C66.0156 46.0323 66.0347 46.0295 66.0537 46.0305C66.0727 46.0315 66.0913 46.0364 66.1084 46.0448C66.1254 46.0533 66.1406 46.0651 66.1529 46.0796C66.1805 46.1079 68.96 48.9421 75.0348 47.3405C75.0527 47.3358 75.0713 47.3347 75.0895 47.3371C75.1078 47.3396 75.1255 47.3456 75.1414 47.3549C75.1574 47.3641 75.1713 47.3764 75.1825 47.3911C75.1937 47.4057 75.2019 47.4224 75.2066 47.4402C75.2113 47.458 75.2125 47.4765 75.21 47.4948C75.2076 47.513 75.2015 47.5306 75.1922 47.5465C75.183 47.5624 75.1706 47.5763 75.156 47.5875C75.1413 47.5986 75.1245 47.6068 75.1067 47.6115C73.7482 47.9696 72.5477 48.1101 71.502 48.1101Z" fill="white"/>
<path id="Vector_31" d="M64.8667 24.9179L64.0642 25.5733C64.0642 25.5733 63.6061 29.8576 65.7334 29.9196C67.8607 29.9816 69.5781 27.0841 69.5781 27.0841L69.0323 26.9371L69.0579 22.1533L64.8667 24.9179Z" fill="#EB8B76"/>
<path id="Vector_32" opacity="0.52" d="M64.022 25.7903C65.0872 27.4798 67.3623 26.7382 68.3768 24.5926C69.3913 22.4469 64.022 25.7903 64.022 25.7903Z" fill="#853A34"/>
<path id="Vector_33" d="M63.1488 18.3899C63.1488 18.3899 62.8138 21.9508 62.8727 23.0651C62.9316 24.1794 63.3576 25.7166 64.8095 26.0508C68.1803 26.8269 69.6793 21.7871 69.6793 21.7871L65.2525 18.2793L63.1488 18.3899Z" fill="#EB8B76"/>
<path id="Vector_34" d="M62.9347 21.0844C62.0007 21.0054 61.4727 18.5427 62.8287 17.5361C64.1848 16.5295 64.9122 17.5802 65.5729 17.016C66.2337 16.4517 68.274 16.2209 69.5773 17.8796C70.8805 19.5383 70.8793 20.3808 70.4334 22.0335C69.9875 23.6861 69.0323 26.9347 69.0323 26.9347L67.9613 21.3522C67.2709 21.0707 66.7133 20.7296 66.2585 19.8676C65.8036 19.0057 65.4056 18.603 64.4256 18.7906C63.0708 19.0518 62.9347 21.0844 62.9347 21.0844Z" fill="#2F282E"/>
<path id="Vector_35" d="M64.1495 23.2103C64.135 23.2107 64.1208 23.2066 64.1089 23.1985L63.453 22.7582L63.5403 22.7015C63.5439 22.6991 63.9094 22.4585 64.0077 21.8821C64.0534 21.5946 64.0017 21.3001 63.8608 21.0453C63.7199 20.7904 63.4978 20.5897 63.2296 20.4749C63.214 20.4669 63.2021 20.4534 63.1961 20.437C63.1902 20.4206 63.1907 20.4026 63.1975 20.3866C63.2044 20.3706 63.2171 20.3577 63.2331 20.3506C63.249 20.3436 63.2671 20.3428 63.2836 20.3485C63.5801 20.4756 63.8256 20.6977 63.9814 20.9797C64.1371 21.2616 64.1941 21.5873 64.1434 21.9052C64.0622 22.3767 63.8217 22.6436 63.6946 22.7558L64.186 23.0855C64.198 23.0937 64.2071 23.1055 64.2119 23.1191C64.2168 23.1327 64.2173 23.1476 64.2132 23.1615C64.2092 23.1754 64.2008 23.1877 64.1894 23.1966C64.1779 23.2055 64.164 23.2105 64.1495 23.2111V23.2103Z" fill="#2F282E"/>
<path id="Vector_36" d="M64.8026 20.8705C64.7876 20.8678 64.7737 20.8611 64.7623 20.851C64.751 20.8408 64.7428 20.8278 64.7386 20.8132C64.7343 20.7987 64.7343 20.7832 64.7384 20.7686C64.7425 20.754 64.7507 20.7409 64.7619 20.7307C64.9748 20.5444 65.3281 20.4646 65.6794 20.533C65.9791 20.591 66.2146 20.7493 66.3251 20.9677C66.3317 20.9862 66.3312 21.0065 66.3239 21.0248C66.3165 21.0431 66.3028 21.058 66.2852 21.0669C66.2676 21.0758 66.2473 21.078 66.2282 21.0731C66.2091 21.0681 66.1924 21.0565 66.1813 21.0402C66.0932 20.8664 65.8991 20.7392 65.6485 20.6906L65.6246 20.6861C65.3403 20.6379 65.0377 20.7032 64.8684 20.8514C64.8594 20.8592 64.8489 20.8649 64.8376 20.8682C64.8262 20.8715 64.8143 20.8723 64.8026 20.8705Z" fill="#2F282E"/>
<path id="Vector_37" d="M69.1947 22.0816C69.3639 21.342 69.1447 20.6613 68.7051 20.5613C68.2656 20.4613 67.7721 20.9798 67.603 21.7194C67.4338 22.459 67.653 23.1397 68.0926 23.2397C68.5321 23.3397 69.0255 22.8212 69.1947 22.0816Z" fill="#EB8B76"/>
<path id="Vector_38" d="M68.6095 21.7539C68.5445 21.5943 68.3549 21.5129 68.149 21.5404C68.2298 21.3162 68.3898 21.129 68.599 21.0139C68.6088 21.0081 68.6175 21.0004 68.6244 20.9912C68.6313 20.9821 68.6364 20.9717 68.6393 20.9606C68.6421 20.9495 68.6428 20.938 68.6412 20.9267C68.6396 20.9153 68.6358 20.9044 68.63 20.8946C68.6242 20.8847 68.6165 20.8761 68.6073 20.8692C68.5982 20.8623 68.5878 20.8572 68.5767 20.8544C68.5655 20.8515 68.554 20.8508 68.5426 20.8524C68.5312 20.854 68.5203 20.8578 68.5104 20.8636C68.0255 21.1471 67.835 21.6109 67.9272 22.2781C67.9294 22.2939 67.936 22.3088 67.9461 22.3212C67.9563 22.3336 67.9697 22.3429 67.9849 22.3481C67.9979 22.3528 68.0118 22.3541 68.0255 22.3522C68.0369 22.3507 68.0479 22.347 68.0578 22.3412C68.0677 22.3355 68.0764 22.3278 68.0834 22.3187C68.0903 22.3096 68.0954 22.2992 68.0983 22.2881C68.1012 22.277 68.1018 22.2655 68.1002 22.2542C68.0734 22.0796 68.0734 21.9021 68.1002 21.7276C68.2651 21.6773 68.4109 21.7312 68.4467 21.8187C68.4554 21.8402 68.4723 21.8573 68.4937 21.8664C68.5151 21.8754 68.5392 21.8756 68.5608 21.8669C68.5823 21.8582 68.5995 21.8413 68.6086 21.82C68.6176 21.7986 68.6178 21.7746 68.6091 21.7531L68.6095 21.7539Z" fill="#803B34"/>
<path id="Vector_39" opacity="0.4" d="M64.0021 24.1175C64.0021 24.1175 64.1795 23.7408 64.5138 23.6581C64.848 23.5755 65.7516 23.8963 65.7516 23.8963L64.0021 24.1175Z" fill="#843B34"/>
<path id="Vector_40" opacity="0.4" d="M64.0021 24.1167C64.0021 24.1167 64.2539 24.7956 64.671 24.8361C65.5563 24.9223 65.7516 23.8955 65.7516 23.8955L64.0021 24.1167Z" fill="#843B34"/>
<path id="Vector_41" d="M65.7512 23.8955L64.0049 24.098C64.0049 24.098 64.1267 24.4626 64.6015 24.4812C65.2659 24.5059 65.7512 23.8955 65.7512 23.8955Z" fill="white"/>
<g id="Group" opacity="0.33">
<path id="Vector_42" opacity="0.6" d="M66.9646 23.4757C67.3936 23.1212 67.5473 22.6 67.3077 22.3116C67.0682 22.0232 66.5262 22.0768 66.0972 22.4313C65.6681 22.7859 65.5145 23.307 65.754 23.5954C65.9936 23.8838 66.5356 23.8302 66.9646 23.4757Z" fill="#803B34"/>
</g>
<path id="Vector_43" opacity="0.2" d="M64.8578 25.1821C64.7153 25.1822 64.5744 25.1532 64.4435 25.097C64.4095 25.0821 64.3828 25.0544 64.3693 25.0199C64.3557 24.9854 64.3564 24.947 64.3711 24.913C64.3859 24.879 64.4135 24.8522 64.448 24.8385C64.4825 24.8248 64.5211 24.8253 64.5552 24.8398C64.6736 24.8924 64.8037 24.9128 64.9326 24.899C65.0614 24.8852 65.1842 24.8377 65.2887 24.7612C65.3032 24.7491 65.32 24.74 65.3381 24.7346C65.3562 24.7291 65.3752 24.7273 65.394 24.7293C65.4128 24.7314 65.431 24.7371 65.4475 24.7464C65.464 24.7556 65.4785 24.768 65.4901 24.7829C65.5016 24.7979 65.5101 24.815 65.5148 24.8332C65.5196 24.8515 65.5207 24.8705 65.5179 24.8891C65.5151 24.9078 65.5086 24.9257 65.4988 24.9418C65.4889 24.9579 65.4759 24.9718 65.4605 24.9828C65.2871 25.1137 65.0752 25.1838 64.8578 25.1821Z" fill="#803B34"/>
<path id="Vector_44" d="M65.6501 21.728C65.6412 21.9147 65.538 22.061 65.4199 22.0553C65.3017 22.0496 65.2136 21.8933 65.2225 21.7073C65.2314 21.5214 65.3346 21.3744 65.4528 21.38C65.5709 21.3857 65.6591 21.5417 65.6501 21.728Z" fill="#2F282E"/>
<path id="Vector_45" d="M63.6041 21.674C63.596 21.8417 63.503 21.9738 63.3966 21.9685C63.2902 21.9632 63.211 21.8231 63.2191 21.6554C63.2272 21.4877 63.3198 21.3552 63.4262 21.3605C63.5326 21.3658 63.6122 21.5059 63.6041 21.674Z" fill="#2F282E"/>
<path id="Vector_46" d="M68.506 23.9537C68.6292 23.9532 68.7502 23.9204 68.8567 23.8585C68.9632 23.7965 69.0516 23.7078 69.1128 23.6011C69.174 23.4943 69.206 23.3734 69.2056 23.2505C69.2052 23.1275 69.1723 23.0069 69.1103 22.9006C69.0665 22.8286 69.0117 22.764 68.9478 22.709L68.7643 22.952C68.7979 22.9811 68.8266 23.0154 68.8491 23.0537C68.902 23.1432 68.918 23.2497 68.8935 23.3507C68.8691 23.4517 68.8063 23.5392 68.7184 23.5949C68.673 23.6229 68.6225 23.6417 68.5699 23.6502C68.5172 23.6587 68.4633 23.6568 68.4114 23.6446C68.3595 23.6324 68.3105 23.6101 68.2672 23.579C68.2239 23.5478 68.1872 23.5085 68.1591 23.4632C68.1134 23.3874 68.0941 23.2986 68.1041 23.2107C68.1142 23.1228 68.1531 23.0407 68.2148 22.9771C68.237 22.9553 68.2514 22.9267 68.2557 22.8959C68.26 22.865 68.2539 22.8336 68.2383 22.8066L68.2274 22.788C68.2167 22.7697 68.202 22.7541 68.1844 22.7423C68.1668 22.7305 68.1467 22.7229 68.1257 22.72C68.1047 22.7171 68.0833 22.7189 68.0632 22.7254C68.043 22.7319 68.0246 22.7429 68.0093 22.7576C67.9105 22.8555 67.843 22.9804 67.8154 23.1166C67.7879 23.2528 67.8015 23.394 67.8545 23.5225C67.9075 23.6509 67.9976 23.7608 68.1133 23.8382C68.229 23.9155 68.3651 23.9569 68.5044 23.957L68.506 23.9537Z" fill="#FFE064"/>
<path id="Vector_47" d="M62.6996 21.6944C62.6996 21.9496 62.7853 22.1915 62.934 22.3425C62.979 22.3909 63.0333 22.4297 63.0936 22.4566C63.154 22.4835 63.2192 22.498 63.2853 22.4993C63.5696 22.4993 63.8031 22.2392 63.864 21.8804H64.6141C64.6346 22.0888 64.7244 22.2844 64.8692 22.4361C64.9335 22.5031 65.0106 22.5568 65.0958 22.594C65.181 22.6311 65.2728 22.6512 65.3658 22.6528H65.3695C65.7894 22.6528 66.133 22.2567 66.1367 21.7682C66.1419 21.517 66.0476 21.2739 65.8743 21.0917C65.8101 21.0245 65.7331 20.9708 65.6478 20.9336C65.5625 20.8964 65.4707 20.8764 65.3776 20.875H65.374C64.989 20.875 64.6689 21.2084 64.6157 21.6406H63.8802C63.8689 21.4085 63.7848 21.1926 63.6479 21.0544C63.6029 21.0061 63.5486 20.9673 63.4883 20.9404C63.4279 20.9135 63.3628 20.8989 63.2966 20.8977C62.964 20.8965 62.7029 21.2464 62.6996 21.6944ZM64.8472 21.7601C64.8497 21.4032 65.0856 21.112 65.3752 21.112H65.3776C65.4387 21.1135 65.499 21.1271 65.5547 21.1521C65.6105 21.177 65.6608 21.2128 65.7025 21.2574C65.8311 21.3943 65.9003 21.5762 65.895 21.7637C65.8926 22.1214 65.6546 22.4142 65.3671 22.4098C65.3059 22.4084 65.2457 22.3949 65.1899 22.37C65.1341 22.3451 65.0839 22.3093 65.0422 22.2648C64.9135 22.1284 64.8435 21.9473 64.8472 21.7601ZM62.9384 21.6961C62.9384 21.3923 63.1009 21.1363 63.293 21.1363C63.3623 21.1399 63.4273 21.1706 63.4741 21.2217C63.5789 21.3275 63.6406 21.5053 63.639 21.6985C63.639 22.0023 63.4766 22.2583 63.2849 22.2583C63.2154 22.2548 63.1501 22.2241 63.1033 22.1728C63.0002 22.0671 62.9384 21.8889 62.9401 21.6961H62.9384Z" fill="white"/>
<path id="Vector_48" d="M61.5966 46.6801C61.4557 46.4172 61.651 46.3285 61.7497 46.2123C61.3115 46.3451 60.9245 46.3103 60.8485 46.1159C60.8006 45.9943 60.8891 45.8356 61.0617 45.6853C60.5935 45.8473 60.1683 45.8177 60.087 45.6128C60.0383 45.4876 60.1321 45.3244 60.3128 45.1709C60.3128 45.1709 59.9311 45.3045 59.663 44.8845C59.2602 44.251 61.8866 43.1293 62.1144 42.6566C62.4799 41.898 60.4282 41.1579 60.697 40.5933C60.9659 40.0286 64.2843 40.8509 65.0263 41.1842C65.7683 41.5176 66.297 42.0778 66.297 42.0778L66.0907 45.2847C66.0907 45.2847 61.9621 47.3635 61.5966 46.6801Z" fill="#EB8B76"/>
<path id="Vector_49" d="M62.0149 40.5789C62.0149 40.5671 62.0149 40.5598 62.0149 40.5586C62.0154 40.5487 62.0139 40.5388 62.0106 40.5294C62.0072 40.5201 62.002 40.5115 61.9953 40.5041C61.9885 40.4968 61.9804 40.4908 61.9714 40.4866C61.9624 40.4824 61.9526 40.48 61.9426 40.4796C61.9223 40.4784 61.9024 40.4853 61.8872 40.4987C61.8719 40.5122 61.8627 40.5311 61.8614 40.5513C61.8571 40.5886 61.8449 40.6246 61.8256 40.6568C61.8063 40.689 61.7803 40.7167 61.7493 40.7381C61.6275 40.8243 61.4163 40.8292 61.1401 40.7514C61.1207 40.7461 61.1 40.7486 61.0825 40.7585C61.065 40.7684 61.0521 40.7848 61.0467 40.8041C61.044 40.8136 61.0431 40.8236 61.0443 40.8334C61.0454 40.8433 61.0485 40.8528 61.0534 40.8614C61.0583 40.8701 61.0648 40.8777 61.0727 40.8837C61.0805 40.8898 61.0895 40.8943 61.0991 40.8968C61.4281 40.9892 61.6774 40.9779 61.8403 40.8592C61.8867 40.8265 61.9261 40.7848 61.9561 40.7367C61.9861 40.6885 62.0061 40.6349 62.0149 40.5789Z" fill="#803B34"/>
<path id="Vector_50" d="M63.0952 45.5516C63.097 45.5379 63.0951 45.5239 63.0895 45.5112C63.0839 45.4986 63.075 45.4876 63.0637 45.4797C63.0523 45.4717 63.039 45.467 63.0252 45.466C63.0113 45.465 62.9975 45.4679 62.9851 45.4742L61.863 46.0559C61.8536 46.0602 61.8452 46.0663 61.8383 46.0739C61.8314 46.0816 61.8261 46.0905 61.8228 46.1002C61.8194 46.11 61.8181 46.1203 61.8189 46.1305C61.8197 46.1408 61.8225 46.1508 61.8273 46.1599C61.8321 46.169 61.8387 46.177 61.8467 46.1835C61.8546 46.19 61.8639 46.1948 61.8738 46.1976C61.8837 46.2004 61.8941 46.2012 61.9043 46.1999C61.9146 46.1986 61.9244 46.1952 61.9333 46.19L63.055 45.6083C63.0657 45.6027 63.075 45.5947 63.0819 45.5848C63.0889 45.5749 63.0935 45.5636 63.0952 45.5516Z" fill="#803B34"/>
<path id="Vector_51" d="M62.3828 45.0364C62.3853 45.0209 62.3826 45.0049 62.3751 44.9911C62.3706 44.9822 62.3643 44.9744 62.3567 44.968C62.3492 44.9616 62.3404 44.9568 62.3309 44.9538C62.3214 44.9507 62.3115 44.9496 62.3016 44.9505C62.2917 44.9513 62.282 44.9541 62.2732 44.9587L61.1511 45.5403C61.1347 45.5504 61.1228 45.5662 61.1177 45.5846C61.1126 45.6031 61.1146 45.6228 61.1235 45.6398C61.1323 45.6567 61.1473 45.6698 61.1654 45.6762C61.1835 45.6826 61.2033 45.682 61.2209 45.6744L62.343 45.0927C62.3537 45.0871 62.3628 45.0791 62.3697 45.0693C62.3767 45.0596 62.3811 45.0483 62.3828 45.0364Z" fill="#803B34"/>
<path id="Vector_52" d="M61.5852 44.5586C61.5875 44.543 61.5848 44.5272 61.5775 44.5132C61.5682 44.4955 61.5522 44.4821 61.533 44.4761C61.5138 44.4701 61.493 44.472 61.4752 44.4812L60.3535 45.0629C60.3371 45.0729 60.3252 45.0888 60.3201 45.1072C60.315 45.1256 60.317 45.1453 60.3259 45.1623C60.3347 45.1793 60.3497 45.1923 60.3678 45.1988C60.3859 45.2052 60.4057 45.2045 60.4233 45.197L61.5454 44.6153C61.5561 44.6097 61.5653 44.6016 61.5722 44.5917C61.5791 44.5819 61.5836 44.5705 61.5852 44.5586Z" fill="#803B34"/>
<path id="Vector_53" d="M36.5486 52.7231C36.5486 52.7231 36.4198 53.6806 36.5701 54.1594C36.7204 54.6382 39.6501 57.3282 39.413 57.8455C39.0292 58.6811 37.5882 57.3643 37.3417 57.5032C37.0952 57.6421 37.7694 60.192 37.481 60.7785C37.1687 61.4121 36.6972 60.6833 36.6972 60.6833C36.6972 60.6833 36.6343 61.5267 36.2127 61.5923C35.7201 61.6689 35.5568 60.8028 35.5568 60.8028C35.5568 60.8028 35.5471 61.3294 35.1312 61.389C34.5139 61.4744 34.522 59.8789 34.522 59.8789C34.522 59.8789 34.4042 60.5242 33.9364 60.5148C32.716 60.4909 32.9771 52.3662 32.9771 52.3662L36.5486 52.7231Z" fill="#D67254"/>
<path id="Vector_54" d="M34.4587 59.8929C34.4583 59.89 34.4583 59.8872 34.4587 59.8844L34.3259 58.2771C34.3245 58.2681 34.3249 58.259 34.3272 58.2503C34.3295 58.2415 34.3335 58.2333 34.3392 58.2262C34.3448 58.2191 34.3518 58.2132 34.3598 58.209C34.3677 58.2047 34.3765 58.2021 34.3856 58.2014C34.3946 58.2007 34.4037 58.2018 34.4123 58.2047C34.4208 58.2077 34.4287 58.2124 34.4354 58.2185C34.4421 58.2246 34.4474 58.232 34.4511 58.2403C34.4547 58.2486 34.4566 58.2575 34.4567 58.2665L34.5895 59.8738C34.5902 59.8901 34.5849 59.9061 34.5746 59.9187C34.5642 59.9312 34.5495 59.9395 34.5333 59.9419C34.5172 59.9443 34.5007 59.9406 34.4871 59.9315C34.4736 59.9224 34.4639 59.9087 34.4599 59.8929H34.4587Z" fill="#803B34"/>
<path id="Vector_55" d="M35.4927 60.816C35.4923 60.8131 35.4923 60.8101 35.4927 60.8071L35.3176 58.4428C35.3165 58.4254 35.3223 58.4083 35.3337 58.3951C35.3451 58.3819 35.3612 58.3737 35.3786 58.3723C35.3872 58.3716 35.3959 58.3726 35.4041 58.3753C35.4124 58.378 35.42 58.3823 35.4265 58.3879C35.4331 58.3936 35.4384 58.4005 35.4422 58.4082C35.4461 58.416 35.4483 58.4244 35.4488 58.4331L35.6235 60.7978C35.6259 60.8149 35.6214 60.8323 35.6109 60.8462C35.6005 60.86 35.585 60.8691 35.5678 60.8715C35.5506 60.8739 35.5332 60.8695 35.5193 60.859C35.5055 60.8486 35.4963 60.8332 35.4939 60.816H35.4927Z" fill="#803B34"/>
<path id="Vector_56" d="M36.6452 60.7297C36.645 60.7268 36.645 60.724 36.6452 60.7212L36.4714 58.6148C36.47 58.5975 36.4756 58.5803 36.4869 58.567C36.4982 58.5538 36.5143 58.5456 36.5317 58.5442C36.5491 58.5428 36.5663 58.5483 36.5796 58.5596C36.5929 58.5709 36.6012 58.587 36.6026 58.6043L36.7764 60.7106C36.7772 60.7269 36.7719 60.7429 36.7615 60.7555C36.7511 60.7681 36.7364 60.7763 36.7203 60.7787C36.7041 60.7811 36.6877 60.7774 36.6741 60.7683C36.6605 60.7593 36.6508 60.7455 36.6468 60.7297H36.6452Z" fill="#803B34"/>
<path id="Vector_57" d="M37.6597 38.292L36.4621 55.4095H32.9304L30.7516 38.292H37.6597Z" fill="#D67254"/>
<path id="Vector_58" d="M35.9089 70.0001H13.4215C13.1982 63.1687 13.216 54.6936 13.919 51.8586C14.6066 49.0774 15.6528 47.1287 16.6567 45.7928C18.139 43.8193 19.5268 43.1846 19.5268 43.1846H32.0431L35.9089 70.0001Z" fill="#217074"/>
<path id="Vector_59" d="M27.3044 54.4154L26.8041 69.5704C26.8028 69.6058 26.7878 69.6394 26.7622 69.6641C26.7366 69.6887 26.7024 69.7025 26.6668 69.7024C26.6485 69.7024 26.6303 69.6987 26.6135 69.6915C26.5966 69.6844 26.5813 69.6739 26.5686 69.6608C26.5558 69.6476 26.5458 69.6321 26.5392 69.615C26.5326 69.598 26.5294 69.5798 26.53 69.5615L27.0295 54.4069C27.0313 54.3708 27.0471 54.3368 27.0735 54.3121C27.1 54.2874 27.135 54.2739 27.1712 54.2744C27.2076 54.2757 27.2419 54.2912 27.2669 54.3176C27.2918 54.344 27.3053 54.3791 27.3044 54.4154Z" fill="white"/>
<path id="Vector_60" d="M33.6269 46.0038H14.0709V42.2942L19.5182 35.8132L15.1979 27.6804C15.1979 27.6804 18.5033 25.0609 27.86 26.2975C37.2167 27.5342 38.6803 38.2468 38.6803 38.2468L33.4958 38.4717L33.6269 46.0038Z" fill="#429997"/>
<path id="Vector_61" d="M15.4635 28.1807C15.4635 28.1807 6.91504 31.1635 6.91382 36.1507C6.91098 47.1769 24.4583 43.3458 24.4583 43.3458C24.4583 43.3458 29.7379 42.9877 28.2149 41.3577C26.692 39.7278 19.5182 35.8116 19.5182 35.8116L15.4635 28.1807Z" fill="#EA8964"/>
<path id="Vector_62" d="M19.5183 35.9521C19.4926 35.9522 19.4675 35.9452 19.4456 35.9319L15.9257 33.796C15.9099 33.7864 15.8962 33.7738 15.8853 33.759C15.8744 33.7441 15.8666 33.7273 15.8622 33.7094C15.8579 33.6915 15.8571 33.6729 15.8599 33.6547C15.8628 33.6365 15.8692 33.6191 15.8788 33.6034C15.8884 33.5877 15.901 33.574 15.9159 33.5631C15.9308 33.5523 15.9477 33.5444 15.9656 33.5401C15.9836 33.5357 16.0022 33.535 16.0204 33.5378C16.0386 33.5406 16.0561 33.547 16.0719 33.5566L19.5914 35.6925C19.6174 35.7084 19.6376 35.7324 19.6488 35.7608C19.6599 35.7892 19.6615 35.8205 19.6532 35.8499C19.6449 35.8792 19.6273 35.9051 19.6029 35.9236C19.5786 35.942 19.5488 35.9521 19.5183 35.9521Z" fill="white"/>
<path id="Vector_63" d="M33.4942 38.6127C33.4569 38.6127 33.4211 38.5979 33.3948 38.5717C33.3684 38.5454 33.3536 38.5097 33.3536 38.4726V36.062C33.3536 36.0249 33.3684 35.9892 33.3948 35.9629C33.4211 35.9366 33.4569 35.9219 33.4942 35.9219C33.5314 35.9219 33.5672 35.9366 33.5935 35.9629C33.6199 35.9892 33.6347 36.0249 33.6347 36.062V38.4726C33.6347 38.5097 33.6199 38.5454 33.5935 38.5717C33.5672 38.5979 33.5314 38.6127 33.4942 38.6127Z" fill="white"/>
<path id="Vector_64" d="M28.0156 23.7526L28.8968 24.4724C28.8968 24.4724 29.4 29.1914 27.064 29.2453C24.1773 29.3113 22.8204 25.9643 22.8204 25.9643L23.4418 25.9683L23.4219 22.1826L28.0156 23.7526Z" fill="#E88764"/>
<path id="Vector_65" opacity="0.52" d="M28.9431 24.7112C27.7735 26.5664 25.2754 25.7522 24.1615 23.3964C23.0475 21.0406 28.9431 24.7112 28.9431 24.7112Z" fill="#853A34"/>
<path id="Vector_66" d="M24.4015 17.6855C23.1145 19.3612 23.4873 22.5891 25.1824 23.8829C26.8776 25.1767 28.3096 25.7267 29.5986 24.051C30.8876 22.3753 30.4754 18.0828 28.7803 16.7878C27.0851 15.4929 25.6885 16.0097 24.4015 17.6855Z" fill="#E88764"/>
<path id="Vector_67" d="M30.1477 19.3183C30.9498 17.8957 31.7462 16.1402 30.2574 15.0352C28.7685 13.9301 27.676 15.3944 27.676 15.3944C27.676 15.3944 28.098 14.972 27.3723 14.353C26.6465 13.7341 24.9924 15.3803 24.9924 15.3803C24.9924 15.3803 24.4063 13.4797 22.9756 15.2993C21.5448 17.1188 21.414 18.7698 21.9034 20.5845C22.3928 22.3992 23.787 23.5637 24.1615 23.394C25.3579 22.8508 23.8593 20.1478 24.6175 19.8388C25.3758 19.5297 25.9882 19.155 26.4857 18.2088C26.9832 17.2626 27.4226 16.8199 28.498 17.026C29.5734 17.2322 30.1477 19.3183 30.1477 19.3183Z" fill="#2F282E"/>
<path id="Vector_68" d="M24.5821 21.6421C24.9755 21.5526 25.1716 20.9433 25.0202 20.2811C24.8688 19.6189 24.4271 19.1547 24.0337 19.2442C23.6403 19.3337 23.4441 19.943 23.5956 20.6052C23.747 21.2674 24.1887 21.7316 24.5821 21.6421Z" fill="#E88764"/>
<path id="Vector_69" d="M24.1237 20.3097C24.1817 20.1667 24.3515 20.0938 24.5355 20.1185C24.463 19.9184 24.3199 19.7513 24.133 19.6487C24.1241 19.6433 24.1164 19.6363 24.1103 19.628C24.1042 19.6198 24.0997 19.6103 24.0972 19.6003C24.0947 19.5903 24.0942 19.5799 24.0958 19.5697C24.0973 19.5595 24.1009 19.5498 24.1062 19.5409C24.1115 19.5321 24.1186 19.5244 24.1269 19.5183C24.1352 19.5122 24.1446 19.5077 24.1547 19.5052C24.1647 19.5028 24.1751 19.5023 24.1853 19.5038C24.1956 19.5053 24.2054 19.5089 24.2142 19.5142C24.6439 19.769 24.8141 20.1829 24.7328 20.7796C24.7309 20.7938 24.7251 20.8072 24.716 20.8183C24.7069 20.8294 24.6949 20.8377 24.6813 20.8424C24.6696 20.8467 24.657 20.8479 24.6447 20.846C24.6345 20.8447 24.6247 20.8413 24.6158 20.8362C24.6069 20.831 24.5992 20.8242 24.593 20.816C24.5868 20.8078 24.5823 20.7985 24.5797 20.7885C24.5772 20.7786 24.5766 20.7683 24.5781 20.7581C24.6022 20.6018 24.6022 20.4426 24.5781 20.2862C24.4307 20.2413 24.2999 20.2895 24.2682 20.3672C24.2591 20.3841 24.244 20.3969 24.226 20.4034C24.208 20.4099 24.1882 20.4096 24.1704 20.4025C24.1525 20.3954 24.138 20.382 24.1293 20.365C24.1207 20.3479 24.1187 20.3282 24.1237 20.3097Z" fill="#803B34"/>
<path id="Vector_70" d="M27.1525 20.1897C27.1249 20.3922 27.2065 20.5717 27.3353 20.5895C27.464 20.6073 27.5903 20.4562 27.6196 20.2533C27.6488 20.0504 27.5656 19.8713 27.4368 19.8539C27.3081 19.8365 27.1801 19.9868 27.1525 20.1897Z" fill="#2F282E"/>
<path id="Vector_71" d="M29.4687 20.1642C29.4403 20.3716 29.5239 20.5547 29.6551 20.5725C29.7863 20.5904 29.9162 20.4364 29.9447 20.229C29.9731 20.0217 29.8894 19.8386 29.7578 19.8207C29.6263 19.8029 29.4971 19.9568 29.4687 20.1642Z" fill="#2F282E"/>
<path id="Vector_72" d="M28.803 21.8798C28.8188 21.8802 28.8343 21.8756 28.8473 21.8668L29.5678 21.3831L29.4719 21.3212C29.4679 21.3187 29.0658 21.0526 28.959 20.4215C28.9087 20.106 28.9652 19.7828 29.1196 19.503C29.2741 19.2231 29.5177 19.0026 29.8118 18.8762C29.8297 18.868 29.8437 18.8532 29.8508 18.8349C29.8578 18.8166 29.8575 18.7962 29.8498 18.7782C29.842 18.7601 29.8276 18.7458 29.8094 18.7382C29.7912 18.7307 29.7708 18.7305 29.7525 18.7377C29.4269 18.8772 29.1573 19.1211 28.9864 19.4307C28.8154 19.7404 28.7529 20.098 28.8087 20.447C28.8972 20.9643 29.1616 21.2572 29.3013 21.3787L28.7616 21.7404C28.7533 21.746 28.7463 21.7531 28.7408 21.7613C28.7353 21.7696 28.7315 21.7789 28.7296 21.7887C28.7277 21.7984 28.7278 21.8084 28.7298 21.8182C28.7318 21.8279 28.7357 21.8371 28.7413 21.8453C28.7481 21.8556 28.7572 21.8641 28.768 21.8701C28.7787 21.876 28.7907 21.8794 28.803 21.8798Z" fill="#2F282E"/>
<path id="Vector_73" d="M27.7381 18.9025C27.7506 18.8915 27.7597 18.8771 27.7644 18.8611C27.7691 18.8452 27.7691 18.8282 27.7645 18.8122C27.7599 18.7962 27.7509 18.7818 27.7385 18.7707C27.7261 18.7596 27.7107 18.7522 27.6943 18.7494C27.3873 18.698 27.0112 18.8272 26.7232 19.0941C26.4771 19.3209 26.3492 19.6045 26.3728 19.8722C26.3738 19.8837 26.377 19.8949 26.3824 19.9052C26.3878 19.9155 26.3951 19.9246 26.404 19.932C26.4128 19.9394 26.4231 19.945 26.4342 19.9485C26.4452 19.952 26.4569 19.9532 26.4684 19.9522C26.4799 19.9512 26.4912 19.9479 26.5015 19.9426C26.5117 19.9373 26.5209 19.93 26.5283 19.9211C26.5358 19.9122 26.5414 19.902 26.5449 19.891C26.5484 19.88 26.5496 19.8684 26.5486 19.8568C26.5303 19.6438 26.6375 19.4113 26.8435 19.2233C26.85 19.2172 26.8565 19.2112 26.8634 19.2055C27.1017 18.9953 27.421 18.8814 27.665 18.922C27.6779 18.9243 27.6911 18.9238 27.7038 18.9204C27.7164 18.917 27.7282 18.9109 27.7381 18.9025Z" fill="#2F282E"/>
<g id="Group_2" opacity="0.33">
<path id="Vector_74" opacity="0.6" d="M27.2579 21.9181C27.3884 21.5281 27.0239 21.0553 26.4438 20.8622C25.8636 20.669 25.2874 20.8286 25.1569 21.2186C25.0264 21.6086 25.3909 22.0814 25.971 22.2746C26.5512 22.4677 27.1274 22.3082 27.2579 21.9181Z" fill="#803B34"/>
</g>
<path id="Vector_75" d="M26.8212 22.6064L28.7129 22.9807C28.6364 23.144 28.5175 23.2839 28.3685 23.3859C28.2196 23.4878 28.046 23.5482 27.8657 23.5608C27.2301 23.6146 26.8212 22.6064 26.8212 22.6064Z" fill="white"/>
<path id="Vector_76" d="M28.7705 45.7423C28.9845 45.5507 28.8371 45.4065 28.786 45.2692C29.1385 45.5329 29.4999 45.6276 29.6323 45.477C29.7156 45.3826 29.6875 45.21 29.5811 45.018C29.9515 45.3162 30.3463 45.4304 30.486 45.2712C30.5713 45.1744 30.5404 44.9962 30.4271 44.7985C30.4271 44.7985 31.7815 46.3199 32.1783 46.0513C33.1436 45.3976 29.675 42.4386 29.625 41.9359C29.5438 41.1307 31.6418 41.1315 31.5837 40.5344C31.5257 39.9373 28.2576 39.5942 27.4774 39.653C26.6973 39.7117 26.0353 40.0451 26.0353 40.0451L25.1682 43.0105C25.1682 43.0105 28.2158 46.2401 28.7705 45.7423Z" fill="#EA8964"/>
<path id="Vector_77" d="M30.3975 40.0917C30.3999 40.0807 30.4019 40.0739 30.4023 40.0726C30.4051 40.0635 30.4097 40.055 30.4158 40.0477C30.4219 40.0403 30.4293 40.0342 30.4378 40.0298C30.4463 40.0253 30.4555 40.0226 30.4651 40.0218C30.4746 40.0209 30.4842 40.022 30.4933 40.0248C30.5116 40.0307 30.5269 40.0435 30.5359 40.0604C30.5449 40.0774 30.547 40.0972 30.5416 40.1156C30.5333 40.1508 30.5326 40.1874 30.5396 40.2228C30.5466 40.2583 30.5611 40.2919 30.5822 40.3213C30.6635 40.4392 30.8531 40.5121 31.1285 40.5324C31.1478 40.5339 31.1657 40.543 31.1783 40.5577C31.1909 40.5723 31.1972 40.5913 31.1959 40.6106C31.1952 40.6201 31.1927 40.6294 31.1884 40.6379C31.1841 40.6464 31.1781 40.654 31.1709 40.6602C31.1636 40.6664 31.1552 40.6711 31.1461 40.6741C31.137 40.677 31.1274 40.6782 31.1179 40.6774C30.7906 40.6531 30.5692 40.5599 30.4604 40.4007C30.4297 40.356 30.4083 40.3057 30.3975 40.2526C30.3867 40.1995 30.3867 40.1448 30.3975 40.0917Z" fill="#803B34"/>
<path id="Vector_78" d="M27.7877 44.2324C27.7904 44.2169 27.7981 44.2027 27.8097 44.1919C27.8167 44.1855 27.8249 44.1805 27.8339 44.1772C27.8429 44.174 27.8524 44.1725 27.862 44.1729C27.8715 44.1733 27.8809 44.1756 27.8895 44.1796C27.8982 44.1837 27.906 44.1894 27.9124 44.1964L28.7352 45.0875C28.7483 45.1017 28.7552 45.1205 28.7544 45.1397C28.7536 45.159 28.7452 45.1772 28.731 45.1902C28.7167 45.2033 28.6979 45.2101 28.6786 45.2093C28.6593 45.2085 28.6411 45.2001 28.628 45.186L27.8052 44.2948C27.7978 44.2864 27.7923 44.2764 27.7893 44.2656C27.7863 44.2548 27.7857 44.2435 27.7877 44.2324Z" fill="#803B34"/>
<path id="Vector_79" d="M28.6003 44C28.6029 43.9845 28.6106 43.9702 28.6223 43.9595C28.6365 43.9466 28.6552 43.9397 28.6745 43.9405C28.6937 43.9412 28.7119 43.9495 28.725 43.9636L29.5478 44.8547C29.5609 44.8689 29.5678 44.8877 29.567 44.9069C29.5662 44.9262 29.5578 44.9443 29.5436 44.9574C29.5293 44.9705 29.5105 44.9773 29.4912 44.9765C29.4719 44.9757 29.4537 44.9673 29.4406 44.9531L28.6178 44.062C28.6102 44.0538 28.6047 44.0439 28.6017 44.0331C28.5986 44.0223 28.5982 44.011 28.6003 44Z" fill="#803B34"/>
<path id="Vector_80" d="M29.478 43.8281C29.4809 43.8126 29.4887 43.7984 29.5003 43.7876C29.5074 43.7812 29.5156 43.7762 29.5246 43.7729C29.5336 43.7697 29.5431 43.7682 29.5526 43.7686C29.5622 43.769 29.5715 43.7713 29.5802 43.7753C29.5888 43.7794 29.5966 43.7851 29.6031 43.7921L30.4255 44.6832C30.4386 44.6974 30.4455 44.7162 30.4447 44.7354C30.4439 44.7547 30.4354 44.7729 30.4212 44.7859C30.407 44.799 30.3882 44.8058 30.3689 44.805C30.3495 44.8042 30.3313 44.7958 30.3183 44.7817L29.4959 43.8905C29.4882 43.8822 29.4826 43.8723 29.4795 43.8614C29.4764 43.8506 29.4759 43.8392 29.478 43.8281Z" fill="#803B34"/>
<path id="Vector_81" d="M42.5873 35.3599L42.2278 33.6396L47.0315 33.8422L46.4588 36.4751C46.4588 36.4751 49.1754 38.0119 49.8735 40.8129C51.2027 46.1488 48.8692 49.2244 48.8692 49.2244L40.066 46.6855C40.066 46.6855 37.4859 45.5541 38.5317 41.7818C39.5775 38.0095 42.5873 35.3599 42.5873 35.3599Z" fill="#0F5656"/>
<path id="Vector_82" d="M48.9081 37.3467L53.6443 39.758L52.4942 41.1846C52.4942 41.1846 54.357 44.8055 53.2089 46.896C52.0608 48.9865 46.0827 46.5776 46.0827 46.5776L46.6046 41.1838L48.5511 39.6102L48.9081 37.3467Z" fill="#0F5656"/>
<path id="Vector_83" d="M38.9317 38.0146L34.431 40.8391L35.7046 42.1572C35.7046 42.1572 34.1744 45.9304 35.5056 47.9119C36.8369 49.8935 42.5746 46.958 42.5746 46.958L41.5707 41.6327L39.4905 40.2392L38.9317 38.0146Z" fill="#217074"/>
<path id="Vector_84" d="M43.6716 41.6483L38.4505 40.9629L39.2026 43.8712C39.2026 43.8712 35.0967 47.7461 35.3258 50.4413C35.5548 53.1366 38.128 53.2278 38.128 53.2278H44.9984L43.6716 41.6483Z" fill="#0F5656"/>
<path id="Vector_85" d="M43.7434 41.6075L42.919 40.0541L47.5894 38.9199L47.7726 41.6075C47.7726 41.6075 50.8104 42.3314 52.2606 44.8286C55.0223 49.586 53.6386 53.187 53.6386 53.187H44.4761C44.4761 53.187 41.6824 52.8156 41.6365 48.9015C41.5906 44.9873 43.7434 41.6075 43.7434 41.6075Z" fill="#217074"/>
<path id="Vector_86" d="M55.9743 45.2607H33.3995V47.0953H55.9743V45.2607Z" fill="#8C9E75"/>
<path id="Vector_87" d="M55.0268 47.0947H34.3474L36.484 69.9998H52.8902L55.0268 47.0947Z" fill="#AEC09A"/>
<path id="Vector_88" d="M36.7094 10.8396L36.5551 10.1016L38.6153 10.1895L38.3696 11.3184C38.3696 11.3184 39.5348 11.9774 39.8337 13.1788C40.4023 15.4666 39.4032 16.7839 39.4032 16.7839L35.6263 15.6951C35.6263 15.6951 34.5196 15.209 34.9684 13.5924C35.4171 11.9758 36.7094 10.8396 36.7094 10.8396Z" fill="#DEEACE"/>
<path id="Vector_89" d="M39.4199 11.6914L41.4505 12.7251L40.9575 13.3372C40.9575 13.3372 41.7563 14.8898 41.2641 15.787C40.7719 16.6842 38.208 15.6505 38.208 15.6505L38.4318 13.3376L39.2664 12.6627L39.4199 11.6914Z" fill="#DEEACE"/>
<path id="Vector_90" d="M35.1418 11.9785L33.2119 13.1897L33.7577 13.7567C33.7577 13.7567 33.1019 15.3746 33.6725 16.2244C34.2431 17.0742 36.7038 15.8153 36.7038 15.8153L36.2733 13.5295L35.3798 12.932L35.1418 11.9785Z" fill="#DEEACE"/>
<path id="Vector_91" d="M37.1744 13.5359L34.9355 13.2422L35.2579 14.4894C35.2579 14.4894 33.497 16.1501 33.5953 17.3066C33.6936 18.463 34.7978 18.5015 34.7978 18.5015H37.7438L37.1744 13.5359Z" fill="#DEEACE"/>
<path id="Vector_92" d="M37.2053 13.5192L36.8516 12.8533L38.855 12.3672L38.9334 13.52C38.9334 13.52 40.2362 13.8303 40.8584 14.9013C42.043 16.9416 41.4489 18.4857 41.4489 18.4857H37.5192C37.5192 18.4857 36.3212 18.3265 36.3009 16.6479C36.2806 14.9693 37.2053 13.5192 37.2053 13.5192Z" fill="#DEEACE"/>
<path id="Vector_93" d="M42.45 15.085H32.7692V15.8716H42.45V15.085Z" fill="white"/>
<path id="Vector_94" d="M42.0438 15.8721H33.1757L34.0919 25.6944H41.1276L42.0438 15.8721Z" fill="#DEEACE"/>
<path id="Vector_95" d="M40.4092 53.3208L43.2195 55.0877L44.481 52.7136C44.5485 52.5872 44.5648 52.4397 44.5264 52.3016C44.2848 51.4417 43.5449 50.8892 42.6644 50.9649C41.708 51.0459 41.4009 51.6831 41.4009 51.6831L40.4092 53.3208Z" fill="#CEDDBA"/>
<path id="Vector_96" d="M43.3044 50.9339C44.0761 51.1697 44.3673 51.7271 44.4619 51.8919C44.5565 52.0568 45.863 54.4596 45.863 54.4596L44.7766 55.0721L48.1539 55.0761L49.6066 52.3083L48.8037 52.8604L47.7072 51.1527C47.4359 50.876 47.0225 50.9052 47.0225 50.9052L43.3044 50.9339Z" fill="white"/>
<path id="Vector_97" d="M49.9124 54.9824L47.087 56.7242L48.6709 58.8965C48.7552 59.0126 48.881 59.0919 49.0222 59.1181C49.9023 59.2801 50.7251 58.8581 51.0431 58.0358C51.3887 57.1446 50.9501 56.5881 50.9501 56.5881L49.9124 54.9824Z" fill="#CEDDBA"/>
<path id="Vector_98" d="M50.7929 58.6265C50.2422 59.2146 49.6119 59.2308 49.4223 59.2434C49.2326 59.256 46.4937 59.3722 46.4937 59.3722L46.419 58.1299L44.933 61.1549L46.7894 63.6715L46.6432 62.7087L48.6636 62.4742C49.032 62.3527 49.1871 61.9687 49.1871 61.9687L50.7929 58.6265Z" fill="white"/>
<path id="Vector_99" d="M43.3581 62.7416L43.6082 59.4375H40.9144C40.7708 59.437 40.6325 59.4917 40.5282 59.5902C39.8784 60.2051 39.7363 61.1161 40.2155 61.8586C40.7361 62.663 41.4432 62.6363 41.4432 62.6363L43.3581 62.7416Z" fill="#CEDDBA"/>
<path id="Vector_100" d="M39.8873 61.3046C39.735 60.5144 40.0924 59.9967 40.1944 59.8363C40.2963 59.6759 41.8136 57.3994 41.8136 57.3994L42.8646 58.0706L41.2876 55.0918L38.1556 55.1068L39.0219 55.5556L38.0224 57.3229C37.9042 57.6919 38.1239 58.0423 38.1239 58.0423L39.8873 61.3046Z" fill="white"/>
<path id="Vector_101" d="M47.9907 12.6109C47.9907 13.4328 47.4972 13.925 46.7622 13.925C46.0271 13.925 45.5844 13.366 45.5844 12.6515C45.5844 11.9037 46.0669 11.3447 46.8028 11.3447C47.5716 11.3447 47.9907 11.9183 47.9907 12.6109ZM46.183 12.6405C46.183 13.1327 46.4133 13.477 46.7922 13.477C47.1711 13.477 47.3937 13.1144 47.3937 12.6292C47.3937 12.1775 47.1821 11.7927 46.7922 11.7927C46.4023 11.7927 46.183 12.1553 46.183 12.6405Z" fill="#394C60"/>
<path id="Vector_102" d="M48.3615 11.4231C48.611 11.3866 48.863 11.3693 49.1152 11.3712C49.4864 11.3712 49.7459 11.4267 49.9242 11.5673C50.0765 11.686 50.1581 11.8634 50.1581 12.0939C50.1581 12.4086 49.9315 12.6269 49.7163 12.7047V12.716C49.8909 12.7861 49.9872 12.949 50.0505 13.1786C50.1285 13.4622 50.2024 13.7895 50.2507 13.8859H49.672C49.6346 13.8117 49.5717 13.6116 49.501 13.3046C49.4308 12.9899 49.3227 12.9084 49.0888 12.9048H48.9219V13.8859H48.3615V11.4231ZM48.9219 12.4965H49.1449C49.4267 12.4965 49.594 12.3559 49.594 12.1376C49.594 11.9116 49.4381 11.7933 49.1782 11.7933C49.0923 11.7898 49.0064 11.7959 48.9219 11.8115V12.4965Z" fill="#394C60"/>
<path id="Vector_103" d="M52.6371 13.7694C52.3676 13.8585 52.086 13.906 51.8021 13.9103C51.3453 13.9103 51.0151 13.7953 50.7868 13.5769C50.5586 13.3586 50.4343 13.0329 50.4343 12.6664C50.438 11.8372 51.0435 11.3633 51.8635 11.3633C52.1884 11.3633 52.4349 11.4261 52.5575 11.4816L52.4389 11.9368C52.3013 11.8741 52.1344 11.8295 51.8598 11.8295C51.3883 11.8295 51.0281 12.0924 51.0281 12.6364C51.0281 13.1549 51.353 13.455 51.8188 13.455C51.9117 13.4587 52.0045 13.4473 52.0937 13.4214V12.8948H51.7075V12.4553H52.6392L52.6371 13.7694Z" fill="#394C60"/>
<path id="Vector_104" d="M53.6609 13.246L53.4831 13.8868H52.9003L53.6609 11.3916H54.4033L55.1831 13.8868H54.5707L54.3773 13.246H53.6609ZM54.2957 12.8239L54.1402 12.2949C54.0955 12.1466 54.0508 11.9615 54.0139 11.8133H54.0066C53.9692 11.9615 53.9322 12.1503 53.8912 12.2949L53.743 12.8239H54.2957Z" fill="#394C60"/>
<path id="Vector_105" d="M55.5129 13.8839V11.3887H56.1736L56.6947 12.3029C56.847 12.5796 56.9827 12.8651 57.1008 13.158H57.1081C57.0757 12.811 57.0609 12.4626 57.0639 12.1141V11.3887H57.5833V13.8839H56.9895L56.4559 12.921C56.2941 12.636 56.149 12.3418 56.0213 12.04H56.0067C56.025 12.3734 56.0327 12.725 56.0327 13.1337V13.8855L55.5129 13.8839Z" fill="#394C60"/>
<path id="Vector_106" d="M58.6412 11.3887V13.8839H58.0755V11.3887H58.6412Z" fill="#394C60"/>
<path id="Vector_107" d="M60.9651 13.8172C60.8648 13.8654 60.6272 13.9245 60.3263 13.9245C59.4616 13.9245 59.0161 13.3842 59.0161 12.6733C59.0161 11.8227 59.6253 11.3516 60.3819 11.3516C60.6755 11.3516 60.8981 11.4071 60.9984 11.4625L60.8778 11.9085C60.7274 11.8456 60.5657 11.8142 60.4026 11.8162C59.9559 11.8162 59.6082 12.0863 59.6082 12.6417C59.6082 13.1415 59.9055 13.4563 60.4067 13.4563C60.5685 13.458 60.7294 13.4306 60.8814 13.3753L60.9651 13.8172Z" fill="#394C60"/>
<path id="Vector_108" d="M47.7905 17.6936C47.5208 17.7824 47.2391 17.8297 46.9551 17.8341C46.4986 17.8341 46.1684 17.7195 45.9398 17.5008C45.7111 17.282 45.5873 16.9568 45.5873 16.5902C45.5909 15.761 46.1965 15.2871 47.0164 15.2871C47.3393 15.2871 47.5878 15.3499 47.7101 15.4054L47.5915 15.8611C47.4542 15.7979 47.2873 15.7533 47.0124 15.7533C46.5413 15.7533 46.181 16.0162 46.181 16.5606C46.181 17.0787 46.5059 17.3789 46.9718 17.3789C47.0645 17.3824 47.1571 17.3712 47.2463 17.3456V16.8191H46.8605V16.3792H47.7921L47.7905 17.6936Z" fill="#394C60"/>
<path id="Vector_109" d="M48.2352 15.3115H48.7997V17.3328H49.7943V17.8067H48.2352V15.3115Z" fill="#394C60"/>
<path id="Vector_110" d="M50.7328 17.1679L50.555 17.8083H49.9722L50.7328 15.3115H51.4752L52.255 17.8067H51.6425L51.4496 17.1663L50.7328 17.1679ZM51.3676 16.7458L51.2121 16.2164C51.1678 16.0682 51.1231 15.8831 51.0862 15.7352H51.0789C51.0415 15.8831 51.0045 16.0722 50.9635 16.2164L50.8153 16.7458H51.3676Z" fill="#394C60"/>
<path id="Vector_111" d="M52.6035 17.2266C52.7979 17.3255 53.0126 17.3788 53.2309 17.3821C53.4904 17.3821 53.6277 17.2748 53.6277 17.1119C53.6277 16.9564 53.5091 16.8689 53.2082 16.764C52.7927 16.6157 52.5178 16.3865 52.5178 16.0235C52.5178 15.5978 52.8776 15.2754 53.464 15.2754C53.7483 15.2754 53.9542 15.3309 54.1025 15.4014L53.9762 15.8534C53.8146 15.7742 53.6367 15.7336 53.4567 15.7347C53.213 15.7347 53.0912 15.8494 53.0912 15.9753C53.0912 16.1345 53.2289 16.205 53.5554 16.3269C53.9969 16.489 54.2011 16.7194 54.2011 17.071C54.2011 17.4895 53.8819 17.8451 53.1952 17.8451C52.9109 17.8451 52.6266 17.7673 52.4861 17.6896L52.6035 17.2266Z" fill="#394C60"/>
<path id="Vector_112" d="M54.6072 17.2266C54.8018 17.3255 55.0164 17.3787 55.2347 17.3821C55.4942 17.3821 55.6319 17.2748 55.6319 17.1119C55.6319 16.9564 55.5129 16.8689 55.2124 16.764C54.7965 16.6157 54.522 16.3865 54.522 16.0235C54.522 15.5978 54.8818 15.2754 55.4686 15.2754C55.7529 15.2754 55.9584 15.3309 56.1071 15.4014L55.9807 15.8534C55.819 15.7743 55.6411 15.7337 55.4609 15.7347C55.2172 15.7347 55.0974 15.8494 55.0974 15.9753C55.0974 16.1345 55.2347 16.205 55.5612 16.3269C56.0031 16.489 56.207 16.7194 56.207 17.071C56.207 17.4895 55.8877 17.8451 55.201 17.8451C54.9167 17.8451 54.6324 17.7673 54.4923 17.6896L54.6072 17.2266Z" fill="#394C60"/>
<path id="Vector_113" d="M45.7006 19.2702C45.9536 19.2317 46.2094 19.2143 46.4653 19.2183C46.8141 19.2183 47.0627 19.2848 47.23 19.418C47.316 19.4874 47.3848 19.5756 47.4312 19.6758C47.4775 19.7759 47.5001 19.8854 47.4972 19.9956C47.4972 20.2387 47.4193 20.4509 47.267 20.5878C47.0741 20.7657 46.7882 20.8507 46.4547 20.8507C46.3901 20.8522 46.3255 20.8473 46.2618 20.8362V21.7322H45.7014L45.7006 19.2702ZM46.261 20.4044C46.3233 20.4166 46.3868 20.4216 46.4503 20.4193C46.7512 20.4193 46.9376 20.2674 46.9376 20.0143C46.9376 19.7846 46.778 19.6477 46.4909 19.6477C46.4137 19.6451 46.3364 19.6512 46.2606 19.6659L46.261 20.4044Z" fill="#394C60"/>
<path id="Vector_114" d="M47.8604 19.2363H48.4249V21.258H49.4195V21.7319H47.8604V19.2363Z" fill="#394C60"/>
<path id="Vector_115" d="M50.3592 21.0911L50.1813 21.7319H49.5985L50.3592 19.2363H51.1016L51.8809 21.7319H51.2689L51.0756 21.0911H50.3592ZM50.9939 20.669L50.8384 20.1396C50.7937 19.9918 50.7491 19.8067 50.7121 19.6584H50.7044C50.6674 19.8067 50.6305 19.9954 50.5895 20.1396L50.4404 20.669H50.9939Z" fill="#394C60"/>
<path id="Vector_116" d="M52.2274 21.15C52.4217 21.249 52.6362 21.3022 52.8544 21.3055C53.1143 21.3055 53.2516 21.1986 53.2516 21.0354C53.2516 20.8798 53.133 20.7923 52.8321 20.6874C52.4166 20.5396 52.1417 20.3099 52.1417 19.947C52.1417 19.5212 52.5015 19.1992 53.0879 19.1992C53.3722 19.1992 53.5781 19.2547 53.7264 19.3252L53.6001 19.7768C53.4384 19.6978 53.2606 19.6572 53.0806 19.6582C52.8369 19.6582 52.7151 19.7728 52.7151 19.8988C52.7151 20.058 52.8524 20.1284 53.1793 20.2508C53.6208 20.4128 53.825 20.6429 53.825 20.9949C53.825 21.4129 53.5058 21.7685 52.8191 21.7685C52.5348 21.7685 52.2505 21.6908 52.11 21.613L52.2274 21.15Z" fill="#394C60"/>
<path id="Vector_117" d="M54.7003 19.7103H54.0245V19.2363H55.9475V19.7103H55.2644V21.7319H54.7003V19.7103Z" fill="#394C60"/>
<path id="Vector_118" d="M56.8165 19.2363V21.7319H56.252V19.2363H56.8165Z" fill="#394C60"/>
<path id="Vector_119" d="M59.1388 21.6648C59.0389 21.713 58.8013 21.7722 58.5003 21.7722C57.6357 21.7722 57.1902 21.2318 57.1902 20.5209C57.1902 19.6703 57.7994 19.1992 58.556 19.1992C58.8492 19.1992 59.0722 19.2547 59.1721 19.3102L59.0535 19.7558C58.9031 19.6927 58.7414 19.6611 58.5783 19.663C58.1316 19.663 57.7839 19.9336 57.7839 20.4889C57.7839 20.9884 58.0808 21.3031 58.582 21.3031C58.744 21.3049 58.9049 21.2774 59.0571 21.2221L59.1388 21.6648Z" fill="#394C60"/>
<path id="Vector_120" d="M45.7006 23.193C45.9536 23.1547 46.2094 23.1373 46.4653 23.1411C46.8141 23.1411 47.0627 23.208 47.23 23.3412C47.316 23.4106 47.3848 23.4988 47.4312 23.599C47.4775 23.6991 47.5001 23.8086 47.4972 23.9189C47.4972 24.1619 47.4193 24.3741 47.267 24.5111C47.0741 24.6889 46.7882 24.7739 46.4547 24.7739C46.3901 24.7755 46.3254 24.7705 46.2618 24.759V25.6549H45.7014L45.7006 23.193ZM46.261 24.3272C46.3233 24.3394 46.3868 24.3444 46.4503 24.3421C46.7512 24.3421 46.9376 24.1902 46.9376 23.9371C46.9376 23.7074 46.778 23.5705 46.4909 23.5705C46.4137 23.5679 46.3364 23.574 46.2606 23.5887L46.261 24.3272Z" fill="#394C60"/>
<path id="Vector_121" d="M48.2169 25.0149L48.0386 25.6553H47.4558L48.2169 23.1602H48.9593L49.7386 25.6553H49.1262L48.9333 25.0149H48.2169ZM48.8517 24.5929L48.6941 24.0634C48.6494 23.9156 48.6051 23.7305 48.5678 23.5822H48.5605C48.5231 23.7305 48.4861 23.9192 48.4451 24.0634L48.2969 24.5929H48.8517Z" fill="#394C60"/>
<path id="Vector_122" d="M50.0684 23.193C50.3215 23.1547 50.5772 23.1373 50.8332 23.1411C51.182 23.1411 51.431 23.208 51.5979 23.3412C51.6839 23.4106 51.7527 23.4988 51.799 23.599C51.8454 23.6991 51.868 23.8086 51.8651 23.9189C51.8651 24.1619 51.7871 24.3741 51.6348 24.5111C51.4419 24.6889 51.156 24.7739 50.8226 24.7739C50.7579 24.7755 50.6933 24.7705 50.6297 24.759V25.6549H50.0688L50.0684 23.193ZM50.6293 24.3272C50.6916 24.3394 50.7551 24.3444 50.8185 24.3421C51.1191 24.3421 51.3059 24.1902 51.3059 23.9371C51.3059 23.7074 51.1463 23.5705 50.8591 23.5705C50.7821 23.5679 50.705 23.574 50.6293 23.5887V24.3272Z" fill="#394C60"/>
<path id="Vector_123" d="M53.7134 24.6001H52.7927V25.1947H53.821V25.6573H52.2274V23.1621H53.7706V23.6231H52.7959V24.1415H53.7166L53.7134 24.6001Z" fill="#394C60"/>
<path id="Vector_124" d="M54.2064 23.1936C54.456 23.1572 54.708 23.1398 54.9602 23.1417C55.3314 23.1417 55.5909 23.1976 55.7692 23.3382C55.9215 23.4565 56.0031 23.6343 56.0031 23.8648C56.0031 24.1795 55.7765 24.3978 55.5617 24.4756V24.4866C55.7359 24.557 55.8321 24.7199 55.8955 24.9495C55.9735 25.2331 56.0478 25.5604 56.0961 25.6564H55.517C55.4796 25.5822 55.4167 25.3825 55.346 25.0751C55.2757 24.7604 55.1677 24.679 54.9342 24.6753H54.7673V25.6564H54.2064V23.1936ZM54.7673 24.2674H54.989C55.2733 24.2674 55.4382 24.1265 55.4382 23.9081C55.4382 23.6825 55.2822 23.5638 55.0223 23.5638C54.9366 23.5603 54.8508 23.5666 54.7665 23.5825L54.7673 24.2674Z" fill="#394C60"/>
<path id="Vector_125" d="M44.5019 13.0999C44.811 13.0499 45.0209 12.7594 44.9707 12.4512C44.9205 12.1429 44.6293 11.9336 44.3202 11.9836C44.0112 12.0337 43.8013 12.3241 43.8515 12.6324C43.9016 12.9406 44.1929 13.15 44.5019 13.0999Z" fill="#DEEACE"/>
<path id="Vector_126" d="M44.9343 16.6018C45.0541 16.3132 44.9167 15.9825 44.6275 15.863C44.3382 15.7434 44.0065 15.8805 43.8867 16.169C43.7669 16.4575 43.9042 16.7883 44.1935 16.9078C44.4828 17.0273 44.8145 16.8903 44.9343 16.6018Z" fill="#DEEACE"/>
<path id="Vector_127" d="M44.9349 20.5686C45.0547 20.28 44.9173 19.9493 44.6281 19.8298C44.3388 19.7102 44.0071 19.8473 43.8873 20.1358C43.7675 20.4243 43.9049 20.7551 44.1941 20.8746C44.4834 20.9941 44.8151 20.8571 44.9349 20.5686Z" fill="#DEEACE"/>
<path id="Vector_128" d="M44.9345 24.4113C45.0543 24.1228 44.9169 23.792 44.6276 23.6725C44.3384 23.553 44.0067 23.69 43.8869 23.9786C43.7671 24.2671 43.9044 24.5979 44.1937 24.7174C44.483 24.8369 44.8146 24.6999 44.9345 24.4113Z" fill="#DEEACE"/>
</g>
<defs>
<clipPath id="clip0_390_619">
<rect width="90" height="70" fill="white"/>
</clipPath>
</defs>
</svg>
