<svg width="68" height="68" viewBox="0 0 68 68" fill="none" xmlns="http://www.w3.org/2000/svg">
<g id="&#208;&#145;&#208;&#181;&#208;&#183; &#208;&#189;&#208;&#176;&#208;&#183;&#208;&#178;&#208;&#176;&#208;&#189;&#208;&#184;&#209;&#143; (6) 1">
<path id="Vector" d="M36.3702 27.6707C36.3702 27.6707 34.5739 26.0377 35.0173 23.9627C35.3074 22.6054 36.1862 16.3958 36.1862 16.3958L24.809 11.5605C24.809 11.5605 23.9775 12.7509 23.6362 15.7806C23.5464 16.5777 23.8823 16.4573 23.6978 16.888C23.5132 17.3186 22.2007 19.763 22.326 20.2224C22.4992 20.8576 23.5132 20.7022 23.4517 21.0713C23.3902 21.4404 23.1417 22.1399 23.2056 22.3017C23.3021 22.5457 23.6363 22.6093 23.5747 22.7938C23.5132 22.9784 23.3583 23.2776 23.5132 23.6551C23.5974 23.8604 23.8545 24.0291 23.9775 24.4597C24.1006 24.8903 24.3153 26.7114 25.6049 27.1617C26.4624 27.4612 27.926 26.9862 28.0657 27.2233C28.8583 28.5689 29.2666 31.4267 29.2666 31.4267L36.3702 27.6707Z" fill="#D8A353"/>
<path id="Vector_2" d="M24.1592 6.61013C25.4571 4.60416 30.0368 4.29643 34.4797 8.07295C33.4764 6.57521 31.7521 5.59853 30.1159 4.82068C29.8619 4.69998 30.0837 4.33743 30.3342 4.44719C31.6252 5.01284 32.8889 5.60009 33.948 6.55389C34.5721 7.11591 35.126 7.81621 35.4731 8.5975C36.408 8.69821 38.6503 9.27702 39.7851 12.4545C41.0155 15.8995 35.7864 24.3892 35.1712 24.5123C34.556 24.6353 31.9721 24.2662 31.48 21.7439C31.48 21.7439 33.5716 21.867 34.3099 20.0214C35.0481 18.1758 34.3714 16.7608 33.3871 16.6378C32.4028 16.5147 30.9878 17.9912 30.8647 17.8066C30.7585 17.6467 30.8124 17.2891 30.8063 17.1093C30.7924 16.7041 30.7754 16.3007 30.7267 15.8978C30.6077 14.9135 30.0648 14.1644 29.1709 13.7279C28.4932 13.397 27.7396 13.264 27.0046 13.0947C26.2697 12.9255 25.5227 12.7062 24.9312 12.2384C23.2594 10.9166 23.0488 8.32614 24.1592 6.61013Z" fill="#4F3B30"/>
<path id="Vector_3" d="M25.1963 14.4775C26.1544 14.868 27.005 15.1457 27.6478 16.0096C27.8903 16.3356 27.3855 16.6667 27.1115 16.4235C26.369 15.7645 25.7459 15.6539 24.8878 15.2092C24.493 15.0046 24.7715 14.3043 25.1963 14.4775Z" fill="#4F3B30"/>
<path id="Vector_4" d="M25.4368 17.2122C25.5281 16.9107 25.8427 16.5593 26.1813 16.7928C26.436 16.9686 26.5166 17.3282 26.4685 17.6213C26.4332 17.8366 26.3241 18.0396 26.1122 18.119C25.9316 18.1867 25.7248 18.1582 25.5809 18.0259C25.363 17.8256 25.3563 17.4782 25.4368 17.2122Z" fill="#274441"/>
<path id="Vector_5" d="M23.79 22.5175C24.3374 22.4512 24.8802 22.5063 25.4169 22.3144C25.6102 22.2453 25.7418 22.478 25.5741 22.579C25.0443 22.8982 24.3376 23.0676 23.7243 22.9721C23.417 22.9242 23.5337 22.5486 23.79 22.5175Z" fill="#274441"/>
<path id="Vector_6" d="M31.4042 24.959C30.3483 26.2549 28.2815 27.0875 28.0252 27.1872C28.0434 27.1968 28.0571 27.2086 28.0657 27.2232C28.307 27.6328 28.5124 28.1827 28.6818 28.7493C31.1903 27.6589 31.4042 24.959 31.4042 24.959Z" fill="#274441"/>
<g id="Group">
<path id="Vector_7" d="M23.2192 65.6395H43.6767C43.6795 64.9737 43.3681 63.9021 43.2304 63.3519C43.0671 62.6987 43.1487 62.3721 43.8834 60.3307C44.618 58.2894 45.5971 50.2058 45.6783 46.0415C45.7596 41.8773 44.6163 39.8361 44.2896 39.1013C43.9629 38.3665 44.1262 38.4481 43.4728 36.2436C42.8194 34.0391 37.9198 28.5689 37.5115 28.1607C37.1032 27.7525 37.0215 27.4259 36.6949 27.2626C36.3683 27.0993 35.6334 27.2627 34.0005 28.4059C32.3676 29.5492 30.163 29.7944 29.2649 30.4477C29.2538 30.456 29.2429 30.4647 29.2323 30.4738C28.5804 31.0857 28.1815 32.0953 27.7847 32.8755C26.3783 35.6402 24.8764 38.3786 24.1488 41.4359C23.7154 43.2568 23.4712 45.1165 23.3074 46.9792C22.9556 50.9796 22.9362 54.9627 23.0193 58.9805C23.0652 61.2004 23.1301 63.4205 23.2192 65.6395Z" fill="#2DCC6E"/>
<path id="Vector_8" d="M27.7942 65.6391H28.1081C28.1086 61.7398 28.1087 57.8405 28.1062 53.9412C28.1022 47.6686 28.0993 41.396 28.0914 35.1234C28.0902 34.1647 28.0907 33.2059 28.0913 32.2471C27.9902 32.456 27.8931 32.6605 27.7962 32.852C27.795 36.3519 27.8058 39.8519 27.8035 43.3512C27.7995 49.6238 27.7948 55.8964 27.7937 62.169C27.7935 63.3257 27.7939 64.4824 27.7942 65.6391Z" fill="#288650"/>
<path id="Vector_9" d="M34.163 65.6398H34.477C34.4774 61.7405 34.4775 57.8412 34.475 53.9419C34.471 47.6693 34.4681 41.3967 34.4602 35.1241C34.4573 32.7816 34.4641 30.4385 34.4584 28.0957C34.3677 28.1551 34.2736 28.2181 34.1762 28.2848C34.152 33.3069 34.1756 38.3301 34.1724 43.3518C34.1683 49.6244 34.1636 55.897 34.1625 62.1696C34.1623 63.3263 34.1628 64.483 34.163 65.6398Z" fill="#288650"/>
<path id="Vector_10" d="M24.6098 65.6395H24.9239C24.9243 61.7402 24.9243 57.8409 24.9218 53.9416C24.9186 48.952 24.9154 43.9623 24.9106 38.9727C24.8083 39.2461 24.7098 39.521 24.6176 39.7986C24.6189 40.983 24.6199 42.1673 24.6191 43.3515C24.6151 49.6241 24.6104 55.8967 24.6093 62.1693C24.6091 63.326 24.6095 64.4828 24.6098 65.6395Z" fill="#288650"/>
<path id="Vector_11" d="M30.9786 65.6392H31.2924C31.2928 61.7399 31.2931 57.8406 31.2906 53.9413C31.2866 47.6687 31.2837 41.3961 31.2758 35.1235C31.2735 33.2948 31.2773 31.4657 31.2764 29.6367C31.178 29.6689 31.081 29.7005 30.9857 29.7314C30.9716 34.2713 30.9909 38.8119 30.988 43.3512C30.9839 49.6238 30.9792 55.8964 30.9782 62.169C30.9779 63.3257 30.9784 64.4824 30.9786 65.6392Z" fill="#288650"/>
<path id="Vector_12" d="M44.0305 59.8537C44.0299 57.8829 44.0295 55.9121 44.0282 53.9412C44.0249 48.7198 44.0217 43.4984 44.0164 38.2769C43.9584 38.0319 43.8824 37.6959 43.7207 37.1084C43.7235 39.1894 43.7269 41.2704 43.7255 43.3511C43.7218 49.1665 43.7177 54.9818 43.7162 60.7971C43.7678 60.6519 43.8232 60.4974 43.8833 60.3303C43.9314 60.1966 43.9806 60.0364 44.0305 59.8537Z" fill="#288650"/>
<path id="Vector_13" d="M40.5318 65.6392H40.8463C40.8467 61.7399 40.8464 57.8407 40.8439 53.9413C40.8398 47.6687 40.837 41.3962 40.8291 35.1236C40.8278 34.1058 40.8284 33.088 40.8291 32.0701C40.7311 31.9448 40.6328 31.82 40.5344 31.6963C40.5297 35.5814 40.5437 39.4668 40.5412 43.3513C40.5372 49.6239 40.5325 55.8965 40.5314 62.1691C40.5311 63.3258 40.5316 64.4825 40.5318 65.6392Z" fill="#288650"/>
<path id="Vector_14" d="M37.3469 62.1693C37.3467 63.326 37.3471 64.4828 37.3474 65.6395H37.6616C37.662 61.7402 37.6619 57.8409 37.6594 53.9416C37.6554 47.669 37.6525 41.3964 37.6447 35.1238C37.6418 32.8494 37.6483 30.5745 37.6435 28.2998C37.5826 28.2341 37.5377 28.1868 37.5115 28.1607C37.456 28.1051 37.4069 28.0513 37.362 27.999C37.3355 33.1163 37.3601 38.2347 37.3568 43.3515C37.3527 49.6241 37.348 55.8967 37.3469 62.1693Z" fill="#288650"/>
<path id="Vector_15" d="M31.0042 41.9904C31.0562 42.9356 31.1797 43.8754 31.4004 44.8198C31.616 45.7427 31.9175 46.6377 32.2618 47.5198C32.4138 47.9095 32.5706 48.3037 32.6475 48.7167C32.7413 49.22 32.6483 49.6812 32.5177 50.1674C32.2785 51.0584 32.1802 51.9251 32.2949 52.8457C32.4036 53.7175 32.6521 54.562 32.9572 55.3838C33.1003 55.7693 33.3766 56.2065 33.436 56.6121C33.4902 56.9824 33.0532 57.2824 33.0146 57.6639C32.9723 58.0824 33.2154 58.4403 33.2551 58.8453C33.3022 59.326 33.0773 59.8107 32.931 60.259C32.3574 62.016 31.9268 63.8161 31.6322 65.6398H32.2885C32.5441 64.1035 32.8952 62.5842 33.3496 61.0937C33.5902 60.3047 34.0493 59.4198 33.8741 58.5755C33.8264 58.3459 33.6983 58.1239 33.6695 57.8915C33.6411 57.6624 33.7455 57.5273 33.8641 57.348C34.087 57.0108 34.1547 56.7018 34.0213 56.3111C33.7143 55.412 33.314 54.5645 33.0938 53.6337C32.8816 52.7364 32.8003 51.7955 32.9992 50.8879C33.1937 50.0009 33.4537 49.2443 33.2221 48.3304C32.9913 47.4193 32.5595 46.5615 32.2906 45.6591C31.6948 43.6599 31.3577 41.4844 31.4484 39.3947C31.4604 39.1196 31.0391 39.1225 31.0223 39.3947C30.9886 39.9427 30.9716 40.486 30.9749 41.0265C30.8498 40.7749 30.7363 40.5175 30.634 40.2548C30.5502 40.0396 30.2124 40.1202 30.2797 40.3525C30.4477 40.9316 30.6946 41.4742 31.0042 41.9904Z" fill="#259354"/>
<path id="Vector_16" d="M40.6045 65.6393H41.2982C41.7099 64.3234 42.0927 62.997 42.4905 61.6777C42.7126 60.9411 42.9214 60.2005 43.0096 59.434C43.1012 58.6384 43.0509 57.8376 43.0283 57.0397C42.9388 53.8777 44.2302 50.9531 44.4716 47.8323C44.5382 46.9707 44.4783 46.1241 44.3579 45.27C44.2361 44.406 44.0304 43.3602 44.3413 42.5147C44.421 42.2979 44.0776 42.2071 43.9969 42.4197C43.8664 42.7635 43.7313 43.0783 43.6888 43.4468C43.6441 43.8352 43.6496 44.2239 43.6777 44.6133C43.7344 45.3986 43.8618 46.1743 43.8586 46.9637C43.8525 48.5233 43.4951 50.0436 43.1372 51.5528C42.7871 53.029 42.4314 54.5197 42.3767 56.0423C42.3472 56.8652 42.4219 57.6869 42.4131 58.5097C42.4042 59.3425 42.258 60.1372 42.0315 60.9366C41.5852 62.5126 41.0668 64.0679 40.6045 65.6393Z" fill="#259354"/>
<path id="Vector_17" d="M37.0319 27.9109C34.0247 28.6912 31.7057 31.1227 28.5911 31.6127C28.4981 31.6274 28.5205 31.7797 28.6132 31.7762C31.8058 31.6566 34.1418 29.0932 37.1418 28.3095C37.399 28.2423 37.29 27.8439 37.0319 27.9109Z" fill="#259354"/>
<path id="Vector_18" d="M43.5555 41.4117C43.0911 39.2901 41.7485 37.4263 40.0654 36.0892C39.6594 35.7667 39.2302 35.458 38.7769 35.2049C38.5684 35.0886 38.3679 35.0236 38.1659 34.9974C38.0402 34.1028 37.4855 33.3635 36.9681 32.6491C36.2958 31.7208 35.6192 30.7962 34.9305 29.88C34.8583 29.7839 34.6948 29.8727 34.7652 29.9766C35.362 30.8567 35.9683 31.7298 36.5807 32.5992C37.1096 33.35 37.6658 34.0751 37.8554 34.9862C37.662 34.9966 37.4632 35.0363 37.2509 35.0966C36.1698 35.4039 35.1918 36.0144 34.3719 36.7756C33.3661 37.7093 32.6461 38.8487 32.0057 40.05C31.9501 40.1542 32.1069 40.2466 32.1643 40.1428C32.8453 38.9109 33.6945 37.7117 34.7696 36.7934C35.2711 36.365 35.827 35.9982 36.4261 35.7211C36.7765 35.559 37.1489 35.4232 37.5266 35.3398C37.9847 35.2386 38.329 35.3008 38.7349 35.5454C40.9349 36.8709 42.6369 38.9874 43.2468 41.4968C43.2956 41.6977 43.5995 41.6124 43.5555 41.4117Z" fill="#259354"/>
</g>
</g>
</svg>
