<svg width="90" height="68" viewBox="0 0 90 68" fill="none" xmlns="http://www.w3.org/2000/svg">
<g id="&#208;&#145;&#208;&#181;&#208;&#183; &#208;&#189;&#208;&#176;&#208;&#183;&#208;&#178;&#208;&#176;&#208;&#189;&#208;&#184;&#209;&#143; (5) 1">
<path id="Vector" d="M24.7064 58.8707V5.14047C24.7064 4.00286 25.6211 3.08301 26.7469 3.08301H66.537C67.6618 3.08301 68.5775 4.00188 68.5775 5.14047V58.8707C68.5775 60.0083 67.6627 60.9281 66.537 60.9281H26.7469C25.6222 60.9281 24.7064 60.0082 24.7064 58.8707Z" fill="white" stroke="black" stroke-width="0.5"/>
<path id="Vector_2" d="M62.8391 17.0508H30.4448C30.1568 17.0508 29.9239 17.2854 29.9239 17.5755C29.9239 17.8656 30.1568 18.1002 30.4448 18.1002H62.838C63.126 18.1002 63.3589 17.8656 63.3589 17.5755C63.36 17.2854 63.1271 17.0508 62.8391 17.0508Z" fill="#C5CAD3"/>
<path id="Vector_3" d="M62.8391 21.0762H30.4448C30.1568 21.0762 29.9239 21.3108 29.9239 21.6009C29.9239 21.891 30.1568 22.1256 30.4448 22.1256H62.838C63.126 22.1256 63.3589 21.891 63.3589 21.6009C63.36 21.3108 63.1271 21.0762 62.8391 21.0762Z" fill="#C5CAD3"/>
<path id="Vector_4" d="M62.8391 25.1025H30.4448C30.1568 25.1025 29.9239 25.3371 29.9239 25.6273C29.9239 25.9174 30.1568 26.152 30.4448 26.152H62.838C63.126 26.152 63.3589 25.9174 63.3589 25.6273C63.3589 25.3371 63.1271 25.1025 62.8391 25.1025Z" fill="#C5CAD3"/>
<path id="Vector_5" d="M62.8391 29.1289H30.4448C30.1568 29.1289 29.9239 29.3635 29.9239 29.6536C29.9239 29.9438 30.1568 30.1784 30.4448 30.1784H62.838C63.126 30.1784 63.3589 29.9438 63.3589 29.6536C63.36 29.3635 63.1271 29.1289 62.8391 29.1289Z" fill="#C5CAD3"/>
<path id="Vector_6" d="M62.8391 33.1543H30.4448C30.1568 33.1543 29.9239 33.3889 29.9239 33.679C29.9239 33.9692 30.1568 34.2038 30.4448 34.2038H62.838C63.126 34.2038 63.3589 33.9692 63.3589 33.679C63.36 33.39 63.1271 33.1543 62.8391 33.1543Z" fill="#C5CAD3"/>
<path id="Vector_7" d="M62.8391 37.1797H30.4448C30.1568 37.1797 29.9239 37.4143 29.9239 37.7044C29.9239 37.9946 30.1568 38.2292 30.4448 38.2292H62.838C63.126 38.2292 63.3589 37.9946 63.3589 37.7044C63.3589 37.4143 63.1271 37.1797 62.8391 37.1797Z" fill="#C5CAD3"/>
<path id="Vector_8" d="M62.8391 41.207H30.4448C30.1568 41.207 29.9239 41.4416 29.9239 41.7318C29.9239 42.0219 30.1568 42.2565 30.4448 42.2565H62.838C63.126 42.2565 63.3589 42.0219 63.3589 41.7318C63.36 41.4416 63.1271 41.207 62.8391 41.207Z" fill="#C5CAD3"/>
<path id="Vector_9" d="M43.9189 45.2324H30.4448C30.1568 45.2324 29.9239 45.467 29.9239 45.7572C29.9239 46.0473 30.1568 46.2819 30.4448 46.2819H43.9178C44.2058 46.2819 44.4386 46.0473 44.4386 45.7572C44.4398 45.4682 44.2058 45.2324 43.9189 45.2324Z" fill="#C5CAD3"/>
<path id="Vector_10" d="M62.8391 8.99902H30.4448C30.1568 8.99902 29.9239 9.23362 29.9239 9.52376C29.9239 9.81389 30.1568 10.0485 30.4448 10.0485H62.838C63.126 10.0485 63.3589 9.81389 63.3589 9.52376C63.3589 9.23362 63.1271 8.99902 62.8391 8.99902Z" fill="#C5CAD3"/>
<path id="Vector_11" d="M62.8391 13.0244H30.4448C30.1568 13.0244 29.9239 13.259 29.9239 13.5491C29.9239 13.8393 30.1568 14.0739 30.4448 14.0739H62.838C63.126 14.0739 63.3589 13.8393 63.3589 13.5491C63.3589 13.259 63.1271 13.0244 62.8391 13.0244Z" fill="#C5CAD3"/>
<path id="Vector_12" d="M67.3706 46.5947C67.3706 46.5947 66.3975 51.7843 68.3786 54.6856C70.3598 57.5858 71.2609 59.4807 71.2609 59.4807C71.2609 59.4807 71.2991 57.0044 70.0223 54.8794C68.7465 52.7533 67.7385 48.6177 67.3706 46.5947Z" fill="#5D7DB3"/>
<path id="Vector_13" d="M67.149 50.2383C67.149 50.2383 66.7384 53.1226 67.8364 54.6605C68.9344 56.1985 71.0989 58.6204 71.4094 59.6087C71.7199 60.5981 71.9415 59.8693 71.9415 59.8693C71.9415 59.8693 71.9516 58.2475 69.7128 56.1078C67.2019 53.7097 67.149 50.2383 67.149 50.2383Z" fill="#49905C"/>
<path id="Vector_14" d="M71.8267 54.287C71.8312 54.4151 71.8312 54.5556 71.8245 54.7132C71.7559 56.4834 71.5961 58.4498 71.5961 58.4498C71.5961 58.4498 70.5881 56.6308 70.2787 54.8469C69.9694 53.063 68.7431 52.5077 68.9546 51.184C69.156 49.9192 69.2077 48.2996 69.2111 48.1557C69.2111 48.1489 69.2111 48.1455 69.2111 48.1455C69.2111 48.1455 70.8289 49.9883 71.0257 51.5704C71.208 53.0109 71.7784 52.9656 71.8267 54.287Z" fill="#34A853"/>
<path id="Vector_15" d="M71.8268 54.2862C71.5962 54.7464 71.3397 55.177 71.0494 55.5986C71.406 54.8529 71.1484 53.8941 70.6197 53.2594C70.2237 52.7846 69.6679 52.4038 69.5104 51.7929C69.4249 51.4654 69.471 51.1208 69.4947 50.7831C69.5577 49.9059 69.5464 48.9426 69.2123 48.1538C69.2123 48.147 69.2123 48.1436 69.2123 48.1436C69.2123 48.1436 70.83 49.9864 71.0269 51.5685C71.208 53.0101 71.7784 52.9648 71.8268 54.2862Z" fill="#49905C"/>
<path id="Vector_16" d="M74.0554 55.223C74.0554 55.2241 74.0554 55.2241 74.0554 55.2241C74.0644 55.4077 74.0588 55.5789 74.0351 55.7364C73.8023 57.348 71.5759 59.4401 71.5759 59.4401C71.5759 59.4401 71.5759 59.439 71.5759 59.4367C71.4769 56.5479 73.2904 55.3295 72.7189 53.2975C72.1553 51.2926 73.2229 49.5144 73.2533 49.4668C72.7538 50.8948 73.9811 53.5366 74.0554 55.223Z" fill="#34A853"/>
<path id="Vector_17" d="M74.0554 55.2236C74.0644 55.4072 74.0588 55.5784 74.0352 55.7359C73.8023 57.3475 71.5759 59.4396 71.5759 59.4396C71.5759 59.4396 71.5759 59.4385 71.5759 59.4362C71.577 59.3671 70.7209 58.21 71.8943 57.0574C72.9169 56.0544 74.0172 55.4106 74.0554 55.2236Z" fill="#2D723F"/>
<path id="Vector_18" d="M73.2949 53.9707C73.2949 53.9707 70.8716 54.9318 71.361 57.4659C71.8504 59.9989 71.5882 60.6812 71.5882 60.6812L71.4982 59.0492C71.4982 59.0492 70.5341 56.8845 71.5804 54.8366L73.2949 53.9707Z" fill="#49905C"/>
<path id="Vector_19" d="M75.3086 47.3822C75.3086 47.3822 74.2185 47.9216 74.3423 49.6058C74.4649 51.2899 74.8406 52.9106 73.2949 53.9714C71.7491 55.0322 70.5116 56.2392 71.4983 59.0487C71.4983 59.0487 70.4183 57.1152 71.4724 54.2014C72.5265 51.2876 72.1789 52.1036 73.017 51.1018C73.8551 50.0999 74.1184 47.347 75.3086 47.3822Z" fill="#5B7BB1"/>
<path id="Vector_20" d="M69.3754 60.0579L70.434 62.7178C70.6185 63.1814 71.0561 63.4613 71.5061 63.4046L72.9743 63.2188C73.4254 63.1621 73.7798 62.7813 73.845 62.286L74.2185 59.4448C74.2613 59.1206 74.0093 58.835 73.7145 58.8724L69.723 59.3768C69.4283 59.4142 69.255 59.7542 69.3754 60.0579Z" fill="#EF887F"/>
<path id="Vector_21" d="M59.5384 63.1434C59.8736 63.5605 59.8163 63.8257 59.6138 63.99L58.2986 65.0633C58.0973 65.2276 57.8273 65.2288 57.492 64.8117L56.0408 63.0052L58.0871 61.3369L59.5384 63.1434Z" fill="#F9BD0F"/>
<path id="Vector_22" d="M58.0871 61.3383L56.0407 63.0065L46.0192 50.4515L48.0656 48.7832L58.0871 61.3383Z" fill="#EA4335"/>
<path id="Vector_23" d="M57.3952 61.9016L56.7326 62.4422L46.7111 49.8883L47.3737 49.3477L57.3952 61.9016Z" fill="#FC6F63"/>
<path id="Vector_24" d="M57.7843 60.967L55.7383 62.6357L56.1757 63.1801L58.2218 61.5114L57.7843 60.967Z" fill="#37473B"/>
<path id="Vector_25" d="M48.0656 48.7829L46.0193 50.4512L44.6951 47.3832L45.3566 46.8438L48.0656 48.7829Z" fill="#D6867F"/>
<path id="Vector_26" d="M45.3566 46.8445L44.6951 47.384L43.9357 45.7588L45.3566 46.8445Z" fill="#37473B"/>
<path id="Vector_27" d="M72.4781 13.3786L76.2548 17.1583C76.4224 17.326 76.7003 17.3011 76.8353 17.1061L82.2488 9.3292C82.4996 8.96994 81.9934 8.56987 81.7065 8.9008L76.5698 14.8293C76.4426 14.9755 76.2278 15.0038 76.068 14.8939L72.9765 12.77C72.5828 12.4991 72.1395 13.0386 72.4781 13.3786Z" fill="#1CA741"/>
<path id="Vector_28" d="M21.9217 19.2444C22.0151 18.3173 22.4088 18.0612 22.8566 18.1065L25.7816 18.4057C26.2305 18.4511 26.5646 18.782 26.4712 19.7102L26.0662 23.7267L21.5167 23.2609L21.9217 19.2444Z" fill="#EA4335"/>
<path id="Vector_29" d="M21.5409 23.0291L18.553 52.6777L23.1027 53.1431L26.0906 23.4945L21.5409 23.0291Z" fill="#3666B6"/>
<path id="Vector_30" d="M23.0787 23.1864L20.0908 52.835L21.5637 52.9856L24.5516 23.337L23.0787 23.1864Z" fill="#4285F4"/>
<path id="Vector_31" d="M21.5552 22.8828L21.4332 24.0938L25.9829 24.5591L26.1049 23.3481L21.5552 22.8828Z" fill="#37473B"/>
<path id="Vector_32" d="M18.5524 52.6797L23.1019 53.1444L21.0454 58.1231L19.5727 57.9735L18.5524 52.6797Z" fill="#D6867F"/>
<path id="Vector_33" d="M19.5728 57.9736L21.0454 58.1232L20.0048 61.0631L19.5728 57.9736Z" fill="#37473B"/>
<path id="Vector_34" d="M27.4568 24.711L27.8235 21.0707C27.9169 20.1436 27.5828 19.8127 27.1339 19.7662L26.4724 19.6982C26.4724 19.7016 26.4724 19.705 26.4713 19.7084L26.1045 23.3487L25.983 24.5591L24.4575 39.6982V54.4678L27.3353 25.9202L27.4568 24.711Z" fill="#D7DBE2"/>
<path id="Vector_35" d="M12.7519 9.93253L14.9333 9.09046C15.2168 8.98053 15.2168 8.57593 14.9333 8.466L12.7519 7.62393C12.6642 7.58993 12.5944 7.51966 12.5607 7.43126L11.7248 5.23373C11.6157 4.94813 11.214 4.94813 11.1049 5.23373L10.269 7.43126C10.2353 7.51966 10.1655 7.58993 10.0778 7.62393L7.8964 8.466C7.6129 8.57593 7.6129 8.98053 7.8964 9.09046L10.0778 9.93253C10.1655 9.96653 10.2353 10.0368 10.269 10.1252L11.1049 12.3227C11.214 12.6083 11.6157 12.6083 11.7248 12.3227L12.5607 10.1252C12.5944 10.0368 12.663 9.96653 12.7519 9.93253Z" fill="#FBBC05"/>
<path id="Vector_36" d="M72.9821 34.0947L75.6056 33.0815C75.9476 32.9501 75.9476 32.4627 75.6056 32.3313L72.9821 31.3181C72.8763 31.2773 72.7931 31.1934 72.7526 31.0869L71.7468 28.4439C71.6163 28.0994 71.1326 28.0994 71.0021 28.4439L69.9963 31.0869C69.9558 31.1934 69.8726 31.2773 69.7668 31.3181L67.1433 32.3313C66.8013 32.4627 66.8013 32.9501 67.1433 33.0815L69.7668 34.0947C69.8726 34.1355 69.9558 34.2194 69.9963 34.3259L71.0021 36.9689C71.1326 37.3134 71.6163 37.3134 71.7468 36.9689L72.7526 34.3259C72.7931 34.2205 72.8763 34.1355 72.9821 34.0947Z" fill="#FBBC05"/>
<path id="Vector_37" d="M67.9342 33.3877L67.1433 33.6926C66.8013 33.824 66.8013 34.3114 67.1433 34.4428L68.8275 35.0934V33.7322L67.9342 33.3877Z" fill="#D7DBE2"/>
</g>
</svg>
