<svg width="90" height="60" viewBox="0 0 90 60" fill="none" xmlns="http://www.w3.org/2000/svg">
<g id="Clip path group">
<mask id="mask0_390_1415" style="mask-type:luminance" maskUnits="userSpaceOnUse" x="0" y="0" width="90" height="60">
<g id="b">
<path id="Vector" d="M89.4493 0H0V55.3317L7.5255 54.7666L7.77023 55.029C7.74915 55.6272 7.84434 56.6424 7.94333 57.4151C8.1738 59.2136 9.70276 60.2182 10.2223 59.9599C10.7419 59.7015 10.3216 56.294 10.6427 56.025C10.9637 55.7561 12.4637 56.9378 13.055 56.9177C13.6464 56.8976 12.2789 56.0646 11.7704 55.5305C11.7115 55.4686 11.3393 55.0588 11.278 54.9886L90 54.9281L89.4493 0Z" fill="white"/>
</g>
</mask>
<g mask="url(#mask0_390_1415)">
<g id="Group">
<path id="Vector_2" d="M81.905 7.99741C81.905 7.99741 82.6804 7.816 83.2804 8.11285C83.8805 8.40971 84.0471 9.19307 84.1138 9.6713C84.1805 10.1496 84.5267 13.6655 84.4854 13.7447C84.0555 14.5693 82.2137 14.0828 81.672 14.1488C81.1303 14.2147 78.9636 13.7859 78.9636 13.7859C78.9636 13.7859 79.3522 9.44457 79.8329 9.02195C80.3136 8.59936 80.6045 7.35424 81.905 7.99741Z" fill="#FBBC05"/>
<path id="Vector_3" d="M85.7759 43.0285C85.6245 42.7614 69.1803 50.16 68.4037 50.7886C68.4037 50.7886 70.7438 93.1912 70.8777 95.8415C70.9434 97.1419 73.4157 96.4076 73.6923 95.1194C76.9581 79.9084 76.3152 75.1077 76.3152 75.1077C76.3152 75.1077 76.2767 56.1647 76.1411 53.4506C76.3269 54.4398 92.2832 95.1548 92.4062 95.695C92.8561 97.6702 95.1194 96.2125 95.0465 95.4771C94.9778 94.784 86.5636 44.4188 85.7759 43.0285Z" fill="#FF847A"/>
<path id="Vector_4" d="M74.7884 18.5182C74.7884 18.5182 72.279 21.1247 70.1478 29.2263C68.0165 37.3279 67.3152 45.4597 66.9402 49.6472C66.5652 53.8348 67.4334 65.3762 69.1689 64.6677C70.9045 63.9591 80.2144 15.9532 74.7884 18.5182Z" fill="#F28279"/>
<path id="Vector_5" d="M10.3179 38.4564C11.8982 35.0028 23.9141 30.5222 27.0837 29.7842C27.3156 33.2618 28.9369 35.4282 30.855 39.1794C33.5365 44.4233 26.1944 97.2071 26.1944 97.2071C26.1944 97.2071 25.2991 97.7453 23.1903 97.7442C20.4035 97.7428 19.6172 97.2071 19.6172 97.2071L21.406 49.4717C21.406 49.4717 18.9457 61.7372 14.6199 74.3637C12.6471 80.122 6.18462 97.2071 6.18462 97.2071C6.18462 97.2071 5.02205 97.7442 3.37286 97.7442C1.64255 97.7442 0.452942 97.2071 0.452942 97.2071L5.26537 70.8876C5.26533 70.8876 9.38605 40.4929 10.3179 38.4564Z" fill="#5C84C6"/>
<path id="Vector_6" d="M31.3027 41.1787H22.0547L9.1554 47.4305C9.1554 47.4305 10.3954 48.1267 16.9652 47.7856C23.1229 47.4659 28.103 47.1551 31.4418 45.1775C31.4381 43.8896 31.3954 42.0671 31.3027 41.1787Z" fill="#4285F4"/>
<path id="Vector_7" d="M24.5207 17.4113C26.5157 25.7164 30.4555 34.4758 35.5419 38.6642C38.9305 41.4546 50.9038 44.3424 51.5653 43.0585C52.0737 42.0718 52.7678 39.3205 52.7678 39.3205C52.7678 39.3205 41.2799 33.8104 38.6694 31.3059C34.6685 27.4672 33.491 14.0257 26.3655 12.0471C22.7338 11.0387 24.2258 16.1835 24.5207 17.4113Z" fill="#2A2D2B"/>
<path id="Vector_8" d="M8.75296 30.8866C8.84434 23.2439 7.1491 19.0947 7.8846 16.4922C8.82763 13.1554 13.7609 10.8808 16.584 10.493C18.906 10.1741 25.2247 11.1116 27.291 12.5435C30.6049 14.8399 31.4418 44.1224 31.4418 44.1224C31.4418 44.1224 29.4364 45.0538 22.9839 46.2986C22.0006 46.4883 21.5586 46.5017 20.5042 46.7023C11.7644 48.3653 9.15539 47.4306 9.15539 47.4306C9.15539 47.4306 8.63647 40.6308 8.75296 30.8866Z" fill="#435949"/>
<path id="Vector_9" d="M79.7634 18.292C79.7634 18.292 82.5089 16.8802 83.0777 15.9961C83.0777 15.9961 83.918 16.8274 83.9698 17.028C84.0216 17.2287 80.6049 19.6546 80.6049 19.6546L79.4694 18.821L78.3846 19.0946C78.3846 19.0946 78.6279 17.64 79.2363 16.9679C79.8446 16.2957 79.942 16.2493 79.942 16.2493C79.942 16.2493 79.765 17.0857 79.7432 17.3691C79.7254 17.5992 79.7634 18.292 79.7634 18.292ZM69.3844 29.2837L75.7527 30.7746C75.7527 30.7746 78.7473 15.8699 76.8159 16.23C72.7259 16.9928 70.3085 26.5804 69.3844 29.2837Z" fill="#B1C2DE"/>
<path id="Vector_10" d="M84.6281 34.268C84.6188 34.1851 84.6112 34.102 84.6053 34.0188C84.3529 30.3965 87.5631 22.2271 86.7743 19.6545C86.222 17.8534 85.3305 15.8885 81.7704 15.5489C77.9106 15.1808 75.9024 16.3219 74.3465 18.3709C72.779 20.4352 72.6139 24.0669 72.3978 27.0773C72.2206 29.5455 71.8688 31.6531 71.8688 31.6531C71.8688 31.6531 71.7494 32.0405 71.5513 32.7165C77.3363 34.8996 83.0537 34.4503 84.6281 34.268Z" fill="#E7EBF2"/>
<path id="Vector_11" d="M88.2743 45.7469C87.522 41.2975 84.9617 37.3023 84.6281 34.2693C83.0537 34.4516 77.3363 34.9009 71.5514 32.7178C70.5978 35.9704 67.8182 45.9051 67.7176 51.5193C67.6788 53.6806 69.351 76.953 69.351 76.953C69.351 76.953 73.7886 77.756 79.772 77.7806C88.0418 77.8145 92.7674 76.0985 92.7674 76.0985C92.7674 76.0985 89.401 52.411 88.2743 45.7469Z" fill="#CE8A84"/>
<path id="Vector_12" d="M68.9218 43.0047C69.983 42.7265 72.5005 41.9747 74.8195 40.5904C77.8568 38.7772 79.4884 35.5732 79.4884 35.5732C76.4291 38.1233 71.7408 39.7622 69.4987 40.4448C69.3002 41.2821 69.1055 42.1413 68.9218 43.0047Z" fill="#A56D68"/>
<path id="Vector_13" d="M51.3318 41.1855C51.3318 41.1855 51.0003 41.9789 51.0713 42.0491C51.1423 42.1193 52.7638 42.7112 53.3823 43.0823C54.0007 43.4535 55.4005 41.6773 55.1876 41.4318C54.9746 41.1864 51.3318 41.1855 51.3318 41.1855Z" fill="#F28279"/>
<path id="Vector_14" d="M83.5555 18.5166C80.5309 18.5166 77.4938 31.2523 74.53 33.0326C71.047 35.1248 58.7869 39.525 57.5819 40.8416C56.7354 41.7666 56.6322 42.3977 59.066 42.7731C61.1027 43.0872 72.3936 42.2468 77.4649 37.9311C82.2154 33.8884 84.9477 25.7388 85.5644 22.9582C86.0629 20.7105 85.1452 18.5166 83.5555 18.5166Z" fill="#FF847A"/>
<path id="Vector_15" d="M56.6042 40.9544C56.6042 40.9544 52.8982 42.1233 52.6728 42.662C52.4474 43.2007 53.2887 43.2688 53.445 43.4057C53.6013 43.5426 53.8123 44.0009 54.0683 44.0923C54.3243 44.1838 54.6955 44.1394 54.8721 44.3331C55.0486 44.5268 55.1913 44.9876 55.7932 44.5649C56.3951 44.1421 57.018 43.7331 57.4632 43.3051C58.0933 42.6994 57.2531 43.0723 58.0389 42.8705C58.8177 42.6706 59.3305 42.5573 59.4876 42.0294C59.6446 41.5015 59.1416 40.7902 58.1269 40.809C57.5478 40.8196 56.6042 40.9544 56.6042 40.9544Z" fill="#FF847A"/>
<path id="Vector_16" d="M52.2801 39.9121C52.2801 39.9121 53.0609 40.1494 53.614 40.1056C54.1671 40.0618 55.3257 39.9498 55.8668 40.2313C56.0222 40.3121 56.2489 40.6564 56.4954 40.8532C57.1072 41.3417 57.7674 41.8781 57.2254 42.2175C56.9687 42.3783 55.9461 41.5771 55.5119 41.5923C55.0776 41.6074 53.4891 41.8614 52.9762 41.9001C52.4632 41.9387 51.3244 41.464 51.3217 41.2351C51.3191 41.0062 52.2801 39.9121 52.2801 39.9121ZM55.4997 44.7364C55.2246 44.7519 55.0184 44.4892 55.0981 44.2282C55.1757 43.974 55.2998 43.6981 55.4802 43.6477C55.8285 43.5503 55.9515 43.8658 55.9515 43.8658C55.9515 43.8658 56.2192 43.2835 56.4498 43.2561C56.6804 43.2288 56.826 43.327 56.8326 43.3666C56.8392 43.4062 57.3619 42.6604 57.6188 42.7203C57.8756 42.7801 57.8631 43.4125 57.7865 43.73C57.7228 43.9944 56.4329 44.6838 55.4997 44.7364Z" fill="#F28279"/>
<path id="Vector_17" d="M21.0154 51.4732C20.99 51.4732 20.9649 51.4675 20.942 51.4565C20.9192 51.4456 20.8992 51.4296 20.8835 51.4099C20.8677 51.3901 20.8568 51.3671 20.8514 51.3425C20.846 51.318 20.8463 51.2925 20.8523 51.2681C21.6969 47.833 22.8118 46.7601 22.8588 46.7161C22.8913 46.6869 22.934 46.6714 22.9779 46.673C23.0217 46.6745 23.0632 46.6931 23.0934 46.7246C23.1236 46.7561 23.1401 46.7981 23.1394 46.8415C23.1387 46.8849 23.1208 46.9263 23.0895 46.9568C23.0764 46.9693 21.9939 48.0284 21.1781 51.3465C21.1692 51.3826 21.1484 51.4147 21.1189 51.4377C21.0893 51.4606 21.0529 51.4731 21.0154 51.4732ZM1.64255 96.2822C1.63007 96.2822 1.61774 96.2795 1.60647 96.2742C1.5952 96.2689 1.58527 96.2611 1.57741 96.2515C1.56954 96.242 1.56393 96.2308 1.561 96.2188C1.55807 96.2067 1.55788 96.1942 1.56046 96.1822C1.58801 96.0527 4.31899 83.2125 4.47893 81.4719C4.56859 80.4958 5.25012 76.7796 5.90919 73.1859C6.43091 70.341 6.92369 67.654 7.02054 66.8633C7.07583 66.4123 7.20445 65.4568 7.36728 64.2472C7.82657 60.8356 8.59528 55.1256 8.61614 53.9662C8.64404 52.4129 9.55402 48.2256 9.56323 48.1835C9.56798 48.1621 9.58112 48.1433 9.59979 48.1314C9.61845 48.1195 9.64112 48.1154 9.66285 48.12C9.6736 48.1223 9.6838 48.1266 9.69285 48.1328C9.70191 48.139 9.70963 48.1469 9.7156 48.1561C9.72157 48.1652 9.72565 48.1755 9.72762 48.1862C9.72959 48.1969 9.72941 48.2079 9.72709 48.2185C9.71792 48.2605 8.81132 52.4319 8.78374 53.9691C8.76276 55.1381 8.02298 60.6331 7.53347 64.2692C7.37067 65.4782 7.24212 66.4332 7.18698 66.8833C7.0895 67.6789 6.59628 70.3682 6.07412 73.2155C5.44637 76.6385 4.73487 80.5182 4.64584 81.487C4.48503 83.2372 1.75206 96.0868 1.72448 96.2165C1.72049 96.235 1.71017 96.2517 1.69526 96.2637C1.68035 96.2756 1.66174 96.2822 1.64255 96.2822ZM20.2987 96.2822C20.2872 96.2822 20.2758 96.2798 20.2652 96.2753C20.2546 96.2707 20.2451 96.264 20.2372 96.2557C20.2294 96.2473 20.2234 96.2374 20.2196 96.2266C20.2157 96.2159 20.2142 96.2044 20.2151 96.193C20.3641 94.2503 20.6359 90.4885 20.5983 90.156C20.5422 89.659 21.0955 80.3946 21.2418 79.3811C21.3507 78.6267 21.411 73.7979 21.4551 70.2721C21.4768 68.5418 21.4938 67.175 21.5114 66.6534C21.5247 66.2581 21.5575 65.4418 21.599 64.4084C21.725 61.2756 21.9358 56.0322 21.9108 54.7834C21.878 53.1415 21.9669 50.6635 21.9678 50.6387C21.9695 50.5929 22.0084 50.5575 22.0546 50.5587C22.0656 50.5591 22.0764 50.5617 22.0864 50.5662C22.0964 50.5707 22.1054 50.5771 22.1129 50.5851C22.1204 50.5931 22.1263 50.6024 22.1301 50.6127C22.1339 50.6229 22.1357 50.6337 22.1353 50.6446C22.1344 50.6694 22.0457 53.1429 22.0784 54.7801C22.1034 56.0339 21.8925 61.2803 21.7665 64.415C21.725 65.4482 21.6922 66.2643 21.6789 66.6589C21.6615 67.1788 21.6435 68.6132 21.6228 70.2742C21.5787 73.8045 21.5182 78.6395 21.4078 79.4045C21.2316 80.6247 20.722 89.7577 20.7649 90.1376C20.8136 90.5684 20.3999 95.9756 20.3822 96.2055C20.3806 96.2264 20.3711 96.2458 20.3557 96.26C20.3402 96.2743 20.3199 96.2822 20.2987 96.2822Z" fill="#34A853"/>
<path id="Vector_18" d="M12.672 12.9667C15.7735 16.3386 10.9085 22.3923 9.8674 32.8695C9.0559 41.0357 10.3233 49.917 10.8494 53.0751C10.9596 53.7367 10.4731 54.3491 9.79731 54.4001C8.4312 54.5031 6.40276 54.5367 6.06395 53.8734C4.16098 50.1482 1.3797 39.2807 1.91759 30.6067C2.31211 24.2453 4.89236 18.9149 7.1273 15.9079C8.77894 13.6857 11.5829 11.7827 12.672 12.9667Z" fill="#435949"/>
<path id="Vector_19" d="M11.1446 53.9877C11.1499 53.8348 10.9325 52.9421 10.8884 52.7496C10.541 51.233 8.6392 51.366 7.72736 51.6333C5.73951 52.216 7.04577 54.1967 7.57003 54.7715C7.82509 55.1898 8.94902 55.4735 9.46335 55.4866C10.3303 55.5086 11.3434 54.8137 11.1446 53.9877Z" fill="white"/>
<path id="Vector_20" d="M10.3266 53.6467C10.3266 53.6467 11.1402 54.8668 11.7704 55.5287C12.2789 56.0628 13.6464 56.8958 13.055 56.9159C12.4636 56.9359 10.9637 55.7543 10.6427 56.0232C10.3216 56.2921 10.7419 59.6997 10.2223 59.9581C9.70274 60.2164 8.17378 59.2117 7.94332 57.4133C7.71285 55.6149 7.58923 54.1405 8.58922 53.6812C9.58921 53.222 10.3266 53.6467 10.3266 53.6467ZM94.2736 96.6285C93.7927 97.0627 91.8522 99.6091 91.1611 99.6827C90.7883 99.7223 90.483 99.6818 90.2799 99.6361C90.7173 99.2916 91.1945 98.4834 91.6296 97.6033C91.9225 97.0109 92.5153 95.9875 92.5014 94.8308L94.7616 94.2247C94.7616 94.2247 95.1876 96.1329 95.2548 96.3186C94.9824 96.3146 94.5704 96.3605 94.2736 96.6285Z" fill="#FF847A"/>
<path id="Vector_21" d="M17.4318 10.6426C17.4318 10.6426 16.9848 10.6426 16.575 11.1955C16.1653 11.7483 17.8043 19.7098 18.7356 22.5479C19.6669 25.386 22.2373 34.3427 22.2373 34.3427C22.2373 34.3427 23.5224 17.7379 22.6098 12.6031C22.3872 11.3514 21.1453 9.98748 17.4318 10.6426Z" fill="white"/>
<path id="Vector_22" d="M81.8439 12.2666L82.1365 15.6216C82.174 16.226 80.7424 17.8583 79.7304 17.1431C79.4342 16.9337 79.7629 16.0833 79.9973 15.4418L80.5601 12.8412L81.8439 12.2666Z" fill="#FF847A"/>
<path id="Vector_23" d="M81.9759 11.7981C81.9076 12.8011 81.2088 13.2364 80.1907 13.3047C79.1982 13.3714 78.8707 13.1433 78.694 12.4582C78.6502 12.2883 78.6126 12.0351 78.6271 11.8047C78.6512 11.4219 78.8377 10.7864 79.1369 10.3817C79.2733 10.1972 79.3759 9.89491 79.456 9.74791C79.748 9.21235 80.2508 8.96763 80.727 9.03412C81.0239 9.07558 81.0041 9.65214 81.2554 9.91321C81.6012 10.2725 82.1651 10.8712 82.1651 10.8712C82.1651 10.8712 81.9975 11.4802 81.9759 11.7981Z" fill="#FF847A"/>
<path id="Vector_24" d="M81.4024 12.7342C81.478 12.895 81.1074 14.2168 80.2048 14.4815L80.3547 13.5975C80.3784 13.4632 80.3309 13.2933 80.1934 13.3026L80.1915 13.3028C79.3789 13.3574 79.0121 13.2146 78.8087 12.7861C78.9944 12.8781 79.422 13.0591 79.888 13.0442C80.5107 13.0244 81.3221 12.5633 81.4024 12.7342Z" fill="#EA4335"/>
<path id="Vector_25" d="M80.9905 10.0924C80.8554 9.97686 80.7344 9.88631 80.4928 9.91827C80.4253 9.92719 80.4011 9.99567 80.4789 10.0146C80.6933 10.0666 80.7631 10.0788 80.9211 10.1749C80.9916 10.2178 81.0691 10.1596 80.9905 10.0924ZM79.4836 9.71696C79.5836 9.70695 79.6893 9.76455 79.7798 9.81824C79.8401 9.85404 79.8612 9.92759 79.7781 9.90875C79.5489 9.85678 79.5575 9.83496 79.4472 9.82526C79.369 9.81836 79.3694 9.7284 79.4836 9.71696Z" fill="#435949"/>
<path id="Vector_26" d="M79.3627 11.0221C79.3627 11.0221 79.3344 11.2228 79.5089 11.3068C79.6835 11.3909 79.7684 11.3862 79.7542 11.3068C79.7401 11.2275 79.6125 11.2704 79.5584 11.1696C79.5042 11.0688 79.5184 10.9661 79.4759 10.9474C79.4335 10.9287 79.3603 10.939 79.3627 11.0221Z" fill="#EA4335"/>
<path id="Vector_27" d="M80.5206 10.5518C80.5206 10.6362 80.472 10.7045 80.412 10.7045C80.3521 10.7045 80.3035 10.6362 80.3035 10.5518C80.3035 10.4675 80.3521 10.3991 80.412 10.3991C80.472 10.3991 80.5206 10.4675 80.5206 10.5518ZM79.4496 10.3578C79.4496 10.4421 79.401 10.5105 79.3411 10.5105C79.2811 10.5105 79.2325 10.4421 79.2325 10.3578C79.2325 10.2735 79.2811 10.2051 79.3411 10.2051C79.401 10.205 79.4496 10.2734 79.4496 10.3578Z" fill="#435949"/>
<path id="Vector_28" d="M82.0909 11.0366C82.1477 10.9296 82.1873 10.8155 82.2198 10.699C82.2818 10.4777 82.426 10.1632 82.7149 10.416C83.1351 10.7838 82.7394 11.9447 82.1578 11.8823C81.7258 11.8359 81.948 11.3062 82.0909 11.0366Z" fill="#FF847A"/>
<path id="Vector_29" d="M77.2894 27.1361C77.2894 27.1361 77.5962 27.9144 80.0615 29.2565C81.8872 30.2504 83.6776 30.4094 83.6776 30.4094C83.6776 30.4094 86.1241 24.1017 86.4242 21.3982C86.7243 18.6946 85.7067 17.7891 85.104 17.4601C84.5013 17.1311 83.8537 17.3601 83.2356 17.7076C81.0435 18.94 77.2894 27.1361 77.2894 27.1361Z" fill="white"/>
<path id="Vector_30" d="M73.7054 33.8972C73.6797 33.8972 73.6547 33.8891 73.6339 33.874C73.6132 33.859 73.5979 33.8378 73.5901 33.8135C73.5824 33.7892 73.5828 33.7632 73.5911 33.7391C73.5994 33.715 73.6152 33.6942 73.6363 33.6796C74.8333 32.8557 75.277 32.1372 75.2814 32.13C75.298 32.1033 75.3247 32.0841 75.3556 32.0766C75.3864 32.0692 75.419 32.0741 75.4463 32.0903C75.4735 32.1064 75.4932 32.1326 75.5011 32.163C75.509 32.1935 75.5045 32.2258 75.4885 32.2529C75.4696 32.284 75.0134 33.0228 73.7742 33.8758C73.754 33.8897 73.73 33.8972 73.7054 33.8972Z" fill="#EA4335"/>
<path id="Vector_31" d="M10.1104 47.7742C10.0682 47.7741 10.0275 47.7584 9.99634 47.7302C9.9652 47.7019 9.94589 47.6631 9.9422 47.6215C9.93912 47.5868 9.63427 44.1177 9.47634 41.1884C9.32181 38.3219 9.44128 30.9761 10.7971 26.5659C12.1204 22.2615 13.1563 17.8964 13.1667 17.8528C13.1769 17.8096 13.204 17.7722 13.2421 17.7488C13.2802 17.7254 13.3261 17.7179 13.3698 17.728C13.4134 17.7381 13.4512 17.765 13.4749 17.8027C13.4985 17.8404 13.5061 17.8858 13.4959 17.929C13.4855 17.9727 12.4472 22.348 11.1206 26.6633C9.77783 31.0309 9.66047 38.3233 9.81396 41.1705C9.97161 44.0941 10.276 47.5578 10.279 47.5924C10.2811 47.6155 10.2782 47.6388 10.2707 47.6608C10.2631 47.6828 10.251 47.7029 10.2352 47.72C10.2193 47.7371 10.2 47.7508 10.1786 47.7601C10.1571 47.7694 10.1339 47.7742 10.1104 47.7742Z" fill="#2A2D2B"/>
<path id="Vector_32" d="M78.8907 11.3682C78.8907 11.3682 79.5282 11.5702 80.1103 11.6424C80.1103 11.6424 79.8033 12.1972 79.3157 12.0401C78.8282 11.8831 78.8907 11.3682 78.8907 11.3682ZM80.163 16.6971C80.163 16.6971 81.4575 16.0429 81.681 15.8402C81.9045 15.6374 82.0345 15.232 82.165 15.2965C82.2957 15.361 82.6123 15.9692 82.6123 16.0797C82.6123 16.1903 80.8429 17.9503 80.6194 18.0332C80.3958 18.1162 79.9582 17.3023 79.9582 17.3023C79.9582 17.3023 79.0828 17.6646 79.0734 17.508C79.0641 17.3513 79.7318 16.0495 79.7558 16.0521C79.7799 16.0547 80.163 16.6971 80.163 16.6971Z" fill="white"/>
<path id="Vector_33" d="M22.8057 24.427L21.0957 13.4993C21.0957 13.4993 21.3598 12.9051 21.2118 12.6033C21.0638 12.3014 20.3747 11.7294 19.8574 12.2598C19.551 12.5739 19.5785 12.8727 19.5785 12.8727C19.5785 12.8727 19.6686 13.4256 19.9909 13.5178C19.9909 13.5178 20.3023 23.2598 20.4729 28.2735C21.3779 31.3483 22.2372 34.3429 22.2372 34.3429C22.2372 34.3429 22.603 29.6164 22.8057 24.427Z" fill="#548C63"/>
<path id="Vector_34" d="M82.3424 74.0457C82.3041 74.0457 82.2668 74.0345 82.235 74.0136C82.2033 73.9926 82.1785 73.9627 82.1638 73.9278L72.6089 51.1492C72.5991 51.126 72.5941 51.1011 72.5941 51.076C72.5941 51.0509 72.5991 51.0261 72.6088 51.0029C72.6185 50.9797 72.6327 50.9586 72.6506 50.9408C72.6685 50.9231 72.6898 50.909 72.7133 50.8994C72.7367 50.8897 72.7618 50.8848 72.7872 50.8848C72.8126 50.8847 72.8377 50.8897 72.8611 50.8993C72.8846 50.9089 72.9059 50.9229 72.9238 50.9407C72.9418 50.9584 72.956 50.9795 72.9657 51.0027L82.5207 73.7813C82.5329 73.8103 82.5377 73.8419 82.5346 73.8732C82.5315 73.9045 82.5207 73.9346 82.503 73.9607C82.4854 73.9869 82.4615 74.0083 82.4335 74.0231C82.4054 74.038 82.3741 74.0457 82.3424 74.0457Z" fill="#A56D68"/>
<path id="Vector_35" d="M21.7695 4.86734C21.7695 4.86734 22.1439 3.80052 21.9236 3.31632C21.7032 2.83212 21.4853 2.77468 21.4853 2.77468C21.4853 2.77468 21.455 1.42667 19.8919 1.39148C18.3288 1.3563 17.625 2.41217 17.4949 2.75926C17.3647 3.10632 16.9337 3.10038 16.8827 3.35804C16.8317 3.6157 17.2844 3.73114 17.2844 3.73114C17.2844 3.73114 17.2525 4.91813 17.3667 5.54103C17.4809 6.16393 18.0324 7.35357 18.8345 7.38857C19.6365 7.42354 21.6455 6.27714 21.7695 4.86734Z" fill="#5D7F66"/>
<path id="Vector_36" d="M18.2874 5.57129C18.2874 5.57129 17.3787 9.35429 17.2771 10.6426C17.2338 11.192 20.314 12.9218 21.1585 12.1841C21.4057 11.9681 20.796 10.3324 20.5568 9.75901C20.2131 8.9354 19.3607 6.39705 19.3607 6.39705L18.2874 5.57129Z" fill="#FF847A"/>
<path id="Vector_37" d="M18.4724 7.54297L19.9628 8.15055C20.1397 8.6548 20.3229 9.16464 20.4622 9.52336C20.0461 9.43778 19.4258 9.26756 19.138 8.9754C18.6838 8.51445 18.4724 7.54297 18.4724 7.54297Z" fill="#EA4335"/>
<path id="Vector_38" d="M19.0197 4.24408L18.2623 6.41256C18.0703 7.14631 18.5015 7.8998 19.2376 8.10946C19.8258 8.27697 20.4246 8.42671 21.1413 8.17228C21.8055 7.93651 21.8403 7.30055 21.8537 6.48378C21.8711 5.42417 21.6725 4.6903 21.4885 4.17405C21.069 2.99707 19.618 2.86652 19.0197 4.24408Z" fill="#FF847A"/>
<path id="Vector_39" d="M21.9975 5.97251C21.9975 5.97251 21.9716 5.72824 21.6225 5.63599C21.2734 5.54373 21.0233 5.65293 20.9005 5.67208C20.7778 5.69125 20.5234 5.55933 20.2139 5.59744C19.9045 5.63555 19.7252 6.3987 19.4319 6.5163C19.1386 6.63389 18.8612 5.74609 18.8442 5.46123C18.8272 5.17637 18.7444 4.88545 18.7023 4.9268C18.6602 4.96814 18.4154 6.37452 18.3443 6.53032C18.2732 6.68614 18.2973 7.84055 18.8099 8.2006C19.3639 8.58966 20.2439 9.13043 21.4953 8.6411C22.0141 8.43825 22.2775 7.64674 22.2807 7.26151C22.2839 6.87628 21.9975 5.97251 21.9975 5.97251Z" fill="#5D7F66"/>
<path id="Vector_40" d="M20.3132 5.85352C20.3132 5.85352 20.8323 5.98926 21.5699 5.9113C21.5699 5.9113 21.5962 6.35997 21.3026 6.52009C21.0089 6.68024 20.4779 6.42301 20.3132 5.85352Z" fill="white"/>
<path id="Vector_41" d="M18.5822 5.21233C18.536 5.07771 18.4596 4.95626 18.4162 4.8207C18.3338 4.56307 18.1509 4.19911 17.8248 4.50812C17.3504 4.95756 17.9788 6.24676 18.4193 6.11543C18.665 6.04223 18.7454 5.68768 18.5822 5.21233Z" fill="#FF847A"/>
<path id="Vector_42" d="M20.8515 5.35662C21.005 5.30629 21.1344 5.22606 21.2473 5.11149C21.3328 5.0247 21.4523 5.17139 21.3677 5.25721C21.2459 5.381 21.0958 5.47392 20.93 5.52811C20.8148 5.56585 20.7354 5.39467 20.8515 5.35662Z" fill="#EA4335"/>
<path id="Vector_43" d="M20.0409 4.44671C20.0611 4.44068 20.1229 4.4179 20.1659 4.48582C20.1982 4.53695 20.2212 4.60503 20.2192 4.6681C20.2168 4.74171 20.1453 4.79253 20.0749 4.77419C19.9774 4.74876 19.9048 4.48706 20.0409 4.44671ZM21.2867 4.32592C21.307 4.31989 21.3688 4.2971 21.4117 4.36502C21.444 4.41616 21.467 4.48423 21.465 4.5473C21.4627 4.62091 21.3911 4.67173 21.3208 4.65339C21.2233 4.62797 21.1507 4.36627 21.2867 4.32592Z" fill="#23402B"/>
<path id="Vector_44" d="M20.1073 3.97095C20.0143 3.9334 19.8643 3.9596 19.7817 4.01024C19.6964 4.06252 19.6014 4.15282 19.5696 4.25226C19.5635 4.2621 19.5606 4.27358 19.5614 4.28512L19.5612 4.28574C19.5576 4.30781 19.569 4.32307 19.5848 4.33022C19.6067 4.34887 19.6402 4.35459 19.6703 4.33003C19.7923 4.23063 19.955 4.14984 20.1032 4.10172C20.1747 4.0785 20.1663 3.97701 20.1073 3.97095ZM21.486 3.93548C21.4806 3.93313 21.4747 3.93172 21.4688 3.93131C21.4237 3.92861 21.3661 3.91602 21.3092 3.91018C21.3053 3.90928 21.3014 3.90872 21.2974 3.9085C21.2959 3.90847 21.2945 3.90872 21.293 3.90872C21.2098 3.90228 21.131 3.91403 21.0987 3.9974C21.0949 4.00709 21.0946 4.01779 21.0979 4.02768C21.096 4.06622 21.1234 4.10831 21.1719 4.10135C21.2802 4.0858 21.3883 4.07116 21.498 4.06644C21.5781 4.06302 21.5607 3.94282 21.486 3.93548Z" fill="#52725B"/>
<path id="Vector_45" d="M17.4146 9.65918L20.2186 11.7263L20.6654 10.0292C20.6654 10.0292 21.3355 10.7862 21.5317 11.0524C21.8424 11.4739 22.1532 13.0051 22.1532 13.0051L20.4584 12.4325L19.0248 13.7989C19.0248 13.7989 17.1424 11.3085 17.022 11.0893C16.9016 10.8701 17.4146 9.65918 17.4146 9.65918Z" fill="white"/>
<path id="Vector_46" d="M22.9371 45.2036C22.893 45.2035 22.8507 45.1865 22.8192 45.1561C22.7876 45.1256 22.7693 45.0842 22.7682 45.0406C22.6475 40.4306 22.0748 34.4181 22.069 34.3579C22.0648 34.3137 22.0784 34.2697 22.107 34.2355C22.1356 34.2013 22.1767 34.1797 22.2213 34.1756C22.266 34.1714 22.3104 34.1849 22.345 34.2132C22.3796 34.2414 22.4013 34.2821 22.4056 34.3263C22.4114 34.3866 22.9852 40.4103 23.1062 45.032C23.1068 45.0539 23.103 45.0758 23.095 45.0963C23.0871 45.1168 23.0751 45.1356 23.0598 45.1515C23.0445 45.1674 23.0262 45.1802 23.0059 45.1891C22.9856 45.1981 22.9638 45.203 22.9416 45.2035L22.9371 45.2036Z" fill="#2A2D2B"/>
</g>
</g>
</g>
</svg>
