<svg width="24" height="24" viewBox="0 0 24 24" fill="none" xmlns="http://www.w3.org/2000/svg">
<mask id="mask0_372_462" style="mask-type:alpha" maskUnits="userSpaceOnUse" x="0" y="0" width="24" height="24">
<rect width="24" height="24" fill="#D9D9D9"/>
</mask>
<g mask="url(#mask0_372_462)">
<path d="M9.55 12L16.9 19.35C17.15 19.6 17.2708 19.8917 17.2625 20.225C17.2542 20.5583 17.125 20.85 16.875 21.1C16.625 21.35 16.3333 21.475 16 21.475C15.6667 21.475 15.375 21.35 15.125 21.1L7.425 13.425C7.225 13.225 7.075 13 6.975 12.75C6.875 12.5 6.825 12.25 6.825 12C6.825 11.75 6.875 11.5 6.975 11.25C7.075 11 7.225 10.775 7.425 10.575L15.125 2.87499C15.375 2.62499 15.6708 2.50415 16.0125 2.51249C16.3542 2.52082 16.65 2.64999 16.9 2.89999C17.15 3.14999 17.275 3.44165 17.275 3.77499C17.275 4.10832 17.15 4.39999 16.9 4.64999L9.55 12Z" fill="black"/>
</g>
</svg>
