<svg width="24" height="24" viewBox="0 0 24 24" fill="none" xmlns="http://www.w3.org/2000/svg">
<mask id="mask0_557_1631" style="mask-type:alpha" maskUnits="userSpaceOnUse" x="0" y="0" width="24" height="24">
<rect width="24" height="24" fill="#D9D9D9"/>
</mask>
<g mask="url(#mask0_557_1631)">
<path d="M7.82499 13L12.725 17.9C12.925 18.1 13.0208 18.3334 13.0125 18.6C13.0042 18.8667 12.9 19.1 12.7 19.3C12.5 19.4834 12.2667 19.5792 12 19.5875C11.7333 19.5959 11.5 19.5 11.3 19.3L4.69999 12.7C4.59999 12.6 4.52915 12.4917 4.48749 12.375C4.44582 12.2584 4.42499 12.1334 4.42499 12C4.42499 11.8667 4.44582 11.7417 4.48749 11.625C4.52915 11.5084 4.59999 11.4 4.69999 11.3L11.3 4.70005C11.4833 4.51672 11.7125 4.42505 11.9875 4.42505C12.2625 4.42505 12.5 4.51672 12.7 4.70005C12.9 4.90005 13 5.13755 13 5.41255C13 5.68755 12.9 5.92505 12.7 6.12505L7.82499 11H19C19.2833 11 19.5208 11.0959 19.7125 11.2875C19.9042 11.4792 20 11.7167 20 12C20 12.2834 19.9042 12.5209 19.7125 12.7125C19.5208 12.9042 19.2833 13 19 13H7.82499Z" fill="black"/>
</g>
</svg>
