<svg width="24" height="24" viewBox="0 0 24 24" fill="none" xmlns="http://www.w3.org/2000/svg">
<mask id="mask0_372_502" style="mask-type:alpha" maskUnits="userSpaceOnUse" x="0" y="0" width="24" height="24">
<rect width="24" height="24" fill="#D9D9D9"/>
</mask>
<g mask="url(#mask0_372_502)">
<path d="M13 19C12.7167 19 12.4792 18.9042 12.2875 18.7125C12.0958 18.5208 12 18.2833 12 18V10H4C3.71667 10 3.47917 9.90417 3.2875 9.7125C3.09583 9.52083 3 9.28333 3 9C3 8.71667 3.09583 8.47917 3.2875 8.2875C3.47917 8.09583 3.71667 8 4 8H13C13.2833 8 13.5208 8.09583 13.7125 8.2875C13.9042 8.47917 14 8.71667 14 9V18C14 18.2833 13.9042 18.5208 13.7125 18.7125C13.5208 18.9042 13.2833 19 13 19ZM18 14C17.7167 14 17.4792 13.9042 17.2875 13.7125C17.0958 13.5208 17 13.2833 17 13V5H9C8.71667 5 8.47917 4.90417 8.2875 4.7125C8.09583 4.52083 8 4.28333 8 4C8 3.71667 8.09583 3.47917 8.2875 3.2875C8.47917 3.09583 8.71667 3 9 3H18C18.2833 3 18.5208 3.09583 18.7125 3.2875C18.9042 3.47917 19 3.71667 19 4V13C19 13.2833 18.9042 13.5208 18.7125 13.7125C18.5208 13.9042 18.2833 14 18 14Z" fill="black"/>
</g>
</svg>
