<svg width="24" height="24" viewBox="0 0 24 24" fill="none" xmlns="http://www.w3.org/2000/svg">
<mask id="mask0_372_407" style="mask-type:alpha" maskUnits="userSpaceOnUse" x="0" y="0" width="24" height="24">
<rect width="24" height="24" fill="#D9D9D9"/>
</mask>
<g mask="url(#mask0_372_407)">
<path d="M10.9 14.9L9.275 22.2C9.225 22.4333 9.10417 22.625 8.9125 22.775C8.72083 22.925 8.5 23 8.25 23C7.91667 23 7.65 22.875 7.45 22.625C7.25 22.375 7.18333 22.0917 7.25 21.775L9.8 8.9L8 9.6V12C8 12.2833 7.90417 12.5208 7.7125 12.7125C7.52083 12.9042 7.28333 13 7 13C6.71667 13 6.47917 12.9042 6.2875 12.7125C6.09583 12.5208 6 12.2833 6 12V8.95C6 8.75 6.05417 8.57083 6.1625 8.4125C6.27083 8.25417 6.41667 8.13333 6.6 8.05L11.05 6.15C11.2833 6.05 11.5292 5.99167 11.7875 5.975C12.0458 5.95833 12.2917 5.99167 12.525 6.075C12.7583 6.15833 12.9792 6.275 13.1875 6.425C13.3958 6.575 13.5667 6.76667 13.7 7L14.7 8.6C14.9167 8.93333 15.1708 9.25 15.4625 9.55C15.7542 9.85 16.0833 10.1083 16.45 10.325C16.6833 10.4583 16.9417 10.5792 17.225 10.6875C17.5083 10.7958 17.7917 10.875 18.075 10.925C18.3417 10.975 18.5625 11.0958 18.7375 11.2875C18.9125 11.4792 19 11.7167 19 12C19 12.2833 18.9 12.5167 18.7 12.7C18.5 12.8833 18.2583 12.9583 17.975 12.925C17.0417 12.7917 16.2042 12.5 15.4625 12.05C14.7208 11.6 14.075 11.0583 13.525 10.425L12.9 13.5L14.7 15.2C14.8 15.3 14.875 15.4125 14.925 15.5375C14.975 15.6625 15 15.7917 15 15.925V22C15 22.2833 14.9042 22.5208 14.7125 22.7125C14.5208 22.9042 14.2833 23 14 23C13.7167 23 13.4792 22.9042 13.2875 22.7125C13.0958 22.5208 13 22.2833 13 22V16.5L10.9 14.9ZM13.5 5.5C12.95 5.5 12.4792 5.30417 12.0875 4.9125C11.6958 4.52083 11.5 4.05 11.5 3.5C11.5 2.95 11.6958 2.47917 12.0875 2.0875C12.4792 1.69583 12.95 1.5 13.5 1.5C14.05 1.5 14.5208 1.69583 14.9125 2.0875C15.3042 2.47917 15.5 2.95 15.5 3.5C15.5 4.05 15.3042 4.52083 14.9125 4.9125C14.5208 5.30417 14.05 5.5 13.5 5.5Z" fill="black"/>
</g>
</svg>
