<svg width="20" height="20" viewBox="0 0 20 20" fill="none" xmlns="http://www.w3.org/2000/svg">
<path d="M2.125 6.75C1.57272 6.75 1.125 7.19772 1.125 7.75C1.125 8.30229 1.57272 8.75 2.125 8.75V6.75ZM17.875 8.75C18.4273 8.75 18.875 8.30229 18.875 7.75C18.875 7.19772 18.4273 6.75 17.875 6.75V8.75ZM2.21948 11.8124C1.66719 11.8124 1.21948 12.2601 1.21948 12.8124C1.21948 13.3647 1.66719 13.8124 2.21948 13.8124V11.8124ZM17.9695 13.8124C18.5218 13.8124 18.9695 13.3647 18.9695 12.8124C18.9695 12.2601 18.5218 11.8124 17.9695 11.8124V13.8124ZM18 10C18 14.4183 14.4183 18 10 18V20C15.5228 20 20 15.5228 20 10H18ZM10 18C5.58172 18 2 14.4183 2 10H0C0 15.5228 4.47715 20 10 20V18ZM2 10C2 5.58172 5.58172 2 10 2V0C4.47715 0 0 4.47715 0 10H2ZM10 2C14.4183 2 18 5.58172 18 10H20C20 4.47715 15.5228 0 10 0V2ZM10 18C9.78721 18 9.50566 17.9056 9.16241 17.5738C8.81434 17.2373 8.45521 16.7021 8.13192 15.9631C7.48665 14.4882 7.0625 12.3807 7.0625 10H5.0625C5.0625 12.5898 5.51979 14.9823 6.29961 16.7648C6.68887 17.6545 7.1782 18.4373 7.77228 19.0117C8.37118 19.5907 9.12548 20 10 20V18ZM7.0625 10C7.0625 7.61928 7.48665 5.51177 8.13192 4.03686C8.45521 3.29792 8.81434 2.76272 9.16241 2.42621C9.50566 2.09436 9.78721 2 10 2V0C9.12548 0 8.37118 0.409315 7.77228 0.988315C7.1782 1.56266 6.68887 2.34548 6.29961 3.23522C5.51979 5.01767 5.0625 7.41015 5.0625 10H7.0625ZM10 20C10.8745 20 11.6288 19.5907 12.2277 19.0117C12.8218 18.4373 13.3111 17.6545 13.7004 16.7648C14.4802 14.9823 14.9375 12.5898 14.9375 10H12.9375C12.9375 12.3807 12.5133 14.4882 11.8681 15.9631C11.5448 16.7021 11.1857 17.2373 10.8376 17.5738C10.4943 17.9056 10.2128 18 10 18V20ZM14.9375 10C14.9375 7.41015 14.4802 5.01767 13.7004 3.23522C13.3111 2.34548 12.8218 1.56266 12.2277 0.988315C11.6288 0.409315 10.8745 0 10 0V2C10.2128 2 10.4943 2.09436 10.8376 2.42621C11.1857 2.76272 11.5448 3.29792 11.8681 4.03686C12.5133 5.51177 12.9375 7.61928 12.9375 10H14.9375ZM2.125 8.75H17.875V6.75H2.125V8.75ZM2.21948 13.8124H17.9695V11.8124H2.21948V13.8124Z" fill="black"/>
</svg>
