<svg width="24" height="24" viewBox="0 0 24 24" fill="none" xmlns="http://www.w3.org/2000/svg">
<mask id="mask0_372_386" style="mask-type:alpha" maskUnits="userSpaceOnUse" x="0" y="0" width="24" height="24">
<rect width="24" height="24" fill="#D9D9D9"/>
</mask>
<g mask="url(#mask0_372_386)">
<path d="M10.05 13.95L3.575 11.325C3.35833 11.2417 3.2 11.1125 3.1 10.9375C3 10.7625 2.95 10.5834 2.95 10.4C2.95 10.2167 3.00416 10.0375 3.1125 9.86252C3.22083 9.68752 3.38333 9.55836 3.6 9.47502L18.95 3.77502C19.15 3.69169 19.3417 3.67502 19.525 3.72502C19.7083 3.77502 19.8667 3.86669 20 4.00002C20.1333 4.13336 20.225 4.29169 20.275 4.47502C20.325 4.65836 20.3083 4.85002 20.225 5.05002L14.525 20.4C14.4417 20.6167 14.3125 20.7792 14.1375 20.8875C13.9625 20.9959 13.7833 21.05 13.6 21.05C13.4167 21.05 13.2375 21 13.0625 20.9C12.8875 20.8 12.7583 20.6417 12.675 20.425L10.05 13.95Z" fill="black"/>
</g>
</svg>
