<svg width="24" height="24" viewBox="0 0 24 24" fill="none" xmlns="http://www.w3.org/2000/svg">
<mask id="mask0_372_393" style="mask-type:alpha" maskUnits="userSpaceOnUse" x="0" y="0" width="24" height="24">
<rect width="24" height="24" fill="#D9D9D9"/>
</mask>
<g mask="url(#mask0_372_393)">
<path d="M12.675 20.425L10.05 13.95L3.575 11.325C3.35833 11.2417 3.2 11.1125 3.1 10.9375C3 10.7625 2.95 10.5834 2.95 10.4C2.95 10.2167 3.00416 10.0375 3.1125 9.86252C3.22083 9.68752 3.38333 9.55836 3.6 9.47502L7.875 7.87502L3.5 3.50002C3.3 3.30002 3.2 3.06252 3.2 2.78752C3.2 2.51252 3.3 2.27502 3.5 2.07502C3.7 1.87502 3.9375 1.77502 4.2125 1.77502C4.4875 1.77502 4.725 1.87502 4.925 2.07502L21.925 19.075C22.125 19.275 22.225 19.5084 22.225 19.775C22.225 20.0417 22.125 20.275 21.925 20.475C21.725 20.675 21.4875 20.775 21.2125 20.775C20.9375 20.775 20.7 20.675 20.5 20.475L16.125 16.125L14.525 20.4C14.4417 20.6167 14.3125 20.7792 14.1375 20.8875C13.9625 20.9959 13.7833 21.05 13.6 21.05C13.4167 21.05 13.2375 21 13.0625 20.9C12.8875 20.8 12.7583 20.6417 12.675 20.425ZM20.025 3.97502C20.1583 4.10836 20.25 4.27086 20.3 4.46252C20.35 4.65419 20.3333 4.85002 20.25 5.05002L18.225 10.525C18.0917 10.8584 17.85 11.0667 17.5 11.15C17.15 11.2334 16.8417 11.1417 16.575 10.875L13.125 7.42502C12.8583 7.15836 12.7667 6.85002 12.85 6.50002C12.9333 6.15002 13.1417 5.90836 13.475 5.77502L18.95 3.75002C19.15 3.66669 19.3458 3.65002 19.5375 3.70002C19.7292 3.75002 19.8917 3.84169 20.025 3.97502Z" fill="black"/>
</g>
</svg>
