<svg width="20" height="18" viewBox="0 0 20 18" fill="none" xmlns="http://www.w3.org/2000/svg">
<path d="M19.4189 8.09219C19.5825 8.16742 19.7226 8.28541 19.8247 8.43369C19.9268 8.58197 19.9869 8.75505 19.9988 8.93468C20.0107 9.1143 19.9738 9.29379 19.8922 9.45422C19.8106 9.61466 19.6871 9.75007 19.5349 9.84619L19.4189 9.90819L2.05391 17.9132C1.48791 18.1112 0.857913 17.9632 0.438913 17.5352C0.252725 17.3468 0.118627 17.1133 0.0497391 16.8576C-0.0191486 16.6018 -0.0204685 16.3326 0.045913 16.0762L2.44391 8.99919L0.105915 2.10019C0.00788299 1.8488 -0.022379 1.57606 0.0181617 1.3093C0.0587024 1.04254 0.168623 0.791104 0.336914 0.580189L0.436914 0.468189C0.822914 0.0701887 1.39091 -0.0878111 1.99291 0.0751889L2.14291 0.122189L19.4189 8.09219Z" fill="black"/>
</svg>
