<svg width="24" height="24" viewBox="0 0 24 24" fill="none" xmlns="http://www.w3.org/2000/svg">
<g id="solar:gallery-round-linear">
<g id="Group">
<path id="Vector" d="M2 12C2 7.286 2 4.929 3.464 3.464C4.93 2 7.286 2 12 2C16.714 2 19.071 2 20.535 3.464C22 4.93 22 7.286 22 12C22 16.714 22 19.071 20.535 20.535C19.072 22 16.714 22 12 22C7.286 22 4.929 22 3.464 20.535C2 19.072 2 16.714 2 12Z" stroke="black" stroke-width="2"/>
<path id="Vector_2" d="M16 10C17.1046 10 18 9.10457 18 8C18 6.89543 17.1046 6 16 6C14.8954 6 14 6.89543 14 8C14 9.10457 14.8954 10 16 10Z" stroke="black" stroke-width="2"/>
<path id="Vector_3" d="M2 10.1531L2.98 10.0121C9.96 9.0091 15.925 15.0291 14.858 21.9991" stroke="black" stroke-width="2" stroke-linecap="round"/>
<path id="Vector_4" d="M21.9999 13.3843L21.0269 13.2493C18.1829 12.8553 15.6099 14.2713 14.2849 16.4993" stroke="black" stroke-width="2" stroke-linecap="round"/>
</g>
</g>
</svg>
