<svg width="24" height="24" viewBox="0 0 24 24" fill="none" xmlns="http://www.w3.org/2000/svg">
<mask id="mask0_430_1572" style="mask-type:alpha" maskUnits="userSpaceOnUse" x="0" y="0" width="24" height="24">
<rect width="24" height="24" fill="#D9D9D9"/>
</mask>
<g mask="url(#mask0_430_1572)">
<path d="M12 17.3L8.3 20.125C8.11667 20.275 7.91667 20.3458 7.7 20.3375C7.48334 20.3291 7.29167 20.2666 7.125 20.15C6.95833 20.0333 6.82917 19.875 6.7375 19.675C6.64584 19.475 6.64167 19.2583 6.725 19.025L8.15 14.4L4.525 11.825C4.325 11.6916 4.2 11.5166 4.15 11.3C4.1 11.0833 4.10834 10.8833 4.175 10.7C4.24167 10.5166 4.35834 10.3541 4.525 10.2125C4.69167 10.0708 4.89167 9.99998 5.125 9.99998H9.6L11.05 5.19998C11.1333 4.96664 11.2625 4.78748 11.4375 4.66248C11.6125 4.53748 11.8 4.47498 12 4.47498C12.2 4.47498 12.3875 4.53748 12.5625 4.66248C12.7375 4.78748 12.8667 4.96664 12.95 5.19998L14.4 9.99998H18.875C19.1083 9.99998 19.3083 10.0708 19.475 10.2125C19.6417 10.3541 19.7583 10.5166 19.825 10.7C19.8917 10.8833 19.9 11.0833 19.85 11.3C19.8 11.5166 19.675 11.6916 19.475 11.825L15.85 14.4L17.275 19.025C17.3583 19.2583 17.3542 19.475 17.2625 19.675C17.1708 19.875 17.0417 20.0333 16.875 20.15C16.7083 20.2666 16.5167 20.3291 16.3 20.3375C16.0833 20.3458 15.8833 20.275 15.7 20.125L12 17.3Z" fill="black"/>
</g>
</svg>
