<svg width="24" height="24" viewBox="0 0 24 24" fill="none" xmlns="http://www.w3.org/2000/svg">
<mask id="mask0_372_566" style="mask-type:alpha" maskUnits="userSpaceOnUse" x="0" y="0" width="24" height="24">
<rect width="24" height="24" fill="#D9D9D9"/>
</mask>
<g mask="url(#mask0_372_566)">
<path d="M9 13C8.71667 13 8.47917 12.9042 8.2875 12.7125C8.09584 12.5209 8 12.2834 8 12V5.82505L6.125 7.70005C5.94167 7.88338 5.7125 7.97505 5.4375 7.97505C5.1625 7.97505 4.925 7.88338 4.725 7.70005C4.525 7.50005 4.425 7.26255 4.425 6.98755C4.425 6.71255 4.525 6.47505 4.725 6.27505L8.3 2.70005C8.4 2.60005 8.50834 2.52922 8.625 2.48755C8.74167 2.44588 8.86667 2.42505 9 2.42505C9.13334 2.42505 9.25834 2.44588 9.375 2.48755C9.49167 2.52922 9.6 2.60005 9.7 2.70005L13.3 6.30005C13.5 6.50005 13.5958 6.73338 13.5875 7.00005C13.5792 7.26672 13.475 7.50005 13.275 7.70005C13.075 7.88338 12.8417 7.97922 12.575 7.98755C12.3083 7.99588 12.075 7.90005 11.875 7.70005L10 5.82505V12C10 12.2834 9.90417 12.5209 9.7125 12.7125C9.52084 12.9042 9.28334 13 9 13ZM15 21.575C14.8667 21.575 14.7417 21.5542 14.625 21.5125C14.5083 21.4709 14.4 21.4 14.3 21.3L10.7 17.7C10.5 17.5 10.4042 17.2667 10.4125 17C10.4208 16.7334 10.525 16.5 10.725 16.3C10.925 16.1167 11.1583 16.0209 11.425 16.0125C11.6917 16.0042 11.925 16.1 12.125 16.3L14 18.175V12C14 11.7167 14.0958 11.4792 14.2875 11.2875C14.4792 11.0959 14.7167 11 15 11C15.2833 11 15.5208 11.0959 15.7125 11.2875C15.9042 11.4792 16 11.7167 16 12V18.175L17.875 16.3C18.0583 16.1167 18.2875 16.025 18.5625 16.025C18.8375 16.025 19.075 16.1167 19.275 16.3C19.475 16.5 19.575 16.7375 19.575 17.0125C19.575 17.2875 19.475 17.525 19.275 17.725L15.7 21.3C15.6 21.4 15.4917 21.4709 15.375 21.5125C15.2583 21.5542 15.1333 21.575 15 21.575Z" fill="black"/>
</g>
</svg>
