<svg width="24" height="24" viewBox="0 0 24 24" fill="none" xmlns="http://www.w3.org/2000/svg">
<g id="users-profiles-02">
<path id="Icon" d="M19.2 13.6855C20.4673 14.6324 21.6 17.0165 21.6 18.4855C21.6 18.9431 21.2661 19.3141 20.8542 19.3141H20.4M15.6 9.80432C16.4198 9.33006 16.9714 8.44365 16.9714 7.4284C16.9714 6.41316 16.4198 5.52675 15.6 5.05249M3.14577 19.3141H16.2828C16.6947 19.3141 17.0286 18.9431 17.0286 18.4855C17.0286 15.6089 14.6253 13.2769 9.71428 13.2769C4.80326 13.2769 2.4 15.6089 2.4 18.4855C2.4 18.9431 2.73389 19.3141 3.14577 19.3141ZM12.4571 7.4284C12.4571 8.94324 11.2291 10.1713 9.71428 10.1713C8.19945 10.1713 6.97143 8.94324 6.97143 7.4284C6.97143 5.91357 8.19945 4.68555 9.71428 4.68555C11.2291 4.68555 12.4571 5.91357 12.4571 7.4284Z" stroke="black" stroke-width="2" stroke-linecap="round"/>
</g>
</svg>
