<svg width="28" height="28" viewBox="0 0 28 28" fill="none" xmlns="http://www.w3.org/2000/svg">
<g clip-path="url(#clip0_430_1265)">
<path d="M0.661063 9.73922C0.232203 11.0828 -5.46778e-05 12.5141 9.65534e-09 13.9999C-5.46778e-05 15.4858 0.232258 16.9172 0.661117 18.2608L14 18.8696L27.3389 18.2609C27.7677 16.9173 28.0001 15.4858 28.0001 14C28 12.5142 27.7677 11.0828 27.3389 9.73917L14 9.13049L0.661063 9.73922Z" fill="white"/>
<path d="M27.3388 9.73917L13.9999 9.13049L0.660998 9.73917C0.533904 10.1375 0.424475 10.5437 0.332764 10.9566H27.6669C27.5753 10.5436 27.4659 10.1374 27.3388 9.73917Z" fill="#D80027"/>
<path d="M0.332916 17.0435C0.424518 17.4563 0.533948 17.8625 0.661041 18.2608L0.662354 18.2609L13.9999 18.8695L27.3388 18.2609C27.4658 17.8625 27.5753 17.4563 27.6669 17.0435H0.332916Z" fill="#D80027"/>
<path d="M13.9999 28C20.2461 28 25.536 23.9092 27.3388 18.2609H0.661102C2.46388 23.9092 7.75391 28 13.9999 28Z" fill="#6DA544"/>
<path d="M14 5.48301e-10C7.75388 5.46881e-05 2.46395 4.09084 0.661072 9.73913L27.3388 9.73919C25.5361 4.09079 20.2461 -5.4687e-05 14 5.48301e-10Z" fill="#338AF3"/>
<path d="M6.39768 5.78266C6.39768 4.47142 7.31922 3.37602 8.54985 3.10729C8.36074 3.06595 8.16447 3.04358 7.96289 3.04358C6.45012 3.04358 5.22375 4.26989 5.22375 5.78271C5.22375 7.29553 6.45001 8.52184 7.96289 8.52184C8.16447 8.52184 8.36068 8.49942 8.54985 8.45813C7.31927 8.18929 6.39768 7.0939 6.39768 5.78266Z" fill="white"/>
<path d="M10.1688 7.02771L10.3542 7.59837H10.9543L10.4688 7.95111L10.6542 8.52177L10.1688 8.16909L9.68332 8.52177L9.86876 7.95111L9.3833 7.59837H9.98333L10.1688 7.02771Z" fill="white"/>
<path d="M12.084 7.02771L12.2694 7.59837H12.8695L12.384 7.95111L12.5694 8.52177L12.084 8.16909L11.5985 8.52177L11.784 7.95111L11.2986 7.59837H11.8985L12.084 7.02771Z" fill="white"/>
<path d="M13.9992 7.02771L14.1846 7.59837H14.7847L14.2992 7.95111L14.4846 8.52177L13.9992 8.16909L13.5137 8.52177L13.6992 7.95111L13.2137 7.59837H13.8137L13.9992 7.02771Z" fill="white"/>
<path d="M15.9144 7.02771L16.0999 7.59837H16.6998L16.2144 7.95111L16.3999 8.52177L15.9144 8.16909L15.4289 8.52177L15.6144 7.95111L15.1289 7.59837H15.7289L15.9144 7.02771Z" fill="white"/>
<path d="M17.8296 7.02771L18.015 7.59837H18.615L18.1296 7.95111L18.3151 8.52177L17.8296 8.16909L17.3441 8.52177L17.5295 7.95111L17.0441 7.59837H17.6441L17.8296 7.02771Z" fill="white"/>
<path d="M12.084 5.03564L12.2694 5.60625H12.8695L12.384 5.95904L12.5694 6.52965L12.084 6.17697L11.5985 6.52965L11.784 5.95904L11.2986 5.60625H11.8985L12.084 5.03564Z" fill="white"/>
<path d="M13.9992 5.03564L14.1846 5.60625H14.7847L14.2992 5.95904L14.4846 6.52965L13.9992 6.17697L13.5137 6.52965L13.6992 5.95904L13.2137 5.60625H13.8137L13.9992 5.03564Z" fill="white"/>
<path d="M15.9144 5.03564L16.0999 5.60625H16.6998L16.2144 5.95904L16.3999 6.52965L15.9144 6.17697L15.4289 6.52965L15.6144 5.95904L15.1289 5.60625H15.7289L15.9144 5.03564Z" fill="white"/>
<path d="M17.8296 5.03564L18.015 5.60625H18.615L18.1296 5.95904L18.3151 6.52965L17.8296 6.17697L17.3441 6.52965L17.5295 5.95904L17.0441 5.60625H17.6441L17.8296 5.03564Z" fill="white"/>
<path d="M13.9992 3.04346L14.1846 3.61418H14.7847L14.2992 3.96686L14.4846 4.53757L13.9992 4.18489L13.5137 4.53757L13.6992 3.96686L13.2137 3.61418H13.8137L13.9992 3.04346Z" fill="white"/>
<path d="M15.9144 3.04346L16.0999 3.61418H16.6998L16.2144 3.96686L16.3999 4.53757L15.9144 4.18489L15.4289 4.53757L15.6144 3.96686L15.1289 3.61418H15.7289L15.9144 3.04346Z" fill="white"/>
<path d="M17.8296 3.04346L18.015 3.61418H18.615L18.1296 3.96686L18.3151 4.53757L17.8296 4.18489L17.3441 4.53757L17.5295 3.96686L17.0441 3.61418H17.6441L17.8296 3.04346Z" fill="white"/>
</g>
<defs>
<clipPath id="clip0_430_1265">
<rect width="28" height="28" fill="white"/>
</clipPath>
</defs>
</svg>
