<svg width="12" height="22" viewBox="0 0 12 22" fill="none" xmlns="http://www.w3.org/2000/svg">
<path d="M4.5 4H7.5M4.5 5V3M7.5 5V3M1.5 14C1.5 13.0263 1.8158 12.0789 2.4 11.3L4.2 8.9C4.39473 8.64036 4.5 8.32456 4.5 8V1H7.5V8C7.5 8.32456 7.60527 8.64036 7.8 8.9L9.6 11.3C10.1842 12.0789 10.5 13.0263 10.5 14V20C10.5 20.2652 10.3946 20.5196 10.2071 20.7071C10.0196 20.8946 9.76522 21 9.5 21H2.5C2.23478 21 1.98043 20.8946 1.79289 20.7071C1.60536 20.5196 1.5 20.2652 1.5 20V14Z" stroke="#2DCC70" stroke-width="2" stroke-linecap="round" stroke-linejoin="round"/>
</svg>
