<svg width="24" height="24" viewBox="0 0 24 24" fill="none" xmlns="http://www.w3.org/2000/svg">
<g id="coins-rotate">
<path id="Icon" d="M10.2 7.80019C10.7457 5.39541 12.8963 3.6002 15.4662 3.6002C18.4485 3.6002 20.8662 6.01786 20.8662 9.00019C20.8662 11.7627 18.7918 14.0407 16.1157 14.3615M6.6 6.0002L9 3.6002L6.6 1.2002M1.8 8.40019V6.8002C1.8 5.03288 3.23269 3.6002 5 3.6002H7.4M17.4 18.0002L15 20.4002L17.4 22.8002M22.2 15.6002V17.2002C22.2 18.9675 20.7673 20.4002 19 20.4002H16.6M12.6 16.2002C12.6 19.1825 10.1823 21.6002 7.2 21.6002C4.21767 21.6002 1.8 19.1825 1.8 16.2002C1.8 13.2179 4.21767 10.8002 7.2 10.8002C10.1823 10.8002 12.6 13.2179 12.6 16.2002Z" stroke="#3F414E" stroke-width="2" stroke-linecap="round" stroke-linejoin="round"/>
</g>
</svg>
