<svg width="18" height="22" viewBox="0 0 18 22" fill="none" xmlns="http://www.w3.org/2000/svg">
<path d="M12.0006 1.40039V5.00039C12.0006 5.66313 12.5378 6.20039 13.2006 6.20039H16.8006M15.0006 3.20039C14.4665 2.72253 13.9123 2.15577 13.5624 1.78767C13.3296 1.54273 13.0079 1.40039 12.67 1.40039H3.60029C2.27481 1.40039 1.2003 2.4749 1.20029 3.80038L1.2002 18.2003C1.20019 19.5258 2.2747 20.6003 3.60019 20.6003L14.4002 20.6004C15.7257 20.6004 16.8002 19.5259 16.8002 18.2004L16.8006 5.47822C16.8006 5.17138 16.6835 4.87643 16.4706 4.65552C16.0768 4.24704 15.4191 3.57491 15.0006 3.20039Z" stroke="#2DCC70" stroke-width="2" stroke-linecap="round" stroke-linejoin="round"/>
</svg>
