<svg width="24" height="24" viewBox="0 0 24 24" fill="none" xmlns="http://www.w3.org/2000/svg">
<path d="M21.4189 11.0922C21.5825 11.1674 21.7226 11.2854 21.8247 11.4337C21.9268 11.582 21.9869 11.7551 21.9988 11.9347C22.0107 12.1143 21.9738 12.2938 21.8922 12.4542C21.8106 12.6147 21.6871 12.7501 21.5349 12.8462L21.4189 12.9082L4.05391 20.9132C3.48791 21.1112 2.85791 20.9632 2.43891 20.5352C2.25272 20.3468 2.11863 20.1133 2.04974 19.8576C1.98085 19.6018 1.97953 19.3326 2.04591 19.0762L4.44391 11.9992L2.10591 5.10019C2.00788 4.8488 1.97762 4.57606 2.01816 4.3093C2.0587 4.04254 2.16862 3.7911 2.33691 3.58019L2.43691 3.46819C2.82291 3.07019 3.39091 2.91219 3.99291 3.07519L4.14291 3.12219L21.4189 11.0922Z" fill="black"/>
</svg>
