<svg width="22" height="18" viewBox="0 0 22 18" fill="none" xmlns="http://www.w3.org/2000/svg">
<path d="M18.2 10.6855C19.4674 11.6324 20.6 14.0165 20.6 15.4855C20.6 15.9431 20.2661 16.3141 19.8543 16.3141H19.4M14.6 6.80432C15.4199 6.33006 15.9715 5.44365 15.9715 4.4284C15.9715 3.41316 15.4199 2.52675 14.6 2.05249M2.14579 16.3141H15.2828C15.6947 16.3141 16.0286 15.9431 16.0286 15.4855C16.0286 12.6089 13.6253 10.2769 8.71431 10.2769C3.80329 10.2769 1.40002 12.6089 1.40002 15.4855C1.40002 15.9431 1.73392 16.3141 2.14579 16.3141ZM11.4572 4.4284C11.4572 5.94324 10.2291 7.17126 8.71431 7.17126C7.19947 7.17126 5.97145 5.94324 5.97145 4.4284C5.97145 2.91357 7.19947 1.68555 8.71431 1.68555C10.2291 1.68555 11.4572 2.91357 11.4572 4.4284Z" stroke="black" stroke-width="2" stroke-linecap="round"/>
</svg>
